<?xml version="1.0" encoding="UTF-8" standalone="no"?>
<!-- Created with Inkscape (http://www.inkscape.org/) -->

<svg
   width="108.25011mm"
   height="103.36696mm"
   viewBox="0 0 409.13427 390.67828"
   version="1.1"
   id="svg1"
   xml:space="preserve"
   xmlns="http://www.w3.org/2000/svg"
   xmlns:svg="http://www.w3.org/2000/svg"><defs
     id="defs1" /><g
     id="layer1"
     transform="translate(-2094.5205,-334.04319)"><g
       id="g29"
       transform="translate(540.8924,1195.4506)"><path
         style="fill:#b0cee1"
         d="m 1830.9965,-486.72913 c 0,-0.616 0.066,-0.868 0.1463,-0.56 0.081,0.308 0.081,0.812 0,1.12 -0.081,0.308 -0.1463,0.056 -0.1463,-0.56 z m -27.1388,-7.2 c 3e-4,-3.696 0.047,-5.16418 0.1035,-3.26261 0.057,1.90156 0.057,4.92556 -5e-4,6.72 -0.057,1.79443 -0.1033,0.23861 -0.103,-3.45739 z m 27.4351,4.32 c 0,-0.44 0.073,-0.62 0.1614,-0.4 0.089,0.22 0.089,0.58 0,0.8 -0.089,0.22 -0.1614,0.04 -0.1614,-0.4 z m 0.32,-2.56 c 0,-0.44 0.073,-0.62 0.1614,-0.4 0.089,0.22 0.089,0.58 0,0.8 -0.089,0.22 -0.1614,0.04 -0.1614,-0.4 z m 0.2947,-2.10667 c 0.015,-0.37278 0.091,-0.44861 0.1933,-0.19333 0.092,0.231 0.081,0.507 -0.025,0.61333 -0.1063,0.10633 -0.182,-0.0827 -0.1681,-0.42 z m 0.32,-1.92 c 0.015,-0.37278 0.091,-0.44861 0.1933,-0.19333 0.092,0.231 0.081,0.507 -0.025,0.61333 -0.1063,0.10633 -0.182,-0.0827 -0.1681,-0.42 z m 1.28,-6.4 c 0.015,-0.37278 0.091,-0.44861 0.1933,-0.19333 0.092,0.231 0.081,0.507 -0.025,0.61333 -0.1063,0.10633 -0.182,-0.0827 -0.1681,-0.42 z m -29.3293,-43.97333 c 0,-3.784 0.046,-5.332 0.1028,-3.44 0.057,1.892 0.057,4.988 0,6.88 -0.056,1.892 -0.1028,0.344 -0.1028,-3.44 z m 53.3041,-7.16082 c 0,-0.0664 0.252,-0.31845 0.56,-0.56 0.5075,-0.39804 0.5188,-0.38672 0.1208,0.12082 -0.4181,0.53303 -0.6808,0.70255 -0.6808,0.43918 z m 2.56,-3.2 c 0,-0.0665 0.252,-0.31845 0.56,-0.56 0.5075,-0.39804 0.5188,-0.38672 0.1208,0.12082 -0.4181,0.53303 -0.6808,0.70255 -0.6808,0.43918 z m 2.08,-2.43918 c 0.3185,-0.352 0.6511,-0.64 0.7391,-0.64 0.088,0 -0.1006,0.288 -0.4191,0.64 -0.3186,0.352 -0.6512,0.64 -0.7392,0.64 -0.088,0 0.1006,-0.288 0.4192,-0.64 z m 1.76,-2.02014 c 0,-0.0551 0.468,-0.52307 1.04,-1.04 l 1.04,-0.93986 -0.9399,1.04 c -0.8761,0.96942 -1.1401,1.18708 -1.1401,0.93986 z m 8.64,-8.64 c 0,-0.0551 0.468,-0.52307 1.04,-1.04 l 1.04,-0.93986 -0.9399,1.04 c -0.8761,0.96942 -1.1401,1.18708 -1.1401,0.93986 z m -32.32,-2.90068 c 0,-0.0665 0.252,-0.31845 0.56,-0.56 0.5075,-0.39804 0.5188,-0.38672 0.1208,0.12082 -0.4181,0.53303 -0.6808,0.70255 -0.6808,0.43918 z m 36,-0.51918 c 0.3185,-0.352 0.6511,-0.64 0.7391,-0.64 0.088,0 -0.1006,0.288 -0.4191,0.64 -0.3186,0.352 -0.6512,0.64 -0.7392,0.64 -0.088,0 0.1006,-0.288 0.4192,-0.64 z m -34.4,-1.40082 c 0,-0.0664 0.252,-0.31845 0.56,-0.56 0.5075,-0.39804 0.5188,-0.38672 0.1208,0.12082 -0.4181,0.53303 -0.6808,0.70255 -0.6808,0.43918 z m 36.16,0 c 0,-0.0664 0.252,-0.31845 0.56,-0.56 0.5075,-0.39804 0.5188,-0.38672 0.1208,0.12082 -0.4181,0.53303 -0.6808,0.70255 -0.6808,0.43918 z m 1.6,-1.28 c 0,-0.0665 0.252,-0.31845 0.56,-0.56 0.5075,-0.39804 0.5188,-0.38672 0.1208,0.12082 -0.4181,0.53303 -0.6808,0.70255 -0.6808,0.43918 z m -35.36,-1.47918 c 0.3185,-0.352 0.6511,-0.64 0.7391,-0.64 0.088,0 -0.1006,0.288 -0.4191,0.64 -0.3186,0.352 -0.6512,0.64 -0.7392,0.64 -0.088,0 0.1006,-0.288 0.4192,-0.64 z m 36.96,0.19918 c 0,-0.0665 0.252,-0.31845 0.56,-0.56 0.5075,-0.39804 0.5188,-0.38672 0.1208,0.12082 -0.4181,0.53303 -0.6808,0.70255 -0.6808,0.43918 z m -32.96,-4.51918 c 0.9559,-0.968 1.8101,-1.76 1.8981,-1.76 0.088,0 -0.6222,0.792 -1.5781,1.76 -0.956,0.968 -1.8102,1.76 -1.8982,1.76 -0.088,0 0.6222,-0.792 1.5782,-1.76 z m -294.5655,-16.16001 0.01,-12.64 2.24,-0.021 2.24,-0.021 -2.1564,0.11494 -2.1563,0.11494 -0.089,12.54605 -0.089,12.54606 z m 12.0915,12.57825 c 0.3114,-0.0811 0.7434,-0.0758 0.96,0.0119 0.2167,0.0876 -0.038,0.15403 -0.566,0.14751 -0.528,-0.007 -0.7053,-0.0782 -0.394,-0.15937 z m 287.594,-1.53825 c 0.9559,-0.968 1.8101,-1.76 1.8981,-1.76 0.088,0 -0.6222,0.792 -1.5781,1.76 -0.956,0.96801 -1.8102,1.76001 -1.8982,1.76001 -0.088,0 0.6222,-0.792 1.5782,-1.76001 z m -281.68,1.22808 c 0.22,-0.0888 0.58,-0.0888 0.8,0 0.22,0.0888 0.04,0.1614 -0.4,0.1614 -0.44,0 -0.62,-0.0726 -0.4,-0.1614 z m 4.5,-0.32667 c 0.231,-0.0924 0.507,-0.0811 0.6133,0.0253 0.1063,0.10634 -0.083,0.18197 -0.42,0.16807 -0.3728,-0.0154 -0.4486,-0.0912 -0.1933,-0.19333 z m 281.5,-4.90141 c 0.3185,-0.352 0.6511,-0.64 0.7391,-0.64 0.088,0 -0.1006,0.288 -0.4191,0.64 -0.3186,0.352 -0.6512,0.64 -0.7392,0.64 -0.088,0 0.1006,-0.288 0.4192,-0.64 z m -53.1446,-8.16 c 3e-4,-3.696 0.047,-5.16417 0.1035,-3.2626 0.057,1.90156 0.056,4.92556 -5e-4,6.72 -0.057,1.79443 -0.1033,0.2386 -0.103,-3.4574 z m 55.2246,6.43919 c 0,-0.0665 0.252,-0.31845 0.56,-0.56 0.5075,-0.39804 0.5188,-0.38672 0.1208,0.12081 -0.4181,0.53304 -0.6808,0.70256 -0.6808,0.43919 z m 1.92,-1.6 c 0,-0.0665 0.252,-0.31845 0.56,-0.56 0.5075,-0.39804 0.5188,-0.38672 0.1208,0.12081 -0.4181,0.53304 -0.6808,0.70256 -0.6808,0.43919 z m 73.8599,-8.41778 c 0.231,-0.0924 0.507,-0.0811 0.6134,0.0253 0.1063,0.10633 -0.083,0.18197 -0.42,0.16807 -0.3728,-0.0154 -0.4486,-0.0912 -0.1934,-0.19333 z m 1.6,-0.32 c 0.231,-0.0924 0.507,-0.0811 0.6134,0.0253 0.1063,0.10633 -0.083,0.18197 -0.42,0.16807 -0.3728,-0.0154 -0.4486,-0.0912 -0.1934,-0.19333 z m 1.6,-0.32 c 0.231,-0.0924 0.507,-0.0811 0.6134,0.0253 0.1063,0.10633 -0.083,0.18197 -0.42,0.16807 -0.3728,-0.0153 -0.4486,-0.0912 -0.1934,-0.19333 z m 1.92,-0.32 c 0.231,-0.0924 0.507,-0.0811 0.6134,0.0253 0.1063,0.10633 -0.083,0.18197 -0.42,0.16807 -0.3728,-0.0154 -0.4486,-0.0912 -0.1934,-0.19333 z m 1.92,-0.32 c 0.231,-0.0924 0.507,-0.0811 0.6134,0.0253 0.1063,0.10633 -0.083,0.18197 -0.42,0.16807 -0.3728,-0.0154 -0.4486,-0.0912 -0.1934,-0.19333 z m 1.9,-0.31333 c 0.22,-0.0888 0.58,-0.0888 0.8,0 0.22,0.0888 0.04,0.1614 -0.4,0.1614 -0.44,0 -0.62,-0.0726 -0.4,-0.1614 z m 2.56,-0.32 c 0.22,-0.0888 0.58,-0.0888 0.8,0 0.22,0.0888 0.04,0.1614 -0.4,0.1614 -0.44,0 -0.62,-0.0726 -0.4,-0.1614 z m 3.04,-0.32866 c 0.308,-0.0805 0.812,-0.0805 1.12,0 0.308,0.0805 0.056,0.14634 -0.56,0.14634 -0.616,0 -0.868,-0.0658 -0.56,-0.14634 z m 4,-0.32525 c 0.396,-0.0763 1.044,-0.0763 1.44,0 0.396,0.0763 0.072,0.13868 -0.72,0.13868 -0.792,0 -1.116,-0.0624 -0.72,-0.13868 z m 7.2,-0.31475 c 0.308,-0.0805 0.812,-0.0805 1.12,0 0.308,0.0805 0.056,0.14634 -0.56,0.14634 -0.616,0 -0.868,-0.0659 -0.56,-0.14634 z m -395.1939,-5.44117 c 0.3114,-0.0811 0.7434,-0.0758 0.96,0.0119 0.2167,0.0876 -0.038,0.15403 -0.566,0.14751 -0.528,-0.007 -0.7053,-0.0782 -0.394,-0.15937 z m 5.614,-0.31684 c 0.231,-0.0924 0.507,-0.0811 0.6133,0.0253 0.1063,0.10633 -0.083,0.18197 -0.42,0.16807 -0.3728,-0.0153 -0.4486,-0.0912 -0.1933,-0.19333 z m 7.36,-0.64 c 0.231,-0.0924 0.507,-0.0811 0.6133,0.0253 0.1063,0.10633 -0.083,0.18197 -0.42,0.16807 -0.3728,-0.0154 -0.4486,-0.0912 -0.1933,-0.19333 z m 252.54,-1.16154 c 0,-0.0551 0.468,-0.52307 1.04,-1.04 l 1.04,-0.93987 -0.9399,1.04 c -0.8761,0.96943 -1.1401,1.18709 -1.1401,0.93987 z m 4,-3.73987 c 0.3185,-0.352 0.6511,-0.64 0.7391,-0.64 0.088,0 -0.1006,0.288 -0.4191,0.64 -0.3186,0.352 -0.6512,0.64 -0.7392,0.64 -0.088,0 0.1006,-0.288 0.4192,-0.64 z m 2.24,-1.92 c 0.3185,-0.352 0.6511,-0.64 0.7391,-0.64 0.088,0 -0.1006,0.288 -0.4191,0.64 -0.3186,0.352 -0.6512,0.64 -0.7392,0.64 -0.088,0 0.1006,-0.288 0.4192,-0.64 z m 1.76,-1.40081 c 0,-0.0665 0.252,-0.31845 0.56,-0.56 0.5075,-0.39804 0.5188,-0.38672 0.1208,0.12081 -0.4181,0.53304 -0.6808,0.70256 -0.6808,0.43919 z m 1.6,-1.28 c 0,-0.0665 0.252,-0.31845 0.56,-0.56 0.5075,-0.39804 0.5188,-0.38672 0.1208,0.12081 -0.4181,0.53304 -0.6808,0.70256 -0.6808,0.43919 z m 89.5399,-6.17778 c 0.231,-0.0924 0.507,-0.0811 0.6134,0.0253 0.1063,0.10633 -0.083,0.18197 -0.42,0.16807 -0.3728,-0.0154 -0.4486,-0.0912 -0.1934,-0.19333 z m 1.6,-0.32 c 0.231,-0.0924 0.507,-0.0811 0.6134,0.0253 0.1063,0.10633 -0.083,0.18197 -0.42,0.16807 -0.3728,-0.0154 -0.4486,-0.0912 -0.1934,-0.19333 z m 1.92,-0.32 c 0.231,-0.0924 0.507,-0.0811 0.6134,0.0253 0.1063,0.10633 -0.083,0.18197 -0.42,0.16807 -0.3728,-0.0154 -0.4486,-0.0912 -0.1934,-0.19333 z m 1.6,-0.32 c 0.231,-0.0924 0.507,-0.0811 0.6134,0.0253 0.1063,0.10633 -0.083,0.18197 -0.42,0.16807 -0.3728,-0.0154 -0.4486,-0.0912 -0.1934,-0.19333 z m 1.9,-0.31334 c 0.22,-0.0888 0.58,-0.0888 0.8,0 0.22,0.0888 0.04,0.16141 -0.4,0.16141 -0.44,0 -0.62,-0.0726 -0.4,-0.16141 z m 2.24,-0.32 c 0.22,-0.0888 0.58,-0.0888 0.8,0 0.22,0.0888 0.04,0.16141 -0.4,0.16141 -0.44,0 -0.62,-0.0726 -0.4,-0.16141 z m 2.24,-0.32 c 0.22,-0.0888 0.58,-0.0888 0.8,0 0.22,0.0888 0.04,0.16141 -0.4,0.16141 -0.44,0 -0.62,-0.0726 -0.4,-0.16141 z m 2.7261,-0.32982 c 0.3114,-0.0811 0.7434,-0.0758 0.96,0.0118 0.2167,0.0877 -0.038,0.15404 -0.5661,0.14752 -0.528,-0.007 -0.7052,-0.0782 -0.3939,-0.15937 z m 3.1939,-0.31883 c 0.308,-0.0805 0.812,-0.0805 1.12,0 0.308,0.0805 0.056,0.14634 -0.56,0.14634 -0.616,0 -0.868,-0.0659 -0.56,-0.14634 z m 4.1644,-0.32904 c 0.4865,-0.0735 1.2065,-0.0716 1.6,0.004 0.3936,0.076 0,0.13613 -0.8844,0.13373 -0.88,-0.002 -1.202,-0.0645 -0.7156,-0.1381 z m 7.1885,-0.32133 c 0.5681,-0.0707 1.5761,-0.0718 2.24,-0.003 0.6639,0.0693 0.1991,0.12711 -1.0329,0.12853 -1.232,10e-4 -1.7752,-0.0553 -1.2071,-0.12595 z m -400.4684,-13.43867 c 0.4864,-0.0735 1.2064,-0.0716 1.6,0.004 0.3935,0.076 0,0.13613 -0.8844,0.13373 -0.88,-0.002 -1.2021,-0.0645 -0.7156,-0.1381 z m -5.3786,-12.73038 c 1e-4,-7.04 0.042,-9.87441 0.094,-6.29868 0.052,3.57572 0.052,9.33572 -10e-5,12.8 -0.052,3.46428 -0.094,0.53868 -0.094,-6.50132 z m 12.8942,12.42807 c 0.22,-0.0888 0.58,-0.0888 0.8,0 0.22,0.0888 0.04,0.16141 -0.4,0.16141 -0.44,0 -0.62,-0.0726 -0.4,-0.16141 z m 4.82,-0.32666 c 0.231,-0.0924 0.507,-0.0811 0.6133,0.0253 0.1063,0.10633 -0.083,0.18197 -0.42,0.16807 -0.3728,-0.0154 -0.4486,-0.0912 -0.1933,-0.19333 z m 3.52,-0.32 c 0.231,-0.0924 0.507,-0.0811 0.6133,0.0253 0.1063,0.10633 -0.083,0.18197 -0.42,0.16807 -0.3728,-0.0154 -0.4486,-0.0912 -0.1933,-0.19333 z m 229.9554,-6.34141 c 3e-4,-3.696 0.047,-5.16417 0.1035,-3.2626 0.057,1.90156 0.056,4.92556 -5e-4,6.72 -0.057,1.79443 -0.1033,0.2386 -0.103,-3.4574 z m -72.1354,0.99919 c 0,-0.0665 0.252,-0.31845 0.56,-0.56 0.5075,-0.39804 0.5188,-0.38672 0.1208,0.12081 -0.4181,0.53304 -0.6808,0.70256 -0.6808,0.43919 z m 2.24,-1.92 c 0,-0.0664 0.252,-0.31845 0.56,-0.56 0.5075,-0.39804 0.5188,-0.38672 0.1208,0.12081 -0.4181,0.53304 -0.6808,0.70256 -0.6808,0.43919 z m 3.04,-2.75919 c 0.3185,-0.352 0.6511,-0.64 0.7391,-0.64 0.088,0 -0.1006,0.288 -0.4191,0.64 -0.3186,0.352 -0.6512,0.64 -0.7392,0.64 -0.088,0 0.1006,-0.288 0.4192,-0.64 z m 2.72,-2.34013 c 0,-0.0551 0.468,-0.52307 1.04,-1.04 l 1.04,-0.93987 -0.9399,1.04 c -0.8761,0.96943 -1.1401,1.18709 -1.1401,0.93987 z m 90.7081,-15.41987 c 10e-5,-8.624 0.041,-12.106 0.092,-7.73779 0.05,4.36822 0.05,11.42422 -1e-4,15.68 -0.05,4.25579 -0.091,0.68179 -0.091,-7.94221 z m 89.0718,13.06141 c 0.231,-0.0924 0.507,-0.0811 0.6134,0.0253 0.1063,0.10633 -0.083,0.18197 -0.42,0.16807 -0.3728,-0.0154 -0.4486,-0.0912 -0.1934,-0.19333 z m 8,-1.6 c 0.231,-0.0924 0.507,-0.0811 0.6134,0.0253 0.1063,0.10633 -0.083,0.18197 -0.42,0.16807 -0.3728,-0.0154 -0.4486,-0.0912 -0.1934,-0.19333 z m 1.92,-0.32 c 0.231,-0.0924 0.507,-0.0811 0.6134,0.0253 0.1063,0.10633 -0.083,0.18197 -0.42,0.16807 -0.3728,-0.0154 -0.4486,-0.0912 -0.1934,-0.19333 z m 1.92,-0.32 c 0.231,-0.0924 0.507,-0.0811 0.6134,0.0253 0.1063,0.10633 -0.083,0.18197 -0.42,0.16807 -0.3728,-0.0153 -0.4486,-0.0912 -0.1934,-0.19333 z m 1.9,-0.31334 c 0.22,-0.0888 0.58,-0.0888 0.8,0 0.22,0.0888 0.04,0.16141 -0.4,0.16141 -0.44,0 -0.62,-0.0726 -0.4,-0.16141 z m 2.24,-0.32 c 0.22,-0.0888 0.58,-0.0888 0.8,0 0.22,0.0888 0.04,0.16141 -0.4,0.16141 -0.44,0 -0.62,-0.0726 -0.4,-0.16141 z m 2.56,-0.32 c 0.22,-0.0888 0.58,-0.0888 0.8,0 0.22,0.0888 0.04,0.16141 -0.4,0.16141 -0.44,0 -0.62,-0.0726 -0.4,-0.16141 z m 2.88,-0.32 c 0.22,-0.0888 0.58,-0.0888 0.8,0 0.22,0.0888 0.04,0.16141 -0.4,0.16141 -0.44,0 -0.62,-0.0726 -0.4,-0.16141 z m 3.04,-0.32865 c 0.308,-0.0805 0.812,-0.0805 1.12,0 0.308,0.0805 0.056,0.14634 -0.56,0.14634 -0.616,0 -0.868,-0.0659 -0.56,-0.14634 z m 4,-0.32525 c 0.396,-0.0763 1.044,-0.0763 1.44,0 0.396,0.0763 0.072,0.13868 -0.72,0.13868 -0.792,0 -1.116,-0.0624 -0.72,-0.13868 z m 6.0885,-0.32888 c 0.7527,-0.0676 1.9047,-0.0666 2.56,0.002 0.6554,0.0688 0.04,0.12407 -1.3685,0.1229 -1.408,-10e-4 -1.9441,-0.0574 -1.1915,-0.12501 z m -394.8847,-5.43161 c 0.398,-0.0765 0.974,-0.0736 1.28,0.006 0.3059,0.0801 -0.02,0.14272 -0.7237,0.13917 -0.704,-0.004 -0.9544,-0.0691 -0.5563,-0.14563 z m 6.3963,-0.30561 c 0.22,-0.0888 0.58,-0.0888 0.8,0 0.22,0.0888 0.04,0.16141 -0.4,0.16141 -0.44,0 -0.62,-0.0726 -0.4,-0.16141 z m 4.18,-0.32666 c 0.231,-0.0924 0.507,-0.0811 0.6133,0.0253 0.1063,0.10633 -0.083,0.18197 -0.42,0.16807 -0.3728,-0.0154 -0.4486,-0.0912 -0.1933,-0.19333 z m 146.3,-0.22222 c 0,-0.0664 0.252,-0.31845 0.56,-0.56 0.5075,-0.39804 0.5188,-0.38672 0.1208,0.12081 -0.4181,0.53304 -0.6808,0.70256 -0.6808,0.43919 z m 2.56,-2.24 c 0,-0.0664 0.252,-0.31845 0.56,-0.56 0.5075,-0.39804 0.5188,-0.38672 0.1208,0.12081 -0.4181,0.53304 -0.6808,0.70256 -0.6808,0.43919 z m 3.52,-3.23919 c 0.4133,-0.44 0.8235,-0.8 0.9115,-0.8 0.088,0 -0.1782,0.36 -0.5915,0.8 -0.4134,0.44 -0.8236,0.8 -0.9116,0.8 -0.088,0 0.1782,-0.36 0.5916,-0.8 z m 8.48,-8.16 c 2.8118,-2.816 5.1845,-5.12 5.2725,-5.12 0.088,0 -2.1407,2.304 -4.9525,5.12 -2.8119,2.816 -5.1845,5.12 -5.2725,5.12 -0.088,0 2.1406,-2.304 4.9525,-5.12 z m 184.0999,-0.53859 c 0.231,-0.0924 0.507,-0.0811 0.6134,0.0253 0.1063,0.10633 -0.083,0.18197 -0.42,0.16807 -0.3728,-0.0154 -0.4486,-0.0912 -0.1934,-0.19333 z m 4.8,-0.96 c 0.231,-0.0924 0.507,-0.0811 0.6134,0.0253 0.1063,0.10633 -0.083,0.18197 -0.42,0.16807 -0.3728,-0.0154 -0.4486,-0.0912 -0.1934,-0.19333 z m 1.6,-0.32 c 0.231,-0.0924 0.507,-0.0811 0.6134,0.0253 0.1063,0.10633 -0.083,0.18197 -0.42,0.16807 -0.3728,-0.0153 -0.4486,-0.0912 -0.1934,-0.19333 z m 3.52,-0.64 c 0.231,-0.0924 0.507,-0.0811 0.6134,0.0253 0.1063,0.10633 -0.083,0.18197 -0.42,0.16807 -0.3728,-0.0154 -0.4486,-0.0912 -0.1934,-0.19333 z m 1.9,-0.31334 c 0.22,-0.0888 0.58,-0.0888 0.8,0 0.22,0.0888 0.04,0.16141 -0.4,0.16141 -0.44,0 -0.62,-0.0726 -0.4,-0.16141 z m 2.26,-0.32666 c 0.231,-0.0924 0.507,-0.0811 0.6134,0.0253 0.1063,0.10633 -0.083,0.18197 -0.42,0.16807 -0.3728,-0.0154 -0.4486,-0.0912 -0.1934,-0.19333 z m 2.24,-0.32 c 0.231,-0.0924 0.507,-0.0811 0.6134,0.0253 0.1063,0.10633 -0.083,0.18197 -0.42,0.16807 -0.3728,-0.0154 -0.4486,-0.0912 -0.1934,-0.19333 z m 2.22,-0.31334 c 0.22,-0.0888 0.58,-0.0888 0.8,0 0.22,0.0888 0.04,0.16141 -0.4,0.16141 -0.44,0 -0.62,-0.0726 -0.4,-0.16141 z m 2.7261,-0.32982 c 0.3114,-0.0811 0.7434,-0.0758 0.96,0.0118 0.2167,0.0877 -0.038,0.15404 -0.5661,0.14752 -0.528,-0.007 -0.7052,-0.0782 -0.3939,-0.15937 z m 2.88,-0.32 c 0.3114,-0.0811 0.7434,-0.0758 0.96,0.0118 0.2167,0.0877 -0.038,0.15404 -0.5661,0.14752 -0.528,-0.007 -0.7052,-0.0782 -0.3939,-0.15937 z m 3.52,-0.32 c 0.3114,-0.0811 0.7434,-0.0758 0.96,0.0118 0.2167,0.0877 -0.038,0.15404 -0.5661,0.14752 -0.528,-0.007 -0.7052,-0.0782 -0.3939,-0.15937 z m 3.9939,-0.32408 c 0.396,-0.0763 1.044,-0.0763 1.44,0 0.396,0.0763 0.072,0.13868 -0.72,0.13868 -0.792,0 -1.116,-0.0624 -0.72,-0.13868 z m 5.92,-0.32728 c 0.66,-0.069 1.74,-0.069 2.4,0 0.66,0.069 0.12,0.12553 -1.2,0.12553 -1.32,0 -1.86,-0.0565 -1.2,-0.12553 z m -213.5199,-3.12689 c 0.4133,-0.44 0.8235,-0.8 0.9115,-0.8 0.088,0 -0.1782,0.36 -0.5915,0.8 -0.4134,0.44 -0.8236,0.8 -0.9116,0.8 -0.088,0 0.1782,-0.36 0.5916,-0.8 z m 2.24,-2.52081 c 0,-0.0665 0.252,-0.31845 0.56,-0.56 0.5075,-0.39804 0.5188,-0.38672 0.1208,0.12081 -0.4181,0.53304 -0.6808,0.70256 -0.6808,0.43919 z m -47.04,-1.28 c 0,-0.0665 0.252,-0.31845 0.56,-0.56 0.5075,-0.39804 0.5188,-0.38672 0.1208,0.12081 -0.4181,0.53304 -0.6808,0.70256 -0.6808,0.43919 z m 110.2154,-7.39919 c 3e-4,-3.696 0.047,-5.16417 0.1035,-3.2626 0.057,1.90156 0.057,4.92556 -5e-4,6.72 -0.057,1.79443 -0.1033,0.2386 -0.103,-3.4574 z m -60.9354,6.11919 c 0,-0.0665 0.252,-0.31845 0.56,-0.56 0.5075,-0.39804 0.5188,-0.38672 0.1208,0.12081 -0.4181,0.53304 -0.6808,0.70256 -0.6808,0.43919 z m -46.56,-1.15919 c 0.3185,-0.352 0.6511,-0.64 0.7391,-0.64 0.088,0 -0.1006,0.288 -0.4191,0.64 -0.3186,0.352 -0.6512,0.64 -0.7392,0.64 -0.088,0 0.1006,-0.288 0.4192,-0.64 z m 4,-3.68 c 0.597,-0.616 1.1575,-1.12 1.2455,-1.12 0.088,0 -0.3285,0.504 -0.9255,1.12 -0.5971,0.616 -1.1576,1.12 -1.2456,1.12 -0.088,0 0.3285,-0.504 0.9256,-1.12 z m -148.0141,-14.88 c 0,-7.128 0.042,-10.044 0.094,-6.48 0.052,3.564 0.052,9.396 0,12.96 -0.052,3.564 -0.094,0.648 -0.094,-6.48 z m 5.8578,12.57368 c 0.398,-0.0765 0.974,-0.0736 1.28,0.006 0.3059,0.0801 -0.02,0.14272 -0.7237,0.13917 -0.704,-0.004 -0.9544,-0.0691 -0.5563,-0.14563 z m 6.0963,-0.31227 c 0.231,-0.0924 0.507,-0.0811 0.6133,0.0253 0.1063,0.10633 -0.083,0.18197 -0.42,0.16807 -0.3728,-0.0154 -0.4486,-0.0912 -0.1933,-0.19333 z m 146.14,-7.46141 c 0.6874,-0.704 1.3218,-1.28 1.4098,-1.28 0.088,0 -0.4024,0.576 -1.0898,1.28 -0.6875,0.704 -1.3219,1.28 -1.4099,1.28 -0.088,0 0.4024,-0.576 1.0899,-1.28 z m -34.72,-2.04081 c 0,-0.0665 0.252,-0.31845 0.56,-0.56 0.5075,-0.39804 0.5188,-0.38672 0.1208,0.12081 -0.4181,0.53304 -0.6808,0.70256 -0.6808,0.43919 z m 38.24,-1.79919 c 0.3185,-0.352 0.6511,-0.64 0.7391,-0.64 0.088,0 -0.1006,0.288 -0.4191,0.64 -0.3186,0.352 -0.6512,0.64 -0.7392,0.64 -0.088,0 0.1006,-0.288 0.4192,-0.64 z m -35.52,-0.64 c 0.3185,-0.352 0.6511,-0.64 0.7391,-0.64 0.088,0 -0.1006,0.288 -0.4191,0.64 -0.3186,0.352 -0.6512,0.64 -0.7392,0.64 -0.088,0 0.1006,-0.288 0.4192,-0.64 z m 225.6999,-1.49859 c 0.231,-0.0924 0.507,-0.0811 0.6134,0.0253 0.1063,0.10633 -0.083,0.18197 -0.42,0.16807 -0.3728,-0.0154 -0.4486,-0.0912 -0.1934,-0.19333 z m -188.0999,-0.22222 c 0,-0.0665 0.252,-0.31845 0.56,-0.56 0.5075,-0.39804 0.5188,-0.38672 0.1208,0.12081 -0.4181,0.53304 -0.6808,0.70256 -0.6808,0.43919 z m -35.2,-0.29932 c 0,-0.0551 0.468,-0.52307 1.04,-1.04 l 1.04,-0.93987 -0.9399,1.04 c -0.8761,0.96943 -1.1401,1.18709 -1.1401,0.93987 z m 226.1799,-0.11846 c 0.231,-0.0924 0.507,-0.0811 0.6134,0.0253 0.1063,0.10633 -0.083,0.18197 -0.42,0.16807 -0.3728,-0.0154 -0.4486,-0.0912 -0.1934,-0.19333 z m 8,-1.6 c 0.231,-0.0924 0.507,-0.0811 0.6134,0.0253 0.1063,0.10633 -0.083,0.18197 -0.42,0.16807 -0.3728,-0.0154 -0.4486,-0.0912 -0.1934,-0.19333 z m 1.6,-0.32 c 0.231,-0.0924 0.507,-0.0811 0.6134,0.0253 0.1063,0.10633 -0.083,0.18197 -0.42,0.16807 -0.3728,-0.0154 -0.4486,-0.0912 -0.1934,-0.19333 z m 1.92,-0.32 c 0.231,-0.0924 0.507,-0.0811 0.6134,0.0253 0.1063,0.10633 -0.083,0.18197 -0.42,0.16807 -0.3728,-0.0154 -0.4486,-0.0912 -0.1934,-0.19333 z m 1.92,-0.32 c 0.231,-0.0924 0.507,-0.0811 0.6134,0.0253 0.1063,0.10633 -0.083,0.18197 -0.42,0.16807 -0.3728,-0.0154 -0.4486,-0.0912 -0.1934,-0.19333 z m 1.9,-0.31334 c 0.22,-0.0888 0.58,-0.0888 0.8,0 0.22,0.0888 0.04,0.16141 -0.4,0.16141 -0.44,0 -0.62,-0.0726 -0.4,-0.16141 z m 2.26,-0.32666 c 0.231,-0.0924 0.507,-0.0811 0.6134,0.0253 0.1063,0.10633 -0.083,0.18197 -0.42,0.16807 -0.3728,-0.0154 -0.4486,-0.0912 -0.1934,-0.19333 z m 2.22,-0.31334 c 0.22,-0.0888 0.58,-0.0888 0.8,0 0.22,0.0888 0.04,0.16141 -0.4,0.16141 -0.44,0 -0.62,-0.0726 -0.4,-0.16141 z m 2.24,-0.32 c 0.22,-0.0888 0.58,-0.0888 0.8,0 0.22,0.0888 0.04,0.16141 -0.4,0.16141 -0.44,0 -0.62,-0.0726 -0.4,-0.16141 z m 2.88,-0.32 c 0.22,-0.0888 0.58,-0.0888 0.8,0 0.22,0.0888 0.04,0.16141 -0.4,0.16141 -0.44,0 -0.62,-0.0726 -0.4,-0.16141 z m 2.7261,-0.32982 c 0.3114,-0.0811 0.7434,-0.0758 0.96,0.0118 0.2167,0.0877 -0.038,0.15404 -0.5661,0.14752 -0.528,-0.007 -0.7052,-0.0782 -0.3939,-0.15937 z m 3.1939,-0.31883 c 0.308,-0.0805 0.812,-0.0805 1.12,0 0.308,0.0805 0.056,0.14634 -0.56,0.14634 -0.616,0 -0.868,-0.0658 -0.56,-0.14634 z m 4.0038,-0.32574 c 0.398,-0.0765 0.974,-0.0736 1.28,0.006 0.3059,0.0801 -0.02,0.14272 -0.7238,0.13916 -0.704,-0.004 -0.9543,-0.0691 -0.5562,-0.14562 z m 4.6406,-0.3233 c 0.4865,-0.0736 1.2065,-0.0716 1.6,0.004 0.3936,0.076 0,0.13613 -0.8844,0.13373 -0.88,-0.002 -1.202,-0.0645 -0.7156,-0.1381 z m 7.8356,-0.3273 c 1.1,-0.0625 2.9,-0.0625 4,0 1.1,0.0625 0.2,0.11361 -2,0.11361 -2.2,0 -3.1,-0.0511 -2,-0.11361 z m -267.1199,-0.20389 c 0,-0.0665 0.252,-0.31845 0.56,-0.56 0.5075,-0.39804 0.5188,-0.38672 0.1208,0.12081 -0.4181,0.53304 -0.6808,0.70256 -0.6808,0.43919 z m -128.4,-5.21112 c 0.22,-0.0888 0.58,-0.0888 0.8,0 0.22,0.0888 0.04,0.16141 -0.4,0.16141 -0.44,0 -0.62,-0.0726 -0.4,-0.16141 z m 4.82,-0.32666 c 0.231,-0.0924 0.507,-0.0811 0.6133,0.0253 0.1063,0.10633 -0.083,0.18197 -0.42,0.16807 -0.3728,-0.0154 -0.4486,-0.0912 -0.1933,-0.19333 z m 129.34,-0.58141 c 0.4133,-0.44 0.8235,-0.8 0.9115,-0.8 0.088,0 -0.1782,0.36 -0.5915,0.8 -0.4134,0.44 -0.8236,0.8 -0.9116,0.8 -0.088,0 0.1782,-0.36 0.5916,-0.8 z m 2.56,-2.84081 c 0,-0.0665 0.252,-0.31845 0.56,-0.56 0.5075,-0.39804 0.5188,-0.38672 0.1208,0.12081 -0.4181,0.53304 -0.6808,0.70256 -0.6808,0.43919 z m -42.88,-6.4 c 0,-0.0665 0.252,-0.31845 0.56,-0.56 0.5075,-0.39804 0.5188,-0.38672 0.1208,0.12081 -0.4181,0.53304 -0.6808,0.70256 -0.6808,0.43919 z m 1.92,-1.6 c 0,-0.0665 0.252,-0.31845 0.56,-0.56 0.5075,-0.39804 0.5188,-0.38672 0.1208,0.12081 -0.4181,0.53304 -0.6808,0.70256 -0.6808,0.43919 z m 244.7399,-1.37778 c 0.231,-0.0924 0.507,-0.0811 0.6134,0.0253 0.1063,0.10633 -0.083,0.18197 -0.42,0.16807 -0.3728,-0.0154 -0.4486,-0.0912 -0.1934,-0.19333 z m -241.5399,-1.54141 c 0.4133,-0.44 0.8235,-0.8 0.9115,-0.8 0.088,0 -0.1782,0.36 -0.5915,0.8 -0.4134,0.44 -0.8236,0.8 -0.9116,0.8 -0.088,0 0.1782,-0.36 0.5916,-0.8 z m 246.0199,0.58141 c 0.231,-0.0924 0.507,-0.0811 0.6134,0.0253 0.1063,0.10633 -0.083,0.18197 -0.42,0.16807 -0.3728,-0.0154 -0.4486,-0.0912 -0.1934,-0.19333 z m 1.6,-0.32 c 0.231,-0.0924 0.507,-0.0811 0.6134,0.0253 0.1063,0.10633 -0.083,0.18197 -0.42,0.16807 -0.3728,-0.0154 -0.4486,-0.0912 -0.1934,-0.19333 z m 1.6,-0.32 c 0.231,-0.0924 0.507,-0.0811 0.6134,0.0253 0.1063,0.10633 -0.083,0.18197 -0.42,0.16807 -0.3728,-0.0154 -0.4486,-0.0912 -0.1934,-0.19333 z m 1.6,-0.32 c 0.231,-0.0924 0.507,-0.0811 0.6134,0.0253 0.1063,0.10633 -0.083,0.18197 -0.42,0.16807 -0.3728,-0.0154 -0.4486,-0.0912 -0.1934,-0.19333 z m 3.52,-0.64 c 0.231,-0.0924 0.507,-0.0811 0.6134,0.0253 0.1063,0.10633 -0.083,0.18197 -0.42,0.16807 -0.3728,-0.0154 -0.4486,-0.0912 -0.1934,-0.19333 z m 1.92,-0.32 c 0.231,-0.0924 0.507,-0.0811 0.6134,0.0253 0.1063,0.10633 -0.083,0.18197 -0.42,0.16807 -0.3728,-0.0154 -0.4486,-0.0912 -0.1934,-0.19333 z m 1.92,-0.32 c 0.231,-0.0924 0.507,-0.0811 0.6134,0.0253 0.1063,0.10633 -0.083,0.18197 -0.42,0.16807 -0.3728,-0.0154 -0.4486,-0.0912 -0.1934,-0.19333 z m 1.92,-0.32 c 0.231,-0.0924 0.507,-0.0811 0.6134,0.0253 0.1063,0.10633 -0.083,0.18197 -0.42,0.16807 -0.3728,-0.0153 -0.4486,-0.0912 -0.1934,-0.19333 z m 1.9,-0.31334 c 0.22,-0.0888 0.58,-0.0888 0.8,0 0.22,0.0888 0.04,0.16141 -0.4,0.16141 -0.44,0 -0.62,-0.0726 -0.4,-0.16141 z m 2.24,-0.32 c 0.22,-0.0888 0.58,-0.0888 0.8,0 0.22,0.0888 0.04,0.16141 -0.4,0.16141 -0.44,0 -0.62,-0.0726 -0.4,-0.16141 z m 2.56,-0.32 c 0.22,-0.0888 0.58,-0.0888 0.8,0 0.22,0.0888 0.04,0.16141 -0.4,0.16141 -0.44,0 -0.62,-0.0726 -0.4,-0.16141 z m -260.8799,-2.66807 c 1.3997,-1.408 2.6169,-2.56 2.7049,-2.56 0.088,0 -0.9852,1.152 -2.3849,2.56 -1.3998,1.408 -2.617,2.56 -2.705,2.56 -0.088,0 0.9852,-1.152 2.385,-2.56 z m 263.286,2.33825 c 0.3114,-0.0811 0.7434,-0.0758 0.96,0.0118 0.2167,0.0877 -0.038,0.15404 -0.5661,0.14752 -0.528,-0.007 -0.7052,-0.0782 -0.3939,-0.15937 z m 2.7139,-0.31018 c 0.22,-0.0888 0.58,-0.0888 0.8,0 0.22,0.0888 0.04,0.16141 -0.4,0.16141 -0.44,0 -0.62,-0.0726 -0.4,-0.16141 z m 3.0461,-0.32982 c 0.3114,-0.0811 0.7434,-0.0758 0.96,0.0119 0.2167,0.0877 -0.038,0.15404 -0.5661,0.14752 -0.528,-0.007 -0.7052,-0.0782 -0.3939,-0.15937 z m 3.52,-0.32 c 0.3114,-0.0811 0.7434,-0.0758 0.96,0.0118 0.2167,0.0877 -0.038,0.15404 -0.5661,0.14752 -0.528,-0.007 -0.7052,-0.0782 -0.3939,-0.15937 z m 3.6777,-0.32457 c 0.398,-0.0765 0.974,-0.0736 1.28,0.006 0.3059,0.0801 -0.02,0.14272 -0.7238,0.13916 -0.704,-0.004 -0.9543,-0.0691 -0.5562,-0.14562 z m 4.9606,-0.3233 c 0.4865,-0.0736 1.2065,-0.0716 1.6,0.004 0.3936,0.076 0,0.13613 -0.8844,0.13373 -0.88,-0.002 -1.202,-0.0646 -0.7156,-0.1381 z m 7.2064,-0.32667 c 0.9299,-0.0648 2.3699,-0.0642 3.2,0.002 0.8301,0.0657 0.069,0.11873 -1.6908,0.1179 -1.76,-8.3e-4 -2.4391,-0.0546 -1.5092,-0.11942 z m -282.9707,-6.16371 c 0.3185,-0.352 0.6511,-0.64 0.7391,-0.64 0.088,0 -0.1006,0.288 -0.4191,0.64 -0.3186,0.352 -0.6512,0.64 -0.7392,0.64 -0.088,0 0.1006,-0.288 0.4192,-0.64 z m 2.08,-2.36081 c 0,-0.0665 0.252,-0.31845 0.56,-0.56 0.5075,-0.39804 0.5188,-0.38672 0.1208,0.12081 -0.4181,0.53304 -0.6808,0.70256 -0.6808,0.43919 z m -34.24,-1.92 c 0,-0.0664 0.252,-0.31845 0.56,-0.56 0.5075,-0.39804 0.5188,-0.38672 0.1208,0.12081 -0.4181,0.53304 -0.6808,0.70256 -0.6808,0.43919 z m 2.72,-2.43919 c 0.3185,-0.352 0.6511,-0.64 0.7391,-0.64 0.088,0 -0.1006,0.288 -0.4191,0.64 -0.3186,0.352 -0.6512,0.64 -0.7392,0.64 -0.088,0 0.1006,-0.288 0.4192,-0.64 z m 5.9142,-5.52 c 3.1156,-3.19514 3.5258,-3.58539 3.5258,-3.35428 0,0.0471 -1.548,1.59515 -3.44,3.44 l -3.44,3.35428 z m 5.6058,-6 c 0.3185,-0.352 0.6511,-0.64 0.7391,-0.64 0.088,0 -0.1006,0.288 -0.4191,0.64 -0.3186,0.352 -0.6512,0.64 -0.7392,0.64 -0.088,0 0.1006,-0.288 0.4192,-0.64 z m 179.1899,-48.64 c 0,-10.296 0.04,-14.508 0.09,-9.36 0.049,5.148 0.049,13.572 0,18.72 -0.05,5.148 -0.09,0.936 -0.09,-9.36 z m -28.2847,-11.70666 c 0.015,-0.37279 0.091,-0.44861 0.1933,-0.19334 0.092,0.231 0.081,0.507 -0.025,0.61334 -0.1063,0.10633 -0.182,-0.0827 -0.1681,-0.42 z m -34.24,-2.88 c 0.015,-0.37279 0.091,-0.44861 0.1933,-0.19334 0.093,0.231 0.081,0.507 -0.025,0.61334 -0.1063,0.10633 -0.182,-0.0827 -0.1681,-0.42 z m 0.32,-3.2 c 0.015,-0.37279 0.091,-0.44861 0.1933,-0.19334 0.092,0.231 0.081,0.507 -0.025,0.61334 -0.1063,0.10633 -0.182,-0.0827 -0.1681,-0.42 z m 34.56,-1.28 c 0.015,-0.37279 0.091,-0.44861 0.1933,-0.19334 0.092,0.231 0.081,0.507 -0.025,0.61334 -0.1063,0.10633 -0.182,-0.0827 -0.1681,-0.42 z m -34.24,-2.56 c 0.015,-0.37279 0.091,-0.44861 0.1933,-0.19334 0.092,0.231 0.081,0.507 -0.025,0.61334 -0.1063,0.10633 -0.182,-0.0827 -0.1681,-0.42 z m -25.6,-0.32 c 0.015,-0.37279 0.091,-0.44861 0.1934,-0.19334 0.092,0.231 0.081,0.507 -0.025,0.61334 -0.1063,0.10633 -0.182,-0.0827 -0.1681,-0.42 z m 60.1971,-2.21334 c 0.01,-0.528 0.078,-0.70526 0.1594,-0.39391 0.081,0.31135 0.076,0.74335 -0.012,0.96 -0.088,0.21665 -0.1541,-0.0381 -0.1476,-0.56609 z m -94.4371,-0.0267 c 0.015,-0.37279 0.091,-0.44861 0.1934,-0.19334 0.092,0.231 0.081,0.507 -0.025,0.61334 -0.1063,0.10633 -0.182,-0.0827 -0.1681,-0.42 z m -25.6,-0.32 c 0.015,-0.37279 0.091,-0.44861 0.1934,-0.19334 0.092,0.231 0.081,0.507 -0.025,0.61334 -0.1063,0.10633 -0.182,-0.0827 -0.1681,-0.42 z m 60.1971,-1.89334 c 0.01,-0.528 0.078,-0.70526 0.1594,-0.39391 0.081,0.31135 0.076,0.74335 -0.012,0.96 -0.088,0.21665 -0.1541,-0.0381 -0.1476,-0.56609 z m 25.6,-0.64 c 0.01,-0.528 0.078,-0.70526 0.1594,-0.39391 0.081,0.31135 0.076,0.74335 -0.012,0.96 -0.088,0.21665 -0.1541,-0.0381 -0.1476,-0.56609 z m -85.4518,-1.44 c 0,-0.44 0.073,-0.62 0.1614,-0.4 0.089,0.22 0.089,0.58 0,0.8 -0.089,0.22 -0.1614,0.04 -0.1614,-0.4 z m 25.6,-0.32 c 0,-0.44 0.073,-0.62 0.1614,-0.4 0.089,0.22 0.089,0.58 0,0.8 -0.089,0.22 -0.1614,0.04 -0.1614,-0.4 z m 94.4648,-5.76 c 0,-1.672 0.054,-2.356 0.1199,-1.52 0.066,0.836 0.066,2.204 0,3.04 -0.066,0.836 -0.1199,0.152 -0.1199,-1.52 z m -59.8529,-0.96 c 0,-1.144 0.058,-1.612 0.129,-1.04 0.071,0.572 0.071,1.508 0,2.08 -0.071,0.572 -0.129,0.104 -0.129,-1.04 z m -59.8617,-0.8 c 0,-0.704 0.069,-0.95432 0.1456,-0.55627 0.077,0.39806 0.074,0.97406 -0.01,1.28 -0.08,0.30595 -0.1427,-0.0197 -0.1391,-0.72373 z"
         id="path35" /><path
         style="fill:#63adde"
         d="m 1803.8577,-480.80913 c 3e-4,-3.696 0.047,-5.16418 0.1035,-3.26261 0.057,1.90156 0.057,4.92556 -5e-4,6.72 -0.057,1.79443 -0.1033,0.23861 -0.103,-3.45739 z m 27.2246,-54.90946 c 0,-26.4718 0.038,-42.90041 0.084,-36.50803 l 0.084,11.62251 2.5925,-3.62251 c 7.3704,-10.29864 16.8388,-20.70154 25.8795,-28.43365 27.3214,-23.36706 61.5828,-36.75069 97.1999,-37.9695 l 5.84,-0.19984 v 12.48674 12.48674 l -1.4846,0.2035 c -0.8166,0.11192 -2.5806,0.20362 -3.92,0.20376 -1.3395,1.5e-4 -4.0194,0.14433 -5.9554,0.3204 -26.318,2.39354 -50.9581,12.27128 -71.5199,28.671 -5.5567,4.43186 -16.1844,15.06072 -20.6061,20.60834 -7.4885,9.39527 -14.4561,21.05098 -18.6379,31.17833 -4.4524,10.78259 -7.8739,23.40886 -9.1463,33.75221 -0.3459,2.8118 -0.4097,-4.16606 -0.4097,-44.8 z m -26.9051,2.26946 c 0,-3.608 0.047,-5.084 0.1037,-3.28 0.057,1.804 0.057,4.756 0,6.56 -0.057,1.804 -0.1037,0.328 -0.1037,-3.28 z m 0.3205,-52.64 c 3e-4,-3.69601 0.047,-5.16418 0.1035,-3.26261 0.057,1.90156 0.056,4.92556 -5e-4,6.72 -0.057,1.79443 -0.1033,0.23861 -0.103,-3.45739 z m 26.7446,-43.47445 v -16.50036 l 2.32,-1.71432 c 28.0967,-20.76153 62.0498,-34.67575 96.9115,-39.71499 9.2758,-1.34082 23.0052,-2.43322 30.6084,-2.4354 l 1.68,-4.9e-4 v 12.64 12.64 l -3.6,0.005 c -6.9134,0.01 -17.9402,0.95956 -26.16,2.2539 -37.38,5.88612 -71.1191,21.92508 -99.4867,47.29411 l -2.2732,2.03295 z m -26.4246,-9.00556 c 3e-4,-3.696 0.047,-5.16417 0.1035,-3.2626 0.057,1.90156 0.056,4.92556 -5e-4,6.72 -0.057,1.79443 -0.1033,0.2386 -0.103,-3.4574 z m 0.32,-52.48 c 3e-4,-3.696 0.047,-5.16417 0.1035,-3.2626 0.057,1.90156 0.057,4.92556 -5e-4,6.72 -0.057,1.79443 -0.1033,0.2386 -0.103,-3.4574 z m 26.2646,-18.83679 c 0,-11.63976 0.039,-18.2535 0.086,-14.69719 l 0.086,6.46601 6.9535,-3.43802 c 31.836,-15.74058 65.0057,-25.02024 100.2335,-28.04163 4.4417,-0.38094 19.6704,-1.12039 23.28,-1.13038 l 0.72,-0.002 v 12.5896 12.58959 l -7.12,0.2196 c -33.4361,1.03126 -65.2362,8.1926 -95.5161,21.51011 -8.088,3.55716 -24.356,12.02493 -27.9238,14.53476 l -0.8,0.56277 z m -25.9529,-31.88321 c 0,-2.552 0.05,-3.596 0.1105,-2.32 0.061,1.276 0.061,3.364 0,4.64 -0.061,1.276 -0.1105,0.232 -0.1105,-2.32 z m 26.2544,-109.76 c 0,-5.192 0.044,-7.316 0.098,-4.72 0.054,2.596 0.054,6.844 0,9.44 -0.054,2.596 -0.098,0.472 -0.098,-4.72 z"
         id="path34" /><path
         style="fill:#7a939e"
         d="m 1563.646,-585.51546 c 0.398,-0.0765 0.974,-0.0736 1.28,0.006 0.3059,0.0801 -0.02,0.14272 -0.7237,0.13917 -0.704,-0.004 -0.9544,-0.0691 -0.5563,-0.14563 z m 6.7163,-0.3056 c 0.22,-0.0888 0.58,-0.0888 0.8,0 0.22,0.0888 0.04,0.1614 -0.4,0.1614 -0.44,0 -0.62,-0.0726 -0.4,-0.1614 z m 4.82,-0.32667 c 0.231,-0.0924 0.507,-0.0811 0.6133,0.0253 0.1063,0.10634 -0.083,0.18197 -0.42,0.16807 -0.3728,-0.0154 -0.4486,-0.0912 -0.1933,-0.19333 z m 3.84,-0.32 c 0.231,-0.0924 0.507,-0.0811 0.6133,0.0253 0.1063,0.10633 -0.083,0.18197 -0.42,0.16807 -0.3728,-0.0154 -0.4486,-0.0912 -0.1933,-0.19333 z m 3.2,-0.32 c 0.231,-0.0924 0.507,-0.0811 0.6133,0.0253 0.1063,0.10633 -0.083,0.18197 -0.42,0.16807 -0.3728,-0.0154 -0.4486,-0.0912 -0.1933,-0.19333 z m -23.22,-24.01061 c 0.484,-0.0733 1.276,-0.0733 1.76,0 0.484,0.0733 0.088,0.13331 -0.88,0.13331 -0.968,0 -1.364,-0.06 -0.88,-0.13331 z m 8.646,-0.31255 c 0.3114,-0.0811 0.7434,-0.0758 0.96,0.0119 0.2167,0.0876 -0.038,0.15403 -0.566,0.14751 -0.528,-0.007 -0.7053,-0.0782 -0.394,-0.15937 z m 4.974,-0.31684 c 0.231,-0.0924 0.507,-0.0811 0.6133,0.0253 0.1063,0.10633 -0.083,0.18197 -0.42,0.16807 -0.3728,-0.0153 -0.4486,-0.0912 -0.1933,-0.19333 z m 3.84,-0.32 c 0.231,-0.0924 0.507,-0.0811 0.6133,0.0253 0.1063,0.10633 -0.083,0.18197 -0.42,0.16807 -0.3728,-0.0154 -0.4486,-0.0912 -0.1933,-0.19333 z m -21.62,-32.65452 c 0.66,-0.069 1.74,-0.069 2.4,0 0.66,0.069 0.12,0.12553 -1.2,0.12553 -1.32,0 -1.86,-0.0565 -1.2,-0.12553 z m 10.4,-0.29882 c 0.22,-0.0888 0.58,-0.0888 0.8,0 0.22,0.0888 0.04,0.16141 -0.4,0.16141 -0.44,0 -0.62,-0.0726 -0.4,-0.16141 z m 5.14,-0.32666 c 0.231,-0.0924 0.507,-0.0811 0.6133,0.0253 0.1063,0.10633 -0.083,0.18197 -0.42,0.16807 -0.3728,-0.0154 -0.4486,-0.0912 -0.1933,-0.19333 z m 172.7,-15.14141 c 0.3185,-0.352 0.6511,-0.64 0.7391,-0.64 0.088,0 -0.1006,0.288 -0.4191,0.64 -0.3186,0.352 -0.6512,0.64 -0.7392,0.64 -0.088,0 0.1006,-0.288 0.4192,-0.64 z m -180.88,-9.82058 c 0.308,-0.0805 0.812,-0.0805 1.12,0 0.308,0.0805 0.056,0.14634 -0.56,0.14634 -0.616,0 -0.868,-0.0658 -0.56,-0.14634 z m 5.62,-0.31801 c 0.231,-0.0924 0.507,-0.0811 0.6133,0.0253 0.1063,0.10633 -0.083,0.18197 -0.42,0.16807 -0.3728,-0.0153 -0.4486,-0.0912 -0.1933,-0.19333 z m 3.84,-0.32 c 0.231,-0.0924 0.507,-0.0811 0.6133,0.0253 0.1063,0.10633 -0.083,0.18197 -0.42,0.16807 -0.3728,-0.0154 -0.4486,-0.0912 -0.1933,-0.19333 z m 149.82,-4.06222 c 0,-0.0665 0.252,-0.31845 0.56,-0.56 0.5075,-0.39804 0.5188,-0.38672 0.1208,0.12081 -0.4181,0.53304 -0.6808,0.70256 -0.6808,0.43919 z m 4.32,-4.03919 c 0.3185,-0.352 0.6511,-0.64 0.7391,-0.64 0.088,0 -0.1006,0.288 -0.4191,0.64 -0.3186,0.352 -0.6512,0.64 -0.7392,0.64 -0.088,0 0.1006,-0.288 0.4192,-0.64 z m 11.52,-11.52 c 0.3185,-0.352 0.6511,-0.64 0.7391,-0.64 0.088,0 -0.1006,0.288 -0.4191,0.64 -0.3186,0.352 -0.6512,0.64 -0.7392,0.64 -0.088,0 0.1006,-0.288 0.4192,-0.64 z m -38.88,-9.72081 c 0,-0.0664 0.252,-0.31845 0.56,-0.56 0.5075,-0.39804 0.5188,-0.38672 0.1208,0.12081 -0.4181,0.53304 -0.6808,0.70256 -0.6808,0.43919 z m 5.6,-5.31919 c 0.6874,-0.704 1.3218,-1.28 1.4098,-1.28 0.088,0 -0.4024,0.576 -1.0898,1.28 -0.6875,0.704 -1.3219,1.28 -1.4099,1.28 -0.088,0 0.4024,-0.576 1.0899,-1.28 z m -147.7543,0.0881 c 0.5751,-0.0712 1.4391,-0.0697 1.92,0.003 0.4808,0.073 0.01,0.13128 -1.0457,0.12949 -1.056,-0.002 -1.4495,-0.0615 -0.8743,-0.13276 z m 7.9943,-0.30002 c 0.22,-0.0888 0.58,-0.0888 0.8,0 0.22,0.0888 0.04,0.16141 -0.4,0.16141 -0.44,0 -0.62,-0.0726 -0.4,-0.16141 z m 4.18,-0.32666 c 0.231,-0.0924 0.507,-0.0811 0.6133,0.0253 0.1063,0.10633 -0.083,0.18197 -0.42,0.16807 -0.3728,-0.0154 -0.4486,-0.0912 -0.1933,-0.19333 z m 140.86,-4.74141 c 0.597,-0.616 1.1575,-1.12 1.2455,-1.12 0.088,0 -0.3285,0.504 -0.9255,1.12 -0.5971,0.616 -1.1576,1.12 -1.2456,1.12 -0.088,0 0.3285,-0.504 0.9256,-1.12 z m 4.48,-4.76081 c 0,-0.0664 0.252,-0.31845 0.56,-0.56 0.5075,-0.39804 0.5188,-0.38672 0.1208,0.12081 -0.4181,0.53304 -0.6808,0.70256 -0.6808,0.43919 z m -26.8934,-8.59919 c 0.7846,-0.836 1.4686,-1.52 1.52,-1.52 0.2403,0 -0.014,0.28731 -1.4266,1.61338 l -1.52,1.42662 z m 3.6934,-3.76 c 0.6874,-0.704 1.3218,-1.28 1.4098,-1.28 0.088,0 -0.4024,0.576 -1.0898,1.28 -0.6875,0.704 -1.3219,1.28 -1.4099,1.28 -0.088,0 0.4024,-0.576 1.0899,-1.28 z m -129.034,-3.10175 c 0.3114,-0.0811 0.7434,-0.0758 0.96,0.0118 0.2167,0.0877 -0.038,0.15404 -0.566,0.14752 -0.528,-0.007 -0.7053,-0.0782 -0.394,-0.15937 z m 4.334,-0.31684 c 0.231,-0.0924 0.507,-0.0811 0.6133,0.0253 0.1063,0.10633 -0.083,0.18197 -0.42,0.16807 -0.3728,-0.0154 -0.4486,-0.0912 -0.1933,-0.19333 z m 129.34,-1.50222 c 0,-0.0664 0.252,-0.31845 0.56,-0.56 0.5075,-0.39804 0.5188,-0.38672 0.1208,0.12081 -0.4181,0.53304 -0.6808,0.70256 -0.6808,0.43919 z m -35.2,-13.76 c 0,-0.0665 0.252,-0.31845 0.56,-0.56 0.5075,-0.39804 0.5188,-0.38672 0.1208,0.12081 -0.4181,0.53304 -0.6808,0.70256 -0.6808,0.43919 z m 8.96,-8.96 c 0,-0.0664 0.252,-0.31845 0.56,-0.56 0.5075,-0.39804 0.5188,-0.38672 0.1208,0.12081 -0.4181,0.53304 -0.6808,0.70256 -0.6808,0.43919 z m -26.24,-9.6 c 0,-0.0665 0.252,-0.31845 0.56,-0.56 0.5075,-0.39804 0.5188,-0.38672 0.1208,0.12081 -0.4181,0.53304 -0.6808,0.70256 -0.6808,0.43919 z m 7.68,-7.68 c 0,-0.0664 0.252,-0.31845 0.56,-0.56 0.5075,-0.39804 0.5188,-0.38672 0.1208,0.12081 -0.4181,0.53304 -0.6808,0.70256 -0.6808,0.43919 z m 118.4252,-63.42585 c 0.015,-0.37279 0.091,-0.44861 0.1933,-0.19334 0.092,0.231 0.081,0.507 -0.025,0.61334 -0.1063,0.10633 -0.182,-0.0827 -0.1681,-0.42 z m 34.88,-1.92 c 0.015,-0.37279 0.091,-0.44861 0.1933,-0.19334 0.092,0.231 0.081,0.507 -0.025,0.61334 -0.1063,0.10633 -0.182,-0.0827 -0.1681,-0.42 z m -59.84,-3.2 c 0.015,-0.37279 0.091,-0.44861 0.1934,-0.19334 0.092,0.231 0.081,0.507 -0.025,0.61334 -0.1063,0.10633 -0.182,-0.0827 -0.1681,-0.42 z m 60.16,-0.64 c 0.015,-0.37279 0.091,-0.44861 0.1933,-0.19334 0.092,0.231 0.081,0.507 -0.025,0.61334 -0.1063,0.10633 -0.182,-0.0827 -0.1681,-0.42 z m -34.56,-0.64 c 0.015,-0.37279 0.091,-0.44861 0.1933,-0.19334 0.092,0.231 0.081,0.507 -0.025,0.61334 -0.1063,0.10633 -0.182,-0.0827 -0.1681,-0.42 z m -25.28,-2.24 c 0.015,-0.37279 0.091,-0.44861 0.1934,-0.19334 0.092,0.231 0.081,0.507 -0.025,0.61334 -0.1063,0.10633 -0.182,-0.0827 -0.1681,-0.42 z m -34.56,-0.64 c 0.015,-0.37279 0.091,-0.44861 0.1934,-0.19334 0.092,0.231 0.081,0.507 -0.025,0.61334 -0.1063,0.10633 -0.182,-0.0827 -0.1681,-0.42 z m 60.1853,-1.09334 c 0,-0.44 0.073,-0.62 0.1614,-0.4 0.089,0.22 0.089,0.58 0,0.8 -0.089,0.22 -0.1614,0.04 -0.1614,-0.4 z m 34.56,0 c 0,-0.44 0.073,-0.62 0.1614,-0.4 0.089,0.22 0.089,0.58 0,0.8 -0.089,0.22 -0.1614,0.04 -0.1614,-0.4 z m -59.84,-2.24 c 0,-0.44 0.073,-0.62 0.1614,-0.4 0.089,0.22 0.089,0.58 0,0.8 -0.089,0.22 -0.1614,0.04 -0.1614,-0.4 z m -34.5853,-0.18666 c 0.015,-0.37279 0.091,-0.44861 0.1934,-0.19334 0.092,0.231 0.081,0.507 -0.025,0.61334 -0.1063,0.10633 -0.182,-0.0827 -0.1681,-0.42 z m -25.28,-2.24 c 0.015,-0.37279 0.091,-0.44861 0.1934,-0.19334 0.092,0.231 0.081,0.507 -0.025,0.61334 -0.1063,0.10633 -0.182,-0.0827 -0.1681,-0.42 z m 85.489,-1.41334 c 0,-0.616 0.066,-0.868 0.1463,-0.56 0.081,0.308 0.081,0.812 0,1.12 -0.08,0.308 -0.1463,0.056 -0.1463,-0.56 z m 34.5773,-1.44 c 0,-0.88 0.064,-1.20202 0.1381,-0.7156 0.073,0.48642 0.072,1.20642 0,1.6 -0.076,0.39358 -0.1361,-0.004 -0.1337,-0.8844 z m -94.4173,-0.16 c 0,-0.616 0.066,-0.868 0.1463,-0.56 0.081,0.308 0.081,0.812 0,1.12 -0.08,0.308 -0.1463,0.056 -0.1463,-0.56 z m 34.5773,-1.76 c 0,-0.88 0.064,-1.20202 0.1381,-0.7156 0.074,0.48642 0.072,1.20642 0,1.6 -0.076,0.39358 -0.1361,-0.004 -0.1337,-0.8844 z m -59.84,-1.6 c 0,-0.88 0.064,-1.20202 0.1381,-0.7156 0.073,0.48642 0.072,1.20642 0,1.6 -0.076,0.39358 -0.1361,-0.004 -0.1337,-0.8844 z m 66.2071,-3.91953 c 3.4643,-0.0516 9.2243,-0.0517 12.8,-1.5e-4 3.5758,0.0515 0.7414,0.0938 -6.2986,0.0938 -7.04,9e-5 -9.9656,-0.0421 -6.5014,-0.0937 z"
         id="path33" /><path
         style="fill:#3e89bb"
         d="m 1684.1995,-544.16913 c 0,-40.48 0.037,-56.99247 0.083,-36.69436 0.045,20.2981 0.045,53.4181 0,73.6 -0.046,20.1819 -0.083,3.57436 -0.083,-36.90564 z m 26.8803,-8.32 c 0,-45.05601 0.037,-63.44042 0.082,-40.85426 0.045,22.58616 0.045,59.45016 0,81.92 -0.045,22.46984 -0.082,3.99026 -0.082,-41.06574 z m 32.9603,-13.28 c 0,-52.36001 0.037,-73.78001 0.082,-47.60001 0.045,26.18 0.045,69.02001 0,95.20001 -0.045,26.18 -0.082,4.76 -0.082,-47.6 z m 26.8803,-14.72 c 0,-60.45601 0.037,-85.18801 0.082,-54.96001 0.045,30.228 0.045,79.69201 0,109.92001 -0.045,30.228 -0.082,5.496 -0.082,-54.96 z m 32.9316,109.31661 c -0.094,-0.24387 -0.1142,-1.07187 -0.046,-1.84 l 0.1242,-1.39661 0.056,1.65333 c 0.033,0.97668 0.2197,1.71939 0.456,1.81474 0.3133,0.12642 0.3111,0.16688 -0.01,0.18666 -0.2255,0.0139 -0.4866,-0.17426 -0.5802,-0.41812 z m 26.831,-0.67661 c 0,-0.704 0.069,-0.95433 0.1456,-0.55627 0.076,0.39805 0.074,0.97405 -0.01,1.28 -0.08,0.30595 -0.1427,-0.0197 -0.1391,-0.72373 z m 0.3917,-63.2 c 0,-13.992 0.039,-19.716 0.087,-12.72 0.048,6.996 0.048,18.444 0,25.44 -0.048,6.996 -0.087,1.272 -0.087,-12.72 z m -26.897,14.56 c 3e-4,-3.696 0.047,-5.16418 0.1035,-3.26261 0.057,1.90156 0.057,4.92556 -5e-4,6.72 -0.057,1.79443 -0.1033,0.23861 -0.103,-3.45739 z m 0.32,-52.48 c 3e-4,-3.696 0.047,-5.16418 0.1035,-3.26261 0.057,1.90156 0.056,4.92556 -5e-4,6.72 -0.057,1.79443 -0.1033,0.23861 -0.103,-3.45739 z m 26.572,-25.28001 c 10e-5,-8.096 0.042,-11.36212 0.092,-7.25805 0.051,4.10407 0.051,10.72807 -1e-4,14.72 -0.051,3.99193 -0.092,0.63405 -0.092,-7.46195 z m -26.252,-27.2 c 3e-4,-3.696 0.047,-5.16417 0.1035,-3.2626 0.057,1.90156 0.056,4.92556 -5e-4,6.72 -0.057,1.79443 -0.1033,0.2386 -0.103,-3.4574 z m 0.32,-52.48 c 3e-4,-3.696 0.047,-5.16417 0.1035,-3.2626 0.057,1.90156 0.057,4.92556 -5e-4,6.72 -0.057,1.79443 -0.1033,0.2386 -0.103,-3.4574 z m 26.252,-25.6 c 10e-5,-8.096 0.042,-11.36212 0.092,-7.25805 0.051,4.10407 0.051,10.72807 -10e-5,14.72 -0.051,3.99193 -0.092,0.63405 -0.092,-7.46195 z m -25.932,-27.2 c 3e-4,-3.696 0.047,-5.16417 0.1035,-3.2626 0.057,1.90156 0.056,4.92556 -5e-4,6.72 -0.057,1.79443 -0.1033,0.2386 -0.103,-3.4574 z m 25.9345,-19.04 c 0,-10.296 0.04,-14.508 0.09,-9.36 0.049,5.148 0.049,13.572 0,18.72 -0.049,5.148 -0.09,0.936 -0.09,-9.36 z m -0.5299,-111.25859 c 0.231,-0.0924 0.507,-0.0811 0.6133,0.0253 0.1063,0.10633 -0.083,0.18196 -0.42,0.16807 -0.3728,-0.0154 -0.4486,-0.0912 -0.1933,-0.19333 z"
         id="path32" /><path
         style="fill:#0063a6"
         d="m 1684.3623,-544.28549 v -73.55635 l 3.92,-2.16801 c 6.8422,-3.78416 11.224,-6.48671 21.92,-13.51948 l 0.72,-0.47341 v 81.6368 81.63681 h -13.28 -13.28 z m 59.84,-21.53226 v -95.08862 l 6.8003,-6.91138 c 6.8848,-6.99728 11.7783,-12.40095 16.9273,-18.69206 l 2.8324,-3.46067 v 109.62067 109.62068 h -13.28 -13.28 z m 60.189,94.79333 c -0.3877,-0.24545 -0.3326,-19.59853 0.3934,-138.01638 l 0.8444,-137.73091 2.255,-5.24165 c 13.812,-32.10575 21.4076,-66.518 22.2916,-100.9928 0.2009,-7.8334 0.2223,-8.03279 0.8469,-7.86947 0.6395,0.16724 0.6403,0.31743 0.4303,77.63703 -0.1157,42.60821 -0.2872,129.30946 -0.3811,192.66946 -0.094,63.36001 -0.2503,116.24401 -0.3475,117.52001 l -0.1767,2.32 -12.8527,-0.005 c -7.0689,-0.003 -13.0556,-0.13337 -13.3036,-0.29039 z"
         id="path31" /><path
         style="fill:#2c5569"
         d="m 1560.9267,-585.51876 c 0.4864,-0.0735 1.2064,-0.0716 1.6,0.004 0.3935,0.076 0,0.13613 -0.8844,0.13373 -0.88,-0.002 -1.2021,-0.0645 -0.7156,-0.1381 z m 8.0016,-0.31213 c 0.3114,-0.0811 0.7434,-0.0758 0.96,0.0119 0.2167,0.0877 -0.038,0.15403 -0.566,0.14751 -0.528,-0.007 -0.7053,-0.0782 -0.394,-0.15937 z m 4.954,-0.31017 c 0.22,-0.0888 0.58,-0.0888 0.8,0 0.22,0.0888 0.04,0.1614 -0.4,0.1614 -0.44,0 -0.62,-0.0726 -0.4,-0.1614 z m 4.18,-0.32667 c 0.231,-0.0924 0.507,-0.0811 0.6133,0.0253 0.1063,0.10633 -0.083,0.18197 -0.42,0.16807 -0.3728,-0.0154 -0.4486,-0.0912 -0.1933,-0.19333 z m -16.0163,-24.32773 c 0.398,-0.0765 0.974,-0.0736 1.28,0.006 0.3059,0.0801 -0.02,0.14272 -0.7237,0.13917 -0.704,-0.004 -0.9544,-0.0691 -0.5563,-0.14563 z m 7.0363,-0.30561 c 0.22,-0.0888 0.58,-0.0888 0.8,0 0.22,0.0888 0.04,0.16141 -0.4,0.16141 -0.44,0 -0.62,-0.0726 -0.4,-0.16141 z m 4.48,-0.32 c 0.22,-0.0888 0.58,-0.0888 0.8,0 0.22,0.0888 0.04,0.16141 -0.4,0.16141 -0.44,0 -0.62,-0.0726 -0.4,-0.16141 z m 3.86,-0.32666 c 0.231,-0.0924 0.507,-0.0811 0.6133,0.0253 0.1063,0.10633 -0.083,0.18197 -0.42,0.16807 -0.3728,-0.0154 -0.4486,-0.0912 -0.1933,-0.19333 z m 3.2,-0.32 c 0.231,-0.0924 0.507,-0.0811 0.6133,0.0253 0.1063,0.10633 -0.083,0.18197 -0.42,0.16807 -0.3728,-0.0154 -0.4486,-0.0912 -0.1933,-0.19333 z m -17.14,-32.64199 c 0.308,-0.0805 0.812,-0.0805 1.12,0 0.308,0.0805 0.056,0.14634 -0.56,0.14634 -0.616,0 -0.868,-0.0658 -0.56,-0.14634 z m 5.6,-0.31135 c 0.22,-0.0888 0.58,-0.0888 0.8,0 0.22,0.0888 0.04,0.16141 -0.4,0.16141 -0.44,0 -0.62,-0.0726 -0.4,-0.16141 z m 4.18,-0.32666 c 0.231,-0.0924 0.507,-0.0811 0.6133,0.0253 0.1063,0.10633 -0.083,0.18197 -0.42,0.16807 -0.3728,-0.0154 -0.4486,-0.0912 -0.1933,-0.19333 z m 3.2,-0.32 c 0.231,-0.0924 0.507,-0.0811 0.6133,0.0253 0.1063,0.10633 -0.083,0.18197 -0.42,0.16807 -0.3728,-0.0154 -0.4486,-0.0912 -0.1933,-0.19333 z m 157.5,-6.30222 c 0,-0.0664 0.252,-0.31845 0.56,-0.56 0.5075,-0.39804 0.5188,-0.38672 0.1208,0.12081 -0.4181,0.53304 -0.6808,0.70256 -0.6808,0.43919 z m 5.44,-4.8 c 0,-0.0665 0.252,-0.31845 0.56,-0.56 0.5075,-0.39804 0.5188,-0.38672 0.1208,0.12081 -0.4181,0.53304 -0.6808,0.70256 -0.6808,0.43919 z m -185.2,-12.89977 c 0.308,-0.0805 0.812,-0.0805 1.12,0 0.308,0.0805 0.056,0.14634 -0.56,0.14634 -0.616,0 -0.868,-0.0659 -0.56,-0.14634 z m 9.76,-0.31135 c 0.22,-0.0888 0.58,-0.0888 0.8,0 0.22,0.0888 0.04,0.16141 -0.4,0.16141 -0.44,0 -0.62,-0.0726 -0.4,-0.16141 z m 4.82,-0.32666 c 0.231,-0.0924 0.507,-0.0811 0.6133,0.0253 0.1063,0.10633 -0.083,0.18197 -0.42,0.16807 -0.3728,-0.0153 -0.4486,-0.0912 -0.1933,-0.19333 z m 155.74,-7.14141 c 0.3185,-0.352 0.6511,-0.64 0.7391,-0.64 0.088,0 -0.1006,0.288 -0.4191,0.64 -0.3186,0.352 -0.6512,0.64 -0.7392,0.64 -0.088,0 0.1006,-0.288 0.4192,-0.64 z m 13.6,-13.56081 c 0,-0.0665 0.252,-0.31845 0.56,-0.56 0.5075,-0.39804 0.5188,-0.38672 0.1208,0.12081 -0.4181,0.53304 -0.6808,0.70256 -0.6808,0.43919 z m 5.44,-6.08 c 0,-0.0664 0.252,-0.31845 0.56,-0.56 0.5075,-0.39804 0.5188,-0.38672 0.1208,0.12081 -0.4181,0.53304 -0.6808,0.70256 -0.6808,0.43919 z m -44.16,-3.84 c 0,-0.0665 0.252,-0.31845 0.56,-0.56 0.5075,-0.39804 0.5188,-0.38672 0.1208,0.12081 -0.4181,0.53304 -0.6808,0.70256 -0.6808,0.43919 z m -145.194,-4.26094 c 0.3114,-0.0811 0.7434,-0.0758 0.96,0.0118 0.2167,0.0877 -0.038,0.15404 -0.566,0.14752 -0.528,-0.007 -0.7053,-0.0782 -0.394,-0.15937 z m 8.794,-0.31018 c 0.22,-0.0888 0.58,-0.0888 0.8,0 0.22,0.0888 0.04,0.16141 -0.4,0.16141 -0.44,0 -0.62,-0.0726 -0.4,-0.16141 z m 4.5,-0.32666 c 0.231,-0.0924 0.507,-0.0811 0.6133,0.0253 0.1063,0.10633 -0.083,0.18197 -0.42,0.16807 -0.3728,-0.0154 -0.4486,-0.0912 -0.1933,-0.19333 z m 3.2,-0.32 c 0.231,-0.0924 0.507,-0.0811 0.6133,0.0253 0.1063,0.10633 -0.083,0.18197 -0.42,0.16807 -0.3728,-0.0154 -0.4486,-0.0912 -0.1933,-0.19333 z m 136.0466,-1.78141 c 0.7846,-0.836 1.4686,-1.52 1.52,-1.52 0.2403,0 -0.014,0.28731 -1.4266,1.61338 l -1.52,1.42662 z m 6.0934,-6.44081 c 0,-0.0665 0.252,-0.31845 0.56,-0.56 0.5075,-0.39804 0.5188,-0.38672 0.1208,0.12081 -0.4181,0.53304 -0.6808,0.70256 -0.6808,0.43919 z m 2.88,-3.2 c 0,-0.0665 0.252,-0.31845 0.56,-0.56 0.5075,-0.39804 0.5188,-0.38672 0.1208,0.12081 -0.4181,0.53304 -0.6808,0.70256 -0.6808,0.43919 z m -35.2,-0.32 c 0,-0.0665 0.252,-0.31845 0.56,-0.56 0.5075,-0.39804 0.5188,-0.38672 0.1208,0.12081 -0.4181,0.53304 -0.6808,0.70256 -0.6808,0.43919 z m 4.16,-3.87919 c 0.4133,-0.44 0.8235,-0.8 0.9115,-0.8 0.088,0 -0.1782,0.36 -0.5915,0.8 -0.4134,0.44 -0.8236,0.8 -0.9116,0.8 -0.088,0 0.1782,-0.36 0.5916,-0.8 z m 8,-8 c 0.4133,-0.44 0.8235,-0.8 0.9115,-0.8 0.088,0 -0.1782,0.36 -0.5915,0.8 -0.4134,0.44 -0.8236,0.8 -0.9116,0.8 -0.088,0 0.1782,-0.36 0.5916,-0.8 z m -138,-0.71148 c 0.572,-0.071 1.508,-0.071 2.08,0 0.572,0.071 0.104,0.12906 -1.04,0.12906 -1.144,0 -1.612,-0.0581 -1.04,-0.12906 z m 8.34,-0.30711 c 0.231,-0.0924 0.507,-0.0811 0.6133,0.0253 0.1063,0.10633 -0.083,0.18197 -0.42,0.16807 -0.3728,-0.0154 -0.4486,-0.0912 -0.1933,-0.19333 z m 94.46,-13.34222 c 0,-0.0665 0.252,-0.31845 0.56,-0.56 0.5075,-0.39804 0.5188,-0.38672 0.1208,0.12081 -0.4181,0.53304 -0.6808,0.70256 -0.6808,0.43919 z m 4.16,-3.87919 c 0.4133,-0.44 0.8235,-0.8 0.9115,-0.8 0.088,0 -0.1782,0.36 -0.5915,0.8 -0.4134,0.44 -0.8236,0.8 -0.9116,0.8 -0.088,0 0.1782,-0.36 0.5916,-0.8 z m 6.4,-6.4 c 0.4133,-0.44 0.8235,-0.8 0.9115,-0.8 0.088,0 -0.1782,0.36 -0.5915,0.8 -0.4134,0.44 -0.8236,0.8 -0.9116,0.8 -0.088,0 0.1782,-0.36 0.5916,-0.8 z m -26.24,-9.56081 c 0,-0.0664 0.252,-0.31845 0.56,-0.56 0.5075,-0.39804 0.5188,-0.38672 0.1208,0.12081 -0.4181,0.53304 -0.6808,0.70256 -0.6808,0.43919 z m 9.6,-9.6 c 0,-0.0665 0.252,-0.31845 0.56,-0.56 0.5075,-0.39804 0.5188,-0.38672 0.1208,0.12081 -0.4181,0.53304 -0.6808,0.70256 -0.6808,0.43919 z m 177.6252,-62.14585 c 0.015,-0.37279 0.091,-0.44861 0.1933,-0.19334 0.092,0.231 0.081,0.507 -0.025,0.61334 -0.1063,0.10633 -0.182,-0.0827 -0.1681,-0.42 z m -25.28,-1.28 c 0.015,-0.37279 0.091,-0.44861 0.1933,-0.19334 0.092,0.231 0.081,0.507 -0.025,0.61334 -0.1063,0.10633 -0.182,-0.0827 -0.1681,-0.42 z m 25.6,-2.56 c 0.015,-0.37279 0.091,-0.44861 0.1933,-0.19334 0.092,0.231 0.081,0.507 -0.025,0.61334 -0.1063,0.10633 -0.182,-0.0827 -0.1681,-0.42 z m -25.2547,-1.09334 c 0,-0.44 0.073,-0.62 0.1614,-0.4 0.089,0.22 0.089,0.58 0,0.8 -0.089,0.22 -0.1614,0.04 -0.1614,-0.4 z m -34.5853,-2.74666 c 0.015,-0.37279 0.091,-0.44861 0.1933,-0.19334 0.092,0.231 0.081,0.507 -0.025,0.61334 -0.1063,0.10633 -0.182,-0.0827 -0.1681,-0.42 z m -25.28,-0.32 c 0.015,-0.37279 0.091,-0.44861 0.1934,-0.19334 0.092,0.231 0.081,0.507 -0.025,0.61334 -0.1063,0.10633 -0.182,-0.0827 -0.1681,-0.42 z m 85.4653,-0.45334 c 0,-0.44 0.073,-0.62 0.1614,-0.4 0.089,0.22 0.089,0.58 0,0.8 -0.089,0.22 -0.1614,0.04 -0.1614,-0.4 z m -25.28,-0.96 c 0,-0.44 0.073,-0.62 0.1614,-0.4 0.089,0.22 0.089,0.58 0,0.8 -0.089,0.22 -0.1614,0.04 -0.1614,-0.4 z m -59.8653,-2.42666 c 0.015,-0.37279 0.091,-0.44861 0.1934,-0.19334 0.092,0.231 0.081,0.507 -0.025,0.61334 -0.1063,0.10633 -0.182,-0.0827 -0.1681,-0.42 z m 25.3053,-0.13334 c 0,-0.44 0.073,-0.62 0.1614,-0.4 0.089,0.22 0.089,0.58 0,0.8 -0.089,0.22 -0.1614,0.04 -0.1614,-0.4 z m -59.84,-2.24 c 0,-0.44 0.073,-0.62 0.1614,-0.4 0.089,0.22 0.089,0.58 0,0.8 -0.089,0.22 -0.1614,0.04 -0.1614,-0.4 z m -25.3053,-0.18666 c 0.015,-0.37279 0.091,-0.44861 0.1934,-0.19334 0.092,0.231 0.081,0.507 -0.025,0.61334 -0.1063,0.10633 -0.182,-0.0827 -0.1681,-0.42 z m 145.329,-0.45334 c 0,-0.616 0.066,-0.868 0.1463,-0.56 0.081,0.308 0.081,0.812 0,1.12 -0.081,0.308 -0.1463,0.056 -0.1463,-0.56 z m -25.28,-0.96 c 0,-0.616 0.066,-0.868 0.1463,-0.56 0.081,0.308 0.081,0.812 0,1.12 -0.081,0.308 -0.1463,0.056 -0.1463,-0.56 z m -59.84,-1.92 c 0,-0.616 0.066,-0.868 0.1463,-0.56 0.081,0.308 0.081,0.812 0,1.12 -0.081,0.308 -0.1463,0.056 -0.1463,-0.56 z m 25.2973,-1.44 c 0,-0.88 0.064,-1.20202 0.1381,-0.7156 0.074,0.48642 0.072,1.20642 0,1.6 -0.076,0.39358 -0.1361,-0.004 -0.1337,-0.8844 z m -85.1373,-0.16 c 0,-0.616 0.066,-0.868 0.1463,-0.56 0.081,0.308 0.081,0.812 0,1.12 -0.08,0.308 -0.1463,0.056 -0.1463,-0.56 z m 25.2973,-1.44 c 0,-0.88 0.064,-1.20202 0.1381,-0.7156 0.073,0.48642 0.072,1.20642 0,1.6 -0.076,0.39358 -0.1361,-0.004 -0.1337,-0.8844 z"
         id="path30" /><path
         style="fill:#002e44"
         d="m 1553.8023,-597.92914 v -12.64 l 3.92,-0.005 c 4.4157,-0.005 13.278,-0.46197 18.8,-0.96888 53.3729,-4.89967 102.4318,-25.93575 143.2,-61.40306 5.2288,-4.54897 15.6265,-14.82903 20.9209,-20.68426 21.9935,-24.32339 38.7767,-52.38741 50.0101,-83.6245 8.8495,-24.60808 14.349,-55.17344 14.349,-79.75016 v -4.1245 h 12.64 12.64 v 3.6 c 0,4.67955 -0.5142,14.30079 -1.1368,21.36 -2.5172,28.53933 -9.4271,56.06582 -20.9255,83.36 -2.1303,5.05672 -10.5664,21.9047 -13.7329,27.42618 -18.4373,32.14998 -40.8365,58.16803 -69.5774,80.81852 -18.5205,14.59582 -37.2757,25.90197 -58.7857,35.4375 -28.0879,12.45154 -57.9572,20.11845 -88.48,22.71122 -5.5249,0.46931 -18.1504,1.11339 -22,1.12232 l -1.84,0.004 z m 0,-59.01453 v -12.45453 l 2,-0.17298 c 1.1,-0.0951 4.304,-0.24586 7.12,-0.33493 25.9204,-0.81987 55.0054,-8.67065 79.2,-21.37815 61.3941,-32.24542 100.6915,-94.67376 102.9355,-163.52488 l 0.206,-6.32 h 12.6203 12.6203 l -0.2042,5.2 c -0.442,11.25419 -1.1471,18.9299 -2.6088,28.4 -2.839,18.39327 -8.5253,37.56042 -16.2763,54.86334 -25.422,56.75062 -74.9816,100.6135 -134.0928,118.6793 -19.3148,5.90304 -42.0174,9.49736 -59.9877,9.49736 h -3.5323 z m 0,-60.74338 v -12.49764 l 4.08,-0.20411 c 20.4127,-1.02117 36.674,-5.04243 53.68,-13.27454 20.7468,-10.04296 38.9553,-25.81932 51.619,-44.72412 10.892,-16.25997 18.0202,-34.67865 20.7152,-53.52639 0.854,-5.97235 1.4258,-12.61313 1.4258,-16.55925 v -2.65604 h 12.6554 12.6555 l -0.1894,4.08 c -0.3262,7.02861 -0.815,12.87393 -1.4731,17.61561 -4.6287,33.35239 -20.0474,64.2881 -43.9703,88.2207 -9.8326,9.83658 -21.7104,18.89557 -33.5981,25.62475 -21.7,12.2835 -46.8828,19.40375 -71.44,20.19916 l -6.16,0.19952 z"
         id="path29" /></g></g></svg>
