<?xml version="1.0" encoding="UTF-8" standalone="no"?>
<!-- Created with Inkscape (http://www.inkscape.org/) -->

<svg
   width="108.20462mm"
   height="103.37993mm"
   viewBox="0 0 408.96232 390.7273"
   version="1.1"
   id="svg1"
   xml:space="preserve"
   xmlns="http://www.w3.org/2000/svg"
   xmlns:svg="http://www.w3.org/2000/svg"><defs
     id="defs1" /><g
     id="layer1"
     transform="translate(-1381.3222,2732.7266)"><path
       style="fill:#f2f2f2"
       d="m 1511.564,-2415.4483 v -73.4415 l -6.4362,3.2212 c -26.8084,13.4169 -54.671,22.1375 -84.2664,26.3739 -11.1739,1.5995 -25.6369,2.7274 -34.9774,2.7278 l -4.56,2e-4 v -12.64 c 0,-11.8232 0.036,-12.6403 0.56,-12.6442 8.4016,-0.062 23.0838,-1.0928 32.08,-2.2519 71.6976,-9.2384 136.5267,-49.5805 176.6139,-109.9039 16.02,-24.1071 27.1316,-49.1515 34.2275,-77.1452 4.5438,-17.926 6.7985,-34.4617 7.5777,-55.5748 l 0.2096,-5.68 h 13.3256 13.3257 l -0.1144,71.5269 -0.1144,71.527 7.6344,-3.783 c 36.3354,-18.005 74.4941,-27.4069 116.6743,-28.7474 l 6.96,-0.2212 v 12.6888 12.6889 l -2.16,0.01 c -7.4616,0.02 -22.5026,1.1064 -31.28,2.2596 -32.5639,4.2785 -65.3722,15.4038 -93.1199,31.5769 l -4.8,2.7977 -0.082,21.361 -0.082,21.3611 2.9765,-2.208 c 14.8698,-11.0305 34.3697,-21.4237 53.2502,-28.3815 16.4339,-6.0562 34.9478,-10.2856 53.0578,-12.1208 6.0154,-0.6096 14.6671,-1.1247 18.96,-1.1287 h 3.28 v 12.5922 12.5923 l -6,0.2269 c -19.9387,0.754 -37.6709,3.9229 -55.6,9.9361 -23.8383,7.9951 -45.4852,20.3687 -64.7999,37.0402 l -4.96,4.2812 -0.082,26.3476 -0.082,26.3475 2.4347,-3.482 c 18.5206,-26.4882 46.6171,-47.5489 77.6624,-58.2146 15.3242,-5.2647 33.2806,-8.4674 47.4731,-8.4674 h 3.9535 v 12.5905 12.5905 l -5.68,0.1937 c -18.4955,0.631 -37.0426,5.485 -54.16,14.1744 -12.4503,6.3202 -22.6204,13.5978 -32.6037,23.3307 -21.6945,21.1505 -35.0261,47.8812 -38.9096,78.0166 -0.3169,2.4589 -0.4866,6.45 -0.4866,11.44 v 7.6636 h -13.6174 -13.6173 l 0.1966,-21.36 c 0.2793,-30.3434 1.4399,-226.2923 1.4288,-241.2289 l -0.01,-12.4511 -4.4015,8.64 c -8.1438,15.986 -15.5964,27.9811 -25.9,41.6865 l -3.92,5.2142 v 109.7496 109.7497 h -13.6 -13.6 v -94.9104 -94.9105 l -2,1.8054 c -8.9648,8.0924 -18.43,15.7993 -26.72,21.7561 l -3.92,2.8168 v 81.7213 81.7213 h -13.6 -13.6 z m -130.24,-112.7736 v -12.8248 h 2.9654 c 6.4952,0 18.265,-1.0165 26.1546,-2.2589 49.6169,-7.813 93.7193,-34.3805 124.005,-74.7011 20.5438,-27.351 33.5274,-60.5606 37.094,-94.88 0.3931,-3.783 1.1319,-16.1829 1.1392,-19.12 v -0.72 h 12.6904 12.6904 l -0.2046,7.12 c -0.2278,7.9265 -0.5589,12.2859 -1.5252,20.08 -11.8829,95.8503 -86.7386,172.8735 -182.211,187.4869 -8.2613,1.2645 -16.9947,2.0378 -27.6,2.4437 l -5.2,0.1991 z m 0,-60.7745 v -12.7496 l 5.36,-0.2067 c 44.7375,-1.7255 85.7115,-26.2587 108.3159,-64.854 10.0018,-17.0772 16.4296,-38.234 17.3579,-57.1324 0.1034,-2.1052 0.2674,-4.8716 0.3644,-6.1476 l 0.1764,-2.32 h 12.6127 12.6127 v 3.12 c -0.01,7.0087 -1.1812,18.3472 -2.7307,26.3702 -4.9717,25.744 -15.7739,48.7221 -32.6958,69.5498 -3.7454,4.6098 -15.629,16.6127 -20.0903,20.2918 -24.3666,20.0948 -52.4243,32.1769 -82.88,35.6894 -4.2375,0.4887 -13.6796,1.1301 -16.72,1.1357 h -1.68 z"
       id="path2" /></g></svg>
