<?xml version="1.0" encoding="UTF-8" standalone="no"?>
<!-- Created with Inkscape (http://www.inkscape.org/) -->

<svg
   width="108.27763mm"
   height="176.75145mm"
   viewBox="0 0 409.23831 668.03699"
   version="1.1"
   id="svg1"
   xml:space="preserve"
   xmlns="http://www.w3.org/2000/svg"
   xmlns:svg="http://www.w3.org/2000/svg"><defs
     id="defs1" /><g
     id="layer1"
     transform="translate(-1286.0302,-98.352686)"><g
       id="g15"
       transform="translate(1698.51,1323.6639)"><path
         style="fill:#b9cedb"
         d="m -79.756051,-557.41956 c 0.398052,-0.0765 0.974052,-0.0736 1.28,0.006 0.305948,0.0801 -0.01973,0.14272 -0.723731,0.13917 -0.704,-0.004 -0.954321,-0.0691 -0.556269,-0.14562 z m -329.366749,-25.37368 0.003,-24.48 12.31999,-0.006 12.32,-0.006 -12.238,0.0894 -12.238,0.0894 -0.085,24.39625 -0.085,24.39624 z m 248.63998,0 0.003,-24.48 5.20033,-0.0123 5.20032,-0.0123 -5.11833,0.10019 -5.11832,0.10019 -0.085,24.39209 -0.085,24.39208 z m 112.959998,0 0.003,-24.48 18.879999,-0.004 18.8799991,-0.004 -18.7980011,0.0863 -18.798,0.0863 -0.08504,24.39747 -0.08504,24.39746 z m 38.6325823,20.08329 -0.069546,-4.3967 -14.3199993,-0.0833 -14.319999,-0.0833 -0.0114,-5.68028 -0.0114,-5.68028 0.09878,5.60028 0.09879,5.60028 h 14.242659 c 11.407261,0 14.2745088,0.083 14.4026471,0.41692 0.087994,0.22931 0.11477,2.28131 0.059503,4.56 l -0.1004854,4.14308 z m -116.5903603,1.11671 c -0.39804,-0.50754 -0.38672,-0.51886 0.12082,-0.12082 0.308,0.24155 0.56,0.49355 0.56,0.56 0,0.26337 -0.26278,0.0939 -0.68082,-0.43918 z m -2.56,-2.88 c -0.39804,-0.50754 -0.38672,-0.51886 0.12082,-0.12082 0.308,0.24155 0.56,0.49355 0.56,0.56 0,0.26337 -0.26278,0.0939 -0.68082,-0.43918 z m 48.280818,-1.57193 c 0.22,-0.0888 0.58,-0.0888 0.8,0 0.22,0.0888 0.04,0.1614 -0.4,0.1614 -0.44,0 -0.62,-0.0726 -0.4,-0.1614 z m -305.599988,-1.28 c 0.22,-0.0888 0.58,-0.0888 0.8,0 0.22,0.0888 0.04,0.1614 -0.4,0.1614 -0.44,0 -0.62,-0.0726 -0.4,-0.1614 z m 191.86184,-0.0278 c 4.01602,-0.0508 10.49602,-0.0507 14.4,1.3e-4 3.90399,0.0509 0.61815,0.0924 -7.30185,0.0924 -7.92,-7e-5 -11.11416,-0.0417 -7.09815,-0.0925 z m -171.85468,-4.56025 c 0,-0.792 0.0624,-1.116 0.13868,-0.72 0.0763,0.396 0.0763,1.044 0,1.44 -0.0763,0.396 -0.13868,0.072 -0.13868,-0.72 z m 26.07284,0.72046 c 3.212,-0.0522 8.468,-0.0522 11.68,0 3.212,0.0522 0.584,0.0949 -5.84,0.0949 -6.424,0 -9.052,-0.0427 -5.84,-0.0949 z m 281.120685,-1.84046 c 0.0036,-0.704 0.06908,-0.95432 0.145625,-0.55627 0.07654,0.39805 0.07364,0.97405 -0.0065,1.28 -0.08009,0.30595 -0.142718,-0.0197 -0.139167,-0.72373 z m -317.815415,-0.0267 c 0.0153,-0.37278 0.0912,-0.44861 0.19333,-0.19333 0.0924,0.231 0.0811,0.507 -0.0253,0.61333 -0.10634,0.10634 -0.18197,-0.0827 -0.16807,-0.42 z m 239.6139,-0.69333 c -0.39804,-0.50754 -0.38672,-0.51886 0.12082,-0.12082 0.308,0.24155 0.56,0.49355 0.56,0.56 0,0.26337 -0.26278,0.0939 -0.68082,-0.43918 z m 14.12082,-17.43989 0.16,-16.08011 4.88036,-0.0129 4.88036,-0.0129 -4.80036,0.10127 -4.80036,0.10127 v 15.99166 c 0,8.79542 -0.108,15.99172 -0.24,15.99178 -0.132,6e-5 -0.168,-7.23594 -0.08,-16.08 z m 111.16716,8.07989 c 0,-2.552 0.0497,-3.596 0.110436,-2.32 0.06074,1.276 0.06074,3.364 0,4.64 -0.06074,1.276 -0.110436,0.232 -0.110436,-2.32 z m -357.43755,3.44 -0.6096,-0.72 0.72,0.6096 c 0.396,0.33527 0.72,0.65927 0.72,0.72 0,0.25608 -0.25753,0.067 -0.8304,-0.6096 z m 330.881323,-13.52 c -3.67e-4,-2.992 0.04773,-4.25907 0.106885,-2.81571 0.05915,1.44336 0.05945,3.89136 6.69e-4,5.44 -0.05879,1.54864 -0.107186,0.36771 -0.107554,-2.62429 z m -50.881339,1.36 -0.609596,-0.72 0.72,0.6096 c 0.676623,0.57287 0.865677,0.8304 0.609596,0.8304 -0.06072,0 -0.384722,-0.324 -0.72,-0.72 z m -11.558074,-2 c 0.002,-0.88 0.0645,-1.20202 0.138105,-0.7156 0.07355,0.48642 0.07159,1.20642 -0.0044,1.6 -0.07596,0.39358 -0.136135,-0.004 -0.133735,-0.8844 z m -42.69234,-4.88 c -0.39804,-0.50754 -0.38672,-0.51886 0.12082,-0.12082 0.308,0.24155 0.56,0.49355 0.56,0.56 0,0.26337 -0.26278,0.0939 -0.68082,-0.43918 z m -29.96963,-3.99746 -0.0695,-4.39746 -18.96,-0.0851 -18.96,-0.0851 18.97005,-0.0774 c 15.34669,-0.0626 19.0006,0.002 19.13003,0.33951 0.088,0.22931 0.11477,2.28131 0.0595,4.56 l -0.10048,4.14308 z m 91.694179,3.05114 c 0.398052,-0.0765 0.974052,-0.0736 1.28,0.006 0.305948,0.0801 -0.01973,0.14272 -0.723731,0.13917 -0.704,-0.004 -0.954321,-0.0691 -0.556269,-0.14562 z m -252.243719,-7.45368 -5.76,-0.18243 5.66112,-0.0688 c 3.50511,-0.0426 5.73643,0.0531 5.85888,0.25121 0.10877,0.176 0.15327,0.28905 0.0989,0.25121 -0.0544,-0.0378 -2.69089,-0.15088 -5.85889,-0.25121 z m 38.81519,-0.23832 c 1.46036,-0.0594 3.76436,-0.0591 5.12,7.3e-4 1.35565,0.0598 0.16081,0.10846 -2.65519,0.10806 -2.816,-4.1e-4 -3.92516,-0.0494 -2.46481,-0.10879 z m 37.76,0 c 1.46036,-0.0594 3.76436,-0.0591 5.12,7.3e-4 1.35564,0.0598 0.16081,0.10846 -2.65519,0.10806 -2.816,-4.1e-4 -3.92517,-0.0494 -2.46481,-0.10879 z m 24.32,0 c 1.46036,-0.0594 3.76436,-0.0591 5.12,7.3e-4 1.35564,0.0598 0.16081,0.10846 -2.65519,0.10806 -2.816,-4.1e-4 -3.92517,-0.0494 -2.46481,-0.10879 z m 151.350529,-0.95359 c 0.575152,-0.0712 1.439152,-0.0697 1.92,0.003 0.480848,0.073 0.01027,0.13129 -1.045731,0.12949 -1.056,-0.002 -1.449421,-0.0615 -0.874269,-0.13275 z m -16.80573,-24.94867 c 0.308,-0.0805 0.812,-0.0805 1.12,0 0.308,0.0805 0.056,0.14634 -0.56,0.14634 -0.616,0 -0.868,-0.0658 -0.56,-0.14634 z M -409.1276,-657.67324 c 0,-13.464 0.0395,-18.972 0.0877,-12.24 0.0482,6.732 0.0482,17.748 0,24.48 -0.0482,6.732 -0.0877,1.224 -0.0877,-12.24 z m 71.02821,15.68 c 0,-4.84 0.0445,-6.82 0.0988,-4.4 0.0544,2.42 0.0544,6.38 0,8.8 -0.0544,2.42 -0.0988,0.44 -0.0988,-4.4 z m 216.33178,-15.68 c 0,-13.464 0.0395,-18.972 0.0877,-12.24 0.0482,6.732 0.0482,17.748 0,24.48 -0.0482,6.732 -0.0877,1.224 -0.0877,-12.24 z m -188.15216,1.6 c 0.31856,-0.352 0.65119,-0.64 0.73919,-0.64 0.088,0 -0.10063,0.288 -0.41919,0.64 -0.31856,0.352 -0.65119,0.64 -0.73919,0.64 -0.088,0 0.10063,-0.288 0.41919,-0.64 z m 238.024992,-1.76 c 0.0014,-1.232 0.05926,-1.69679 0.128531,-1.03286 0.06927,0.66392 0.06811,1.67192 -0.0026,2.24 -0.07069,0.56807 -0.127369,0.0249 -0.12595,-1.20714 z m -266.207782,-8.32 c 2.3e-4,-4.048 0.0461,-5.65987 0.10191,-3.58194 0.0558,2.07793 0.0557,5.38993 -4.1e-4,7.36 -0.0561,1.97007 -0.10172,0.26994 -0.1015,-3.77806 z m 12.92279,6.9814 c 0.231,-0.0924 0.507,-0.0811 0.61333,0.0253 0.10634,0.10633 -0.0827,0.18196 -0.42,0.16807 -0.37278,-0.0154 -0.4486,-0.0912 -0.19333,-0.19334 z m -41.77284,-7.1414 c 0,-0.792 0.0624,-1.116 0.13868,-0.72 0.0763,0.396 0.0763,1.044 0,1.44 -0.0763,0.396 -0.13868,0.072 -0.13868,-0.72 z m -12.11756,-4.24 -0.6096,-0.72 0.72,0.6096 c 0.67663,0.57287 0.86568,0.8304 0.6096,0.8304 -0.0607,0 -0.38472,-0.324 -0.72,-0.72 z m -16.99297,-2.71876 c 1.72514,-0.0576 4.46114,-0.0574 6.08,5.6e-4 1.61885,0.058 0.20737,0.10512 -3.13663,0.10481 -3.344,-3e-4 -4.66852,-0.0477 -2.94337,-0.10537 z m 287.35998,0 c 1.72514,-0.0576 4.46114,-0.0574 6.08,5.6e-4 1.61886,0.058 0.20738,0.10512 -3.13662,0.10481 -3.344,-3e-4 -4.66852,-0.0477 -2.94338,-0.10537 z m -275.35661,-8.61984 c 0.231,-0.0924 0.507,-0.0811 0.61334,0.0253 0.10633,0.10633 -0.0827,0.18196 -0.42,0.16807 -0.37278,-0.0154 -0.44861,-0.0912 -0.19334,-0.19334 z m 60.8,0 c 0.231,-0.0924 0.507,-0.0811 0.61333,0.0253 0.10634,0.10633 -0.0827,0.18196 -0.42,0.16807 -0.37278,-0.0154 -0.4486,-0.0912 -0.19333,-0.19334 z m 226.859989,0.007 c 0.22,-0.0888 0.58,-0.0888 0.8,0 0.22,0.0888 0.04,0.1614 -0.4,0.1614 -0.44,0 -0.62,-0.0726 -0.4,-0.1614 z m -286.555589,-24.97769 c 0.48642,-0.0736 1.20642,-0.0716 1.6,0.004 0.39358,0.076 -0.004,0.13614 -0.8844,0.13374 -0.88,-0.002 -1.20202,-0.0646 -0.7156,-0.1381 z m 280.31559,4.2e-4 c 0.484,-0.0733 1.276,-0.0733 1.76,0 0.484,0.0733 0.088,0.13331 -0.88,0.13331 -0.968,0 -1.364,-0.06 -0.88,-0.13331 z m -230.64303,-25.3708 0.003,-24.48 h 4.96 4.96 l 0.0824,19.91649 0.0824,19.91649 13.19758,0.0888 13.19758,0.0888 -13.28,-0.005 -13.28,-0.005 -0.0824,-19.92 -0.0824,-19.92 h -4.79558 -4.79558 l -0.085,24.4 -0.085,24.4 z m 93.76,0 0.003,-24.48 5.20032,-0.0123 5.20033,-0.0123 -5.11833,0.10019 -5.11833,0.10019 -0.085,24.39208 -0.085,24.39208 z m -165.31777,17.68 c -0.39804,-0.50754 -0.38672,-0.51885 0.12082,-0.12082 0.53303,0.41804 0.70255,0.68082 0.43918,0.68082 -0.0665,0 -0.31845,-0.252 -0.56,-0.56 z m 324.840798,0.11918 c 0,-0.0664 0.252,-0.31845 0.56,-0.56 0.507538,-0.39803 0.518856,-0.38672 0.120817,0.12082 -0.418038,0.53304 -0.680817,0.70256 -0.680817,0.43918 z m -302.799988,-1.38501 c 0.396,-0.0763 1.044,-0.0763 1.44,0 0.396,0.0763 0.072,0.13868 -0.72,0.13868 -0.792,0 -1.116,-0.0624 -0.72,-0.13868 z m 280.63999,0 c 0.396,-0.0763 1.044,-0.0763 1.44,0 0.396,0.0763 0.072,0.13868 -0.72,0.13868 -0.792,0 -1.116,-0.0624 -0.72,-0.13868 z m -110.68081,-4.49417 c -0.39804,-0.50754 -0.38672,-0.51885 0.12081,-0.12082 0.53304,0.41804 0.70256,0.68082 0.43919,0.68082 -0.0665,0 -0.31845,-0.252 -0.56,-0.56 z m 175.320806,-0.31953 c 3.211999,-0.0522 8.467999,-0.0522 11.679999,0 3.212,0.0522 0.584,0.0949 -5.84,0.0949 -6.423999,0 -9.051999,-0.0427 -5.839999,-0.0949 z m -163.759996,-20.00036 0.16,-16.08011 4.88037,-0.0129 4.88036,-0.0129 -4.80036,0.10126 -4.80037,0.10127 v 15.99167 c 0,8.79541 -0.108,15.99171 -0.24,15.99177 -0.132,6e-5 -0.168,-7.23594 -0.08,-16.08 z m -17.00081,14.23989 c -0.39804,-0.50754 -0.38672,-0.51885 0.12082,-0.12082 0.53303,0.41804 0.70255,0.68082 0.43918,0.68082 -0.0665,0 -0.31845,-0.252 -0.56,-0.56 z m -194.17391,-4.10666 c 0.0154,-0.37279 0.0912,-0.44861 0.19333,-0.19334 0.0924,0.231 0.0811,0.507 -0.0253,0.61334 -0.10633,0.10633 -0.18197,-0.0827 -0.16807,-0.42 z m 290.95061,-1.41334 c 0,-0.968 0.06,-1.364 0.13331,-0.88 0.0733,0.484 0.0733,1.276 0,1.76 -0.0733,0.484 -0.13331,0.088 -0.13331,-0.88 z m -290.95061,-2.42666 c 0.0154,-0.37279 0.0912,-0.44861 0.19333,-0.19334 0.0924,0.231 0.0811,0.507 -0.0253,0.61334 -0.10633,0.10633 -0.18197,-0.0827 -0.16807,-0.42 z m 324.430499,-8.69334 -0.775781,-0.88 0.88,0.77578 c 0.822493,0.72509 1.026748,0.98422 0.775781,0.98422 -0.05732,0 -0.453321,-0.396 -0.88,-0.88 z m -38.055779,-5.30013 c 0,-0.0551 0.468,-0.52307 1.04,-1.04 l 1.04,-0.93987 -0.93987,1.04 c -0.87609,0.96943 -1.14013,1.18709 -1.14013,0.93987 z m -257.51559,-0.44949 c 0.48642,-0.0736 1.20642,-0.0716 1.6,0.004 0.39358,0.076 -0.004,0.13614 -0.8844,0.13374 -0.88,-0.002 -1.20202,-0.0645 -0.7156,-0.1381 z m 280.47559,0.004 c 0.396,-0.0763 1.044,-0.0763 1.44,0 0.396,0.0763 0.072,0.13868 -0.72,0.13868 -0.792,0 -1.116,-0.0624 -0.72,-0.13868 z m -123.48081,-4.81417 c -0.39804,-0.50754 -0.38672,-0.51885 0.12082,-0.12082 0.53303,0.41804 0.70255,0.68082 0.43918,0.68082 -0.0665,0 -0.31845,-0.252 -0.56,-0.56 z m 195.080805,-2.96 -5.759999,-0.18242 5.661114,-0.0688 c 3.505115,-0.0426 5.736434,0.0531 5.858885,0.25121 0.108774,0.176 0.153272,0.28905 0.09888,0.25122 -0.05439,-0.0378 -2.690885,-0.15088 -5.858885,-0.25122 z m -241.824795,-0.23832 c 1.46036,-0.0594 3.76436,-0.0591 5.12,7.4e-4 1.35565,0.0598 0.16081,0.10845 -2.65519,0.10805 -2.816,-4.1e-4 -3.92516,-0.0494 -2.46481,-0.10879 z m 110.8648,4.6e-4 c 1.364,-0.06 3.596,-0.06 4.96,0 1.364,0.06 0.248,0.10907 -2.48,0.10907 -2.728,0 -3.844,-0.0491 -2.48,-0.10907 z m -221.27426,-0.95405 c 0.57516,-0.0712 1.43916,-0.0697 1.92,0.003 0.48085,0.073 0.0103,0.13129 -1.04573,0.12949 -1.056,-0.002 -1.44942,-0.0615 -0.87427,-0.13275 z m 280.63999,0 c 0.57515,-0.0712 1.43915,-0.0697 1.92,0.003 0.48085,0.073 0.0103,0.13129 -1.04573,0.12949 -1.056,-0.002 -1.44942,-0.0615 -0.87427,-0.13275 z m -163.76572,-2.4489 c 0,-0.0665 0.252,-0.31845 0.56,-0.56 0.50754,-0.39804 0.51885,-0.38673 0.12082,0.12081 -0.41804,0.53304 -0.68082,0.70256 -0.68082,0.43919 z m 3.52,-3.2 c 0,-0.0665 0.252,-0.31845 0.56,-0.56 0.50754,-0.39804 0.51885,-0.38673 0.12082,0.12081 -0.41804,0.53304 -0.68082,0.70256 -0.68082,0.43919 z m 7.36,-6.72 c 0,-0.0665 0.252,-0.31845 0.56,-0.56 0.50753,-0.39804 0.51885,-0.38672 0.12081,0.12081 -0.41803,0.53304 -0.68081,0.70256 -0.68081,0.43919 z m 33.74935,-64.59571 c -0.0843,-0.22191 -0.11611,-43.02748 -0.0708,-95.12347 l 0.0825,-94.72001 0.0795,94.96001 0.0795,94.95999 h 13.43953 13.43954 l 0.0812,-109.75999 0.0812,-109.76001 -6.9e-4,109.84001 -7e-4,109.83999 -13.5287,0.0835 c -10.65229,0.0657 -13.56129,-0.002 -13.68194,-0.32 z m 59.83248,-0.0154 c -0.0884,-0.23038 -0.11607,-2.42795 -0.0615,-4.88348 l 0.0993,-4.46459 0.0702,4.72 0.0702,4.72 h 13.43376 13.43376 l 0.0958,-6.88019 0.0958,-6.8802 -0.01,6.9602 -0.01,6.96019 -13.52871,0.0835 c -10.91252,0.0673 -13.55979,0.002 -13.68945,-0.33541 z m -92.46428,-81.66806 c 0,-45.056 0.0371,-63.44042 0.0824,-40.85426 0.0453,22.58616 0.0453,59.45016 -10e-6,81.92 -0.0453,22.46984 -0.0824,3.99025 -0.0824,-41.06574 z m 119.8677,64.29333 c 0.0154,-0.37278 0.0912,-0.44861 0.19334,-0.19334 0.0924,0.231 0.0811,0.507 -0.0253,0.61334 -0.10633,0.10633 -0.18196,-0.0827 -0.16807,-0.42 z m -27.09028,-37.89333 c 0,-3.608 0.0467,-5.084 0.1037,-3.28 0.057,1.804 0.057,4.756 0,6.56 -0.057,1.804 -0.1037,0.328 -0.1037,-3.28 z m 57.14502,-32.12082 c 0,-0.0665 0.252,-0.31845 0.56,-0.56 0.50754,-0.39804 0.51886,-0.38672 0.12082,0.12082 -0.41804,0.53304 -0.68082,0.70255 -0.68082,0.43918 z m 2.56,-2.91918 c 0.41336,-0.44 0.82356,-0.8 0.91156,-0.8 0.088,0 -0.1782,0.36 -0.59156,0.8 -0.41336,0.44 -0.82356,0.8 -0.91156,0.8 -0.088,0 0.1782,-0.36 0.59156,-0.8 z m 2.879999,-3.12801 c 0,-0.0484 1.116,-1.16441 2.48,-2.48 l 2.48,-2.39199 -2.391991,2.48 c -2.221629,2.30336 -2.568009,2.626 -2.568009,2.39199 z m 7.679999,-7.43199 c 0.413359,-0.44 0.823561,-0.8 0.911561,-0.8 0.088,0 -0.178202,0.36 -0.591561,0.8 -0.413358,0.44 -0.82356,0.8 -0.91156,0.8 -0.088,0 0.178202,-0.36 0.59156,-0.8 z m -69.944548,-7.04 c 2.6e-4,-3.696 0.0468,-5.16418 0.10352,-3.26261 0.0567,1.90156 0.0565,4.92556 -4.8e-4,6.72 -0.0569,1.79443 -0.1033,0.23861 -0.10304,-3.45739 z m 72.184548,5.15918 c 0,-0.0664 0.252,-0.31845 0.56,-0.56 0.507538,-0.39804 0.518857,-0.38672 0.120818,0.12082 -0.418038,0.53304 -0.680818,0.70255 -0.680818,0.43918 z m -33.119998,-3.07918 c 0.31856,-0.352 0.65119,-0.64 0.73919,-0.64 0.088,0 -0.10063,0.288 -0.41919,0.64 -0.31856,0.352 -0.65119,0.64 -0.73919,0.64 -0.088,0 0.10063,-0.288 0.41919,-0.64 z m 2.08,-2.34013 c 0,-0.0551 0.468,-0.52308 1.04,-1.04 l 1.04,-0.93987 -0.93987,1.04 c -0.87609,0.96942 -1.14013,1.18708 -1.14013,0.93987 z m -288.39153,-6.21459 c 0.75266,-0.0676 1.90466,-0.0667 2.56,0.002 0.65535,0.0688 0.0396,0.12407 -1.36845,0.12291 -1.408,-10e-4 -1.9442,-0.0574 -1.19155,-0.12502 z m 10.71763,-0.30704 c 0.31135,-0.0811 0.74335,-0.0758 0.96,0.0119 0.21666,0.0877 -0.0381,0.15403 -0.56609,0.14751 -0.528,-0.007 -0.70525,-0.0782 -0.39391,-0.15937 z m 5.29391,-0.31684 c 0.231,-0.0924 0.507,-0.0811 0.61334,0.0253 0.10633,0.10634 -0.0827,0.18197 -0.42,0.16807 -0.37278,-0.0154 -0.44861,-0.0912 -0.19334,-0.19333 z m 4.16,-0.32 c 0.231,-0.0924 0.507,-0.0811 0.61334,0.0253 0.10633,0.10634 -0.0827,0.18197 -0.42,0.16807 -0.37278,-0.0153 -0.44861,-0.0912 -0.19334,-0.19333 z m 3.52,-0.32 c 0.231,-0.0924 0.507,-0.0811 0.61334,0.0253 0.10633,0.10634 -0.0827,0.18197 -0.42,0.16807 -0.37278,-0.0154 -0.44861,-0.0912 -0.19334,-0.19333 z m 273.65999,-1.48153 c 0,-0.0551 0.468,-0.52308 1.04,-1.04 l 1.04,-0.93987 -0.93987,1.04 c -0.87609,0.96942 -1.14013,1.18708 -1.14013,0.93987 z m 3.84,-3.54069 c 0,-0.0665 0.252,-0.31845 0.56,-0.56 0.50754,-0.39804 0.51886,-0.38672 0.12082,0.12082 -0.41804,0.53304 -0.68082,0.70255 -0.68082,0.43918 z m 2.24,-1.92 c 0,-0.0665 0.252,-0.31845 0.56,-0.56 0.50754,-0.39804 0.51886,-0.38672 0.12082,0.12082 -0.41804,0.53304 -0.68082,0.70255 -0.68082,0.43918 z m -29.30502,-12.99918 c 0,-3.608 0.0467,-5.084 0.1037,-3.28 0.057,1.804 0.057,4.756 0,6.56 -0.057,1.804 -0.1037,0.328 -0.1037,-3.28 z m 114.365015,2.0214 c 0.231,-0.0924 0.507,-0.0811 0.613333,0.0253 0.106333,0.10634 -0.08267,0.18197 -0.42,0.16807 -0.372782,-0.0154 -0.448608,-0.0912 -0.193333,-0.19333 z m 6.079999,-0.64 c 0.231,-0.0924 0.507,-0.0811 0.613334,0.0253 0.106333,0.10634 -0.08267,0.18197 -0.42,0.16807 -0.372782,-0.0154 -0.448608,-0.0912 -0.193334,-0.19333 z m 4.9400001,-0.32199 c 0.308,-0.0805 0.8119999,-0.0805 1.1199999,0 0.308,0.0805 0.056,0.14635 -0.56,0.14635 -0.6159999,0 -0.8679999,-0.0659 -0.5599999,-0.14635 z m -397.1199741,-5.44861 c 0.484,-0.0733 1.276,-0.0733 1.76,0 0.484,0.0733 0.088,0.1333 -0.88,0.1333 -0.968,0 -1.364,-0.06 -0.88,-0.1333 z m 8.32608,-0.31256 c 0.31135,-0.0811 0.74335,-0.0758 0.96,0.0119 0.21666,0.0877 -0.0381,0.15403 -0.56609,0.14751 -0.528,-0.007 -0.70525,-0.0782 -0.39391,-0.15937 z m 4.97391,-0.31684 c 0.231,-0.0924 0.507,-0.0811 0.61334,0.0253 0.10633,0.10634 -0.0827,0.18197 -0.42,0.16807 -0.37278,-0.0154 -0.44861,-0.0912 -0.19334,-0.19333 z m 3.84,-0.32 c 0.231,-0.0924 0.507,-0.0811 0.61334,0.0253 0.10633,0.10634 -0.0827,0.18197 -0.42,0.16807 -0.37278,-0.0154 -0.44861,-0.0912 -0.19334,-0.19333 z m 256.69999,-3.1414 c 0.41336,-0.44 0.82356,-0.8 0.91156,-0.8 0.088,0 -0.1782,0.36 -0.59156,0.8 -0.41336,0.44 -0.82356,0.8 -0.91156,0.8 -0.088,0 0.1782,-0.36 0.59156,-0.8 z m 2.56,-2.20082 c 0,-0.0665 0.252,-0.31845 0.56,-0.56 0.50754,-0.39804 0.51886,-0.38672 0.12082,0.12082 -0.41804,0.53304 -0.68082,0.70255 -0.68082,0.43918 z m 2.24,-1.92 c 0,-0.0665 0.252,-0.31845 0.56,-0.56 0.50754,-0.39804 0.51886,-0.38672 0.12082,0.12082 -0.41804,0.53304 -0.68082,0.70255 -0.68082,0.43918 z m -33.46455,-12.19918 c 2.6e-4,-3.696 0.0468,-5.16422 0.10352,-3.26261 0.0567,1.90157 0.0565,4.92557 -4.8e-4,6.72 -0.0569,1.79443 -0.1033,0.23861 -0.10304,-3.45739 z m 135.804545,1.8614 c 0.231,-0.0924 0.507,-0.0811 0.613333,0.0253 0.106334,0.10634 -0.08267,0.18197 -0.42,0.16807 -0.372781,-0.0154 -0.448608,-0.0912 -0.193333,-0.19333 z m 5.12,-0.64 c 0.231,-0.0924 0.507,-0.0811 0.613333,0.0253 0.106333,0.10634 -0.08267,0.18197 -0.42,0.16807 -0.372782,-0.0154 -0.448608,-0.0912 -0.193333,-0.19333 z m 3.519999,-0.32 c 0.231,-0.0924 0.507,-0.0811 0.613334,0.0253 0.106333,0.10634 -0.08267,0.18197 -0.42,0.16807 -0.372782,-0.0154 -0.448608,-0.0912 -0.193334,-0.19333 z m 4.30609,-0.32316 c 0.31135,-0.0811 0.74335,-0.0758 0.96,0.0119 0.216651,0.0877 -0.03809,0.15403 -0.56609,0.14751 -0.528,-0.007 -0.705259,-0.0782 -0.39391,-0.15937 z m -391.366064,-13.75886 c 0.308,-0.08 0.812,-0.08 1.12,0 0.30799,0.081 0.056,0.1463 -0.56,0.1463 -0.616,0 -0.868,-0.066 -0.56,-0.1463 z m 6.25999,-0.318 c 0.231,-0.092 0.507,-0.081 0.61334,0.025 0.10633,0.1064 -0.0827,0.182 -0.42,0.1681 -0.37278,-0.015 -0.44861,-0.091 -0.19334,-0.1933 z m 4.16,-0.32 c 0.231,-0.093 0.507,-0.081 0.61334,0.025 0.10633,0.1064 -0.0827,0.182 -0.42,0.1681 -0.37278,-0.015 -0.44861,-0.091 -0.19334,-0.1933 z m 165.82,-10.4623 c 0,-0.066 0.252,-0.3184 0.56,-0.56 0.50753,-0.398 0.51885,-0.3867 0.12081,0.1209 -0.41803,0.533 -0.68081,0.7025 -0.68081,0.4391 z m 4,-3.7191 c 0.31855,-0.352 0.65119,-0.64 0.73919,-0.64 0.088,0 -0.10064,0.288 -0.41919,0.64 -0.31856,0.352 -0.6512,0.64 -0.7392,0.64 -0.088,0 0.10064,-0.288 0.4192,-0.64 z m 195.299985,-3.7386 c 0.231,-0.093 0.507,-0.081 0.613333,0.025 0.106334,0.1064 -0.08267,0.182 -0.42,0.1681 -0.372781,-0.015 -0.448607,-0.091 -0.193333,-0.1933 z m 2.56,-0.32 c 0.231,-0.092 0.507,-0.081 0.613333,0.025 0.106334,0.1064 -0.08267,0.182 -0.42,0.1681 -0.372781,-0.015 -0.448607,-0.091 -0.193333,-0.1933 z m 3.2,-0.32 c 0.231,-0.092 0.507,-0.081 0.613333,0.025 0.106333,0.1064 -0.08267,0.182 -0.42,0.1681 -0.372782,-0.015 -0.448608,-0.091 -0.193333,-0.1933 z m 3.52,-0.32 c 0.231,-0.092 0.507,-0.081 0.613333,0.025 0.106333,0.1064 -0.08267,0.182 -0.42,0.1681 -0.372782,-0.015 -0.448608,-0.091 -0.193333,-0.1933 z m 4.459999,-0.3134 c 0.22,-0.089 0.58,-0.089 0.8,0 0.22,0.089 0.04,0.1614 -0.4,0.1614 -0.44,0 -0.62,-0.073 -0.4,-0.1614 z m 8.6399999,-0.3395 c 0.572,-0.071 1.5079999,-0.071 2.0799999,0 0.572,0.071 0.104,0.129 -1.04,0.129 -1.1439999,0 -1.6119999,-0.058 -1.0399999,-0.129 z m -397.5938839,-5.4303 c 0.31134,-0.081 0.74334,-0.076 0.96,0.012 0.21665,0.088 -0.0381,0.154 -0.56609,0.1475 -0.528,-0.01 -0.70526,-0.078 -0.39391,-0.1594 z m 5.6139,-0.3168 c 0.231,-0.092 0.507,-0.081 0.61334,0.025 0.10633,0.1064 -0.0827,0.182 -0.42,0.1681 -0.37278,-0.015 -0.44861,-0.091 -0.19334,-0.1933 z m 152.7,-3.7422 c 0,-0.067 0.252,-0.3185 0.56,-0.56 0.50753,-0.3981 0.51885,-0.3868 0.12081,0.1208 -0.41803,0.533 -0.68081,0.7025 -0.68081,0.4392 z m 3.52,-3.2 c 0,-0.066 0.252,-0.3185 0.56,-0.56 0.50753,-0.3981 0.51885,-0.3868 0.12081,0.1208 -0.41803,0.533 -0.68081,0.7025 -0.68081,0.4392 z m 80.77544,-6.4392 c 2.6e-4,-3.696 0.0468,-5.1642 0.10352,-3.2626 0.0567,1.9015 0.0565,4.9255 -4.8e-4,6.72 -0.0569,1.7944 -0.1033,0.2386 -0.10304,-3.4574 z m 127.484545,-4.2186 c 0.231,-0.092 0.507,-0.081 0.613334,0.025 0.106333,0.1064 -0.08267,0.182 -0.42,0.1681 -0.372782,-0.015 -0.448608,-0.091 -0.193334,-0.1933 z m 5.12,-0.64 c 0.231,-0.092 0.507,-0.081 0.613333,0.025 0.106334,0.1064 -0.08267,0.182 -0.42,0.1681 -0.372781,-0.015 -0.448607,-0.091 -0.193333,-0.1933 z m 2.88,-0.32 c 0.231,-0.092 0.507,-0.081 0.613333,0.025 0.106334,0.1064 -0.08267,0.182 -0.42,0.1681 -0.372781,-0.015 -0.448608,-0.091 -0.193333,-0.1933 z m 3.5,-0.3134 c 0.22,-0.089 0.58,-0.089 0.8,0 0.22,0.089 0.04,0.1614 -0.4,0.1614 -0.44,0 -0.62,-0.073 -0.4,-0.1614 z m 4.48,-0.32 c 0.219999,-0.089 0.579999,-0.089 0.799999,0 0.22,0.089 0.04,0.1614 -0.4,0.1614 -0.439999,0 -0.619999,-0.073 -0.399999,-0.1614 z m 6.564399,-0.3377 c 0.48642,-0.073 1.20642,-0.072 1.6,0 0.39358,0.076 -0.0044,0.1361 -0.8844,0.1337 -0.88,0 -1.20202,-0.064 -0.7156,-0.1381 z m -216.884384,-1.3703 c 0.31855,-0.352 0.65119,-0.64 0.73919,-0.64 0.088,0 -0.10064,0.288 -0.41919,0.64 -0.31856,0.352 -0.6512,0.64 -0.7392,0.64 -0.088,0 0.10064,-0.288 0.4192,-0.64 z m -35.36,-12.64 c 0.41336,-0.44 0.82356,-0.8 0.91156,-0.8 0.088,0 -0.1782,0.36 -0.59156,0.8 -0.41336,0.44 -0.82356,0.8 -0.91156,0.8 -0.088,0 0.1782,-0.36 0.59156,-0.8 z m -141.0339,-1.3418 c 0.31134,-0.081 0.74334,-0.076 0.96,0.012 0.21665,0.088 -0.0381,0.154 -0.56609,0.1475 -0.528,-0.01 -0.70526,-0.078 -0.39391,-0.1594 z m 4.9739,-0.3168 c 0.231,-0.092 0.507,-0.081 0.61334,0.025 0.10633,0.1064 -0.0827,0.182 -0.42,0.1681 -0.37278,-0.015 -0.44861,-0.091 -0.19334,-0.1933 z m 144.06,-6.3414 c 0.41336,-0.44 0.82356,-0.8 0.91156,-0.8 0.088,0 -0.1782,0.36 -0.59156,0.8 -0.41336,0.44 -0.82356,0.8 -0.91156,0.8 -0.088,0 0.1782,-0.36 0.59156,-0.8 z m 3.52,-3.8008 c 0,-0.066 0.252,-0.3185 0.56,-0.56 0.50753,-0.3981 0.51885,-0.3868 0.12081,0.1208 -0.41803,0.533 -0.68081,0.7025 -0.68081,0.4392 z m -29.44,-6.4392 c 0.41336,-0.44 0.82356,-0.8 0.91156,-0.8 0.088,0 -0.1782,0.36 -0.59156,0.8 -0.41336,0.44 -0.82356,0.8 -0.91156,0.8 -0.088,0 0.1782,-0.36 0.59156,-0.8 z m 249.539985,-1.6586 c 0.231,-0.092 0.507,-0.081 0.613334,0.025 0.106333,0.1064 -0.08267,0.182 -0.42,0.1681 -0.372782,-0.015 -0.448608,-0.091 -0.193334,-0.1933 z m 3.2,-0.32 c 0.231,-0.092 0.507,-0.081 0.613333,0.025 0.106334,0.1064 -0.08267,0.182 -0.42,0.1681 -0.372781,-0.015 -0.448607,-0.091 -0.193333,-0.1933 z m 3.18,-0.3134 c 0.22,-0.089 0.58,-0.089 0.8,0 0.22,0.089 0.04,0.1614 -0.4,0.1614 -0.44,0 -0.62,-0.073 -0.4,-0.1614 z m 4.16,-0.32 c 0.22,-0.089 0.58,-0.089 0.8,0 0.22,0.089 0.04,0.1614 -0.4,0.1614 -0.44,0 -0.62,-0.073 -0.4,-0.1614 z m 5.599999,-0.3286 c 0.308,-0.081 0.812,-0.081 1.12,0 0.308,0.081 0.056,0.1463 -0.56,0.1463 -0.616,0 -0.868,-0.066 -0.56,-0.1463 z m -258.319984,-4.4194 c 0.41336,-0.44 0.82356,-0.8 0.91156,-0.8 0.088,0 -0.1782,0.36 -0.59156,0.8 -0.41336,0.44 -0.82356,0.8 -0.91156,0.8 -0.088,0 0.1782,-0.36 0.59156,-0.8 z m 113.09497,-6.88 c 0,-3.608 0.0467,-5.084 0.1037,-3.28 0.057,1.804 0.057,4.756 0,6.56 -0.057,1.804 -0.1037,0.328 -0.1037,-3.28 z m -243.39496,5.5414 c 0.231,-0.092 0.507,-0.081 0.61333,0.025 0.10633,0.1064 -0.0827,0.182 -0.42,0.1681 -0.37278,-0.015 -0.44861,-0.091 -0.19333,-0.1933 z m 133.81999,-2.4622 c 0,-0.066 0.252,-0.3185 0.56,-0.56 0.50754,-0.3981 0.51885,-0.3868 0.12082,0.1208 -0.41804,0.533 -0.68082,0.7025 -0.68082,0.4392 z m -36.16,-12.48 c 0,-0.066 0.252,-0.3185 0.56,-0.56 0.50754,-0.3981 0.51886,-0.3868 0.12082,0.1208 -0.41804,0.533 -0.68082,0.7025 -0.68082,0.4392 z m 171.98986,-20.1992 c -4e-5,-10.208 0.0404,-14.4303 0.0899,-9.3829 0.0495,5.0475 0.0495,13.3995 8e-5,18.56 -0.0495,5.1606 -0.0899,1.0309 -0.09,-9.1771 z m 94.830126,17.5414 c 0.231,-0.092 0.507,-0.081 0.613333,0.025 0.106333,0.1064 -0.08267,0.182 -0.42,0.1681 -0.372782,-0.015 -0.448608,-0.091 -0.193333,-0.1933 z m 2.56,-0.32 c 0.231,-0.093 0.507,-0.081 0.613333,0.025 0.106333,0.1064 -0.08267,0.182 -0.42,0.1681 -0.372782,-0.015 -0.448608,-0.091 -0.193333,-0.1932 z m 2.879999,-0.32 c 0.231,-0.092 0.507,-0.081 0.613334,0.025 0.106333,0.1064 -0.08267,0.182 -0.42,0.1681 -0.372782,-0.015 -0.448608,-0.091 -0.193334,-0.1932 z m 2.86,-0.3134 c 0.22,-0.089 0.58,-0.089 0.8,0 0.22,0.089 0.04,0.1614 -0.4,0.1614 -0.44,0 -0.62,-0.073 -0.4,-0.1614 z m 3.52,-0.32 c 0.22,-0.089 0.58,-0.089 0.8,0 0.22,0.089 0.04,0.1614 -0.4,0.1614 -0.44,0 -0.62,-0.073 -0.4,-0.1614 z m 4.16,-0.32 c 0.22,-0.089 0.58,-0.089 0.8,0 0.22,0.089 0.04,0.1614 -0.4,0.1614 -0.44,0 -0.62,-0.073 -0.4,-0.1614 z m 4.96,-0.3286 c 0.308,-0.081 0.812,-0.081 1.12,0 0.307999,0.081 0.056,0.1463 -0.56,0.1463 -0.616,0 -0.868,-0.066 -0.56,-0.1463 z m 8.479999,-0.3309 c 0.5720001,-0.071 1.508,-0.071 2.08,0 0.572,0.071 0.104,0.129 -1.0399999,0.129 -1.1440001,0 -1.6120001,-0.058 -1.0400001,-0.129 z m -286.319984,-5.0092 c 0,-0.066 0.252,-0.3186 0.56,-0.56 0.50754,-0.3982 0.51886,-0.3868 0.12082,0.1207 -0.41804,0.533 -0.68082,0.7026 -0.68082,0.4393 z m 134.10526,-81.6659 c 0.0154,-0.3729 0.0912,-0.4486 0.19333,-0.1933 0.0924,0.231 0.0811,0.507 -0.0253,0.6133 -0.10634,0.1063 -0.18197,-0.083 -0.16807,-0.42 z m 0.32,-3.84 c 0.0153,-0.3728 0.0912,-0.4486 0.19333,-0.1933 0.0924,0.231 0.0811,0.507 -0.0253,0.6133 -0.10634,0.1063 -0.18197,-0.083 -0.16807,-0.42 z m -34.24,-2.56 c 0.0154,-0.3728 0.0912,-0.4486 0.19333,-0.1933 0.0924,0.231 0.0811,0.507 -0.0253,0.6133 -0.10634,0.1063 -0.18197,-0.083 -0.16807,-0.42 z m -25.6,-0.32 c 0.0153,-0.3728 0.0912,-0.4486 0.19333,-0.1933 0.0924,0.231 0.0811,0.507 -0.0253,0.6133 -0.10633,0.1063 -0.18197,-0.083 -0.16807,-0.42 z m 60.16,-1.6 c 0.0153,-0.3728 0.0912,-0.4486 0.19333,-0.1933 0.0924,0.231 0.0811,0.507 -0.0253,0.6133 -0.10634,0.1063 -0.18197,-0.083 -0.16807,-0.42 z m -94.4,-0.64 c 0.0154,-0.3728 0.0912,-0.4486 0.19333,-0.1933 0.0924,0.231 0.0811,0.507 -0.0253,0.6133 -0.10633,0.1063 -0.18196,-0.083 -0.16807,-0.42 z m 34.58526,-1.7333 c 0,-0.44 0.0726,-0.62 0.16141,-0.4 0.0888,0.22 0.0888,0.5799 0,0.8 -0.0888,0.22 -0.16141,0.04 -0.16141,-0.4 z m 25.6,-0.32 c 0,-0.44 0.0726,-0.62 0.1614,-0.4 0.0888,0.22 0.0888,0.58 0,0.8 -0.0888,0.22 -0.1614,0.04 -0.1614,-0.4 z m -59.84,-1.92 c 0,-0.44 0.0726,-0.62 0.16141,-0.4 0.0888,0.22 0.0888,0.5799 0,0.7999 -0.0888,0.2201 -0.16141,0.04 -0.16141,-0.3999 z m -25.62526,-0.1867 c 0.0154,-0.3728 0.0912,-0.4486 0.19334,-0.1933 0.0924,0.231 0.0811,0.507 -0.0253,0.6133 -0.10633,0.1063 -0.18196,-0.083 -0.16807,-0.42 z m 120.05543,-1.8933 c 0.004,-0.704 0.0691,-0.9543 0.14563,-0.5563 0.0765,0.3981 0.0736,0.9741 -0.006,1.28 -0.0801,0.306 -0.14272,-0.02 -0.13917,-0.7237 z m -59.84,-1.92 c 0.004,-0.704 0.0691,-0.9543 0.14563,-0.5563 0.0765,0.3981 0.0736,0.9741 -0.006,1.28 -0.0801,0.306 -0.14272,-0.02 -0.13917,-0.7237 z m 25.62173,-2.08 c 0,-1.144 0.0581,-1.612 0.12906,-1.04 0.071,0.572 0.071,1.508 0,2.08 -0.071,0.572 -0.12906,0.104 -0.12906,-1.04 z m -85.46172,0.48 c 0.004,-0.704 0.0691,-0.9543 0.14562,-0.5563 0.0765,0.3981 0.0736,0.9741 -0.006,1.28 -0.0801,0.306 -0.14271,-0.02 -0.13916,-0.7237 z m 25.63111,-2.72 c 0,-1.496 0.0551,-2.108 0.12249,-1.36 0.0674,0.748 0.0674,1.972 0,2.72 -0.0674,0.748 -0.12249,0.136 -0.12249,-1.36 z m 40.58687,-2.7996 c 3.46428,-0.052 9.22428,-0.052 12.8,-10e-5 3.57572,0.052 0.74131,0.094 -6.29869,0.094 -7.03999,10e-5 -9.96559,-0.042 -6.50131,-0.094 z"
         id="path21" /><path
         style="fill:#8cb5d0"
         d="m -368.79977,-563.59324 c 0.31856,-0.352 0.6512,-0.64 0.7392,-0.64 0.088,0 -0.10064,0.288 -0.4192,0.64 -0.31855,0.352 -0.65119,0.64 -0.73919,0.64 -0.088,0 0.10064,-0.288 0.41919,-0.64 z m -8.8,-5.88082 c 0,-0.0665 0.252,-0.31845 0.56,-0.56 0.50754,-0.39804 0.51886,-0.38672 0.12082,0.12082 -0.41804,0.53304 -0.68082,0.70255 -0.68082,0.43918 z m 6.8496,-32.91918 -0.6096,-0.72 0.72,0.6096 c 0.67663,0.57287 0.86568,0.8304 0.6096,0.8304 -0.0607,0 -0.38472,-0.324 -0.72,-0.72 z m 307.029569,0.16 c -0.398038,-0.50754 -0.38672,-0.51886 0.120818,-0.12082 0.308,0.24155 0.56,0.49355 0.56,0.56 0,0.26337 -0.262779,0.0939 -0.680818,-0.43918 z m -14.999181,-38.32 c 0.59705,-0.616 1.157546,-1.12 1.245546,-1.12 0.088,0 -0.328496,0.504 -0.925546,1.12 -0.597051,0.616 -1.157547,1.12 -1.245547,1.12 -0.088,0 0.328496,-0.504 0.925547,-1.12 z m -292.319988,-15.2 c 0.31856,-0.352 0.6512,-0.64 0.7392,-0.64 0.088,0 -0.10064,0.288 -0.4192,0.64 -0.31855,0.352 -0.65119,0.64 -0.73919,0.64 -0.088,0 0.10064,-0.288 0.41919,-0.64 z m 61.0896,-20.88 -0.6096,-0.72 0.72,0.6096 c 0.67662,0.57287 0.86568,0.8304 0.6096,0.8304 -0.0607,0 -0.38473,-0.324 -0.72,-0.72 z m -50.3696,-38.16 c 0.41336,-0.44 0.82356,-0.8 0.91156,-0.8 0.088,0 -0.1782,0.36 -0.59156,0.8 -0.41336,0.44 -0.82356,0.8 -0.91156,0.8 -0.088,0 0.1782,-0.36 0.59156,-0.8 z m -45.48081,-0.72 c -0.39804,-0.50754 -0.38672,-0.51885 0.12082,-0.12082 0.53303,0.41804 0.70255,0.68082 0.43918,0.68082 -0.0664,0 -0.31845,-0.252 -0.56,-0.56 z m 288.3608,-27.40082 c 0,-0.0665 0.252,-0.31845 0.56,-0.56 0.50754,-0.39803 0.51886,-0.38672 0.12082,0.12082 -0.41804,0.53304 -0.68082,0.70256 -0.68082,0.43918 z m 36.775778,-6.51918 -0.77578,-0.88 0.88,0.77578 c 0.822492,0.72509 1.026748,0.98422 0.77578,0.98422 -0.05732,0 -0.45332,-0.396 -0.88,-0.88 z m -178.215768,-18.12081 c 0,-0.0665 0.252,-0.31845 0.56,-0.56 0.50754,-0.39804 0.51885,-0.38672 0.12081,0.12081 -0.41803,0.53304 -0.68081,0.70256 -0.68081,0.43919 z m -23.21206,-67.15919 c -0.0836,-0.22 -0.11476,-33.376 -0.0693,-73.67999 l 0.0827,-73.28 0.0793,73.51652 0.0793,73.51653 13.52,0.087 13.52,0.087 -13.53005,0.0764 c -10.58641,0.0598 -13.5631,-0.0106 -13.68201,-0.32357 z m 146.75731,-14.18666 c 0.0154,-0.37278 0.0912,-0.44861 0.19334,-0.19334 0.0924,0.231 0.0811,0.507 -0.0253,0.61334 -0.10633,0.10633 -0.18196,-0.0827 -0.16807,-0.42 z m -26.76981,-28.13334 c 2.6e-4,-3.696 0.0468,-5.16417 0.10352,-3.2626 0.0567,1.90156 0.0565,4.92556 -4.8e-4,6.72 -0.0569,1.79443 -0.1033,0.2386 -0.10304,-3.4574 z m 0.32,-52.47999 c 2.6e-4,-3.696 0.0468,-5.16418 0.10352,-3.26261 0.0567,1.90156 0.0565,4.92556 -4.8e-4,6.72 -0.0569,1.79443 -0.1033,0.23861 -0.10304,-3.45739 z m 61.46455,2.08 c 0.31855,-0.352 0.651191,-0.64 0.739191,-0.64 0.088,0 -0.100637,0.288 -0.419192,0.64 -0.318559,0.352 -0.651189,0.64 -0.739189,0.64 -0.088,0 0.10063,-0.288 0.41919,-0.64 z m 6.079999,-6.08 c 0.318555,-0.352 0.651192,-0.64 0.739192,-0.64 0.088,0 -0.100637,0.288 -0.419192,0.64 -0.318556,0.352 -0.651192,0.64 -0.739192,0.64 -0.088,0 0.100636,-0.288 0.419192,-0.64 z m -23.839999,-12 c 0.41336,-0.44 0.82356,-0.8 0.91156,-0.8 0.088,0 -0.1782,0.36 -0.59156,0.8 -0.41336,0.44 -0.82356,0.8 -0.91156,0.8 -0.088,0 0.1782,-0.36 0.59156,-0.8 z m 5.44,-5.44 c 0.41336,-0.44 0.82356,-0.8 0.91156,-0.8 0.088,0 -0.1782,0.36 -0.59156,0.8 -0.41336,0.44 -0.82356,0.8 -0.91156,0.8 -0.088,0 0.1782,-0.36 0.59156,-0.8 z m 3.84,-3.48082 c 0,-0.0665 0.252,-0.31845 0.56,-0.56 0.50754,-0.39804 0.51886,-0.38672 0.12082,0.12082 -0.41804,0.53304 -0.68082,0.70255 -0.68082,0.43918 z m 93.379994,-14.49778 c 0.231,-0.0924 0.507,-0.0811 0.613334,0.0253 0.106333,0.10634 -0.08267,0.18197 -0.42,0.16807 -0.372782,-0.0154 -0.448608,-0.0912 -0.193334,-0.19333 z m 4.30609,-0.32316 c 0.31135,-0.0811 0.74335,-0.0758 0.96,0.0119 0.2166507,0.0876 -0.03809,0.15403 -0.56609,0.14751 -0.528,-0.007 -0.705259,-0.0782 -0.39391,-0.15937 z m 7.7397375,-12.73824 c 8.65e-5,-7.04 0.042323,-9.87441 0.093858,-6.29869 0.051536,3.57572 0.051465,9.33572 -1.573e-4,12.8 -0.051622,3.46428 -0.093788,0.53869 -0.093701,-6.50131 z m -158.0903715,0 c 2.6e-4,-3.696 0.0468,-5.16418 0.10352,-3.26261 0.0567,1.90157 0.0565,4.92557 -4.8e-4,6.72 -0.0569,1.79443 -0.1033,0.23861 -0.10304,-3.45739 z m 141.884545,-11.8986 c 0.231,-0.0924 0.507,-0.0811 0.613333,0.0253 0.106333,0.10634 -0.08267,0.18197 -0.42,0.16807 -0.372782,-0.0154 -0.448608,-0.0912 -0.193333,-0.19333 z m 3.519999,-0.32 c 0.231,-0.0924 0.507,-0.0811 0.613334,0.0253 0.106333,0.10634 -0.08267,0.18197 -0.42,0.16807 -0.372782,-0.0154 -0.448608,-0.0912 -0.193334,-0.19333 z m 4.94,-0.32199 c 0.308,-0.0805 0.812,-0.0805 1.1200001,0 0.308,0.0805 0.056,0.14635 -0.5600001,0.14635 -0.616,0 -0.868,-0.0659 -0.56,-0.14635 z m -123.848974,-29.29938 c 0.0391,-7.612 0.11059,-11.68 0.15895,-9.04 0.22362,12.2075 0.2283,22.8803 0.01,22.8802 -0.132,-10e-5 -0.20804,-6.2282 -0.16898,-13.8402 z m 111.228975,-3.6586 c 0.231,-0.092 0.507,-0.081 0.613333,0.025 0.106333,0.1064 -0.08267,0.182 -0.42,0.1681 -0.372782,-0.015 -0.448608,-0.091 -0.193333,-0.1933 z m 3.52,-0.32 c 0.231,-0.092 0.507,-0.081 0.613333,0.025 0.106333,0.1064 -0.08267,0.182 -0.42,0.1681 -0.372782,-0.015 -0.448608,-0.091 -0.193333,-0.1933 z m 4.139999,-0.3134 c 0.22,-0.089 0.58,-0.089 0.8,0 0.22,0.089 0.04,0.1614 -0.4,0.1614 -0.44,0 -0.62,-0.073 -0.4,-0.1614 z m -145.065014,-6.508 c 0,-3.608 0.0467,-5.084 0.1037,-3.28 0.057,1.804 0.057,4.756 0,6.56 -0.057,1.804 -0.1037,0.328 -0.1037,-3.28 z m 151.949414,6.1703 c 0.4864199,-0.073 1.2064199,-0.072 1.5999999,0 0.39358,0.076 -0.0044,0.1361 -0.8843999,0.1337 -0.8799999,0 -1.20202,-0.064 -0.7156,-0.1381 z m 5.7516833,-12.4779 -0.076084,-12.5475 -2.7999999,-0.1067 -2.7999998,-0.1066 2.8100429,-0.066 c 2.0068031,-0.047 2.854016,0.049 2.9638775,0.3351 0.084609,0.2204 0.1143272,5.9444 0.06604,12.72 l -0.087794,12.3191 z m -231.2760673,-7.1324 c 1.57666,-1.584 2.93865,-2.88 3.02665,-2.88 0.088,0 -1.12999,1.296 -2.70665,2.88 -1.57666,1.584 -2.93866,2.88 -3.02666,2.88 -0.088,0 1.13,-1.296 2.70666,-2.88 z m 210.019985,-4.6986 c 0.231,-0.092 0.507,-0.081 0.613333,0.025 0.106334,0.1064 -0.08267,0.182 -0.42,0.1681 -0.372782,-0.015 -0.448608,-0.091 -0.193333,-0.1933 z m 3.84,-0.32 c 0.231,-0.092 0.507,-0.081 0.613333,0.025 0.106333,0.1064 -0.08267,0.182 -0.42,0.1681 -0.372782,-0.015 -0.448608,-0.091 -0.193333,-0.1933 z m 4.459999,-0.3134 c 0.22,-0.089 0.58,-0.089 0.8,0 0.22,0.089 0.04,0.1614 -0.4,0.1614 -0.44,0 -0.62,-0.073 -0.4,-0.1614 z m -242.959984,-18.348 c 1.75339,-1.76 3.25999,-3.2 3.34799,-3.2 0.088,0 -1.2746,1.44 -3.02799,3.2 -1.7534,1.76 -3.26,3.2 -3.348,3.2 -0.088,0 1.2746,-1.44 3.028,-3.2 z m 98.53544,-15.52 c 2.6e-4,-3.696 0.0468,-5.1642 0.10352,-3.2626 0.0567,1.9015 0.0565,4.9255 -4.8e-4,6.72 -0.0569,1.7944 -0.1033,0.2386 -0.10304,-3.4574 z m -122.05544,2.9192 c 0,-0.066 0.252,-0.3185 0.56,-0.56 0.50754,-0.3981 0.51885,-0.3868 0.12082,0.1208 -0.41804,0.533 -0.68082,0.7025 -0.68082,0.4392 z m 253.379985,-3.6178 c 0.231,-0.092 0.507,-0.081 0.613333,0.025 0.106334,0.1064 -0.08267,0.182 -0.42,0.1681 -0.372781,-0.015 -0.448607,-0.091 -0.193333,-0.1933 z m 7.36,-0.64 c 0.231,-0.093 0.507,-0.081 0.613333,0.025 0.106333,0.1064 -0.08267,0.182 -0.42,0.1681 -0.372782,-0.015 -0.448608,-0.091 -0.193333,-0.1933 z m 4.94609,-0.3232 c 0.311349,-0.081 0.743349,-0.076 0.96,0.012 0.21665,0.088 -0.03809,0.154 -0.566091,0.1475 -0.528,-0.01 -0.705259,-0.078 -0.393909,-0.1594 z m 10.8739089,-0.3322 2.7999999,-0.11 v -12.4528 -12.4527 l -1.9999999,-0.1223 -1.9999999,-0.1222 2.0799999,0.027 2.0799998,0.027 v 12.64 12.64 l -2.8799998,0.018 -2.8799998,0.018 z m -266.6399839,-5.0068 c 0,-0.067 0.252,-0.3185 0.56,-0.56 0.50754,-0.3981 0.51885,-0.3868 0.12082,0.1208 -0.41804,0.533 -0.68082,0.7025 -0.68082,0.4392 z m 250.499985,-19.6178 c 0.231,-0.092 0.507,-0.081 0.613333,0.025 0.106333,0.1064 -0.08267,0.182 -0.42,0.1681 -0.372782,-0.015 -0.448608,-0.091 -0.193333,-0.1933 z m 5.58609,-0.3232 c 0.311349,-0.081 0.743349,-0.076 0.96,0.012 0.21665,0.088 -0.03809,0.154 -0.566091,0.1475 -0.528,-0.01 -0.705259,-0.078 -0.393909,-0.1594 z m -280.726075,-4.379 c 0,-0.066 0.252,-0.3185 0.56,-0.56 0.50754,-0.3981 0.51886,-0.3868 0.12082,0.1208 -0.41804,0.533 -0.68082,0.7025 -0.68082,0.4392 z m -21.77337,-14.0392 c 0.78464,-0.836 1.46864,-1.52 1.52,-1.52 0.24028,0 -0.0138,0.2873 -1.42663,1.6133 l -1.52,1.4267 z m 184.80323,-34 c -4e-5,-10.208 0.0404,-14.4303 0.0899,-9.3829 0.0495,5.0475 0.0495,13.3995 8e-5,18.56 -0.0495,5.1606 -0.0899,1.0309 -0.09,-9.1771 z m -0.86987,-58.292 c 0.22,-0.089 0.58,-0.089 0.8,0 0.22,0.089 0.04,0.1614 -0.4,0.1614 -0.44,0 -0.62,-0.073 -0.4,-0.1614 z"
         id="path20" /><path
         style="fill:#63adde"
         d="m -135.24453,-888.07323 c 0.0246,-21.384 0.0893,-38.26151 0.14385,-37.50558 l 0.0991,1.37443 2.07705,-2.93454 c 19.70135,-27.83486 46.769476,-48.17335 78.51445,-58.9943 14.479842,-4.93577 29.487538,-7.69365 45.530284,-8.36687 l 5.3599998,-0.22492 v 12.63613 12.63613 l -5.5199997,0.19532 c -32.6324101,1.1547 -64.5321511,15.18865 -88.1038471,38.76034 -18.926357,18.92636 -31.388567,42.48089 -36.413267,68.82385 -0.68668,3.60007 -0.99269,5.76047 -1.60909,11.36 -0.0678,0.616 -0.10315,-16.376 -0.0785,-37.75999 z m -26.8598,24.15999 c 2.6e-4,-3.696 0.0468,-5.16417 0.10352,-3.2626 0.0567,1.90156 0.0565,4.92556 -4.8e-4,6.72 -0.0569,1.79443 -0.1033,0.2386 -0.10304,-3.4574 z m 0.32,-52.47999 c 2.6e-4,-3.696 0.0468,-5.16418 0.10352,-3.26261 0.0567,1.90156 0.0565,4.92556 -4.8e-4,6.72 -0.0569,1.79443 -0.1033,0.23861 -0.10304,-3.45739 z m 0.32,-52.48 c 2.6e-4,-3.696 0.0468,-5.16418 0.10352,-3.26261 0.0567,1.90156 0.0565,4.92556 -4.8e-4,6.72 -0.0569,1.79443 -0.1033,0.23861 -0.10304,-3.45739 z m 26.42771,-24.37434 0.003,-16.58563 4.55683,-3.2361 c 6.34002,-4.5025 8.53197,-5.9385 15.01706,-9.8379 31.225179,-18.7753 68.354233,-29.6337 104.339774,-30.5139 l 7.5999998,-0.1859 v 12.4812 12.4812 l -5.6799997,0.2223 c -29.5750981,1.1573 -55.3591141,7.6538 -80.6750261,20.3266 -15.935268,7.9769 -32.170148,19.11813 -43.484968,29.84159 l -1.68,1.5922 z m -26.10723,-28.26563 c 0,-3.784 0.0463,-5.332 0.10286,-3.44 0.0566,1.892 0.0566,4.988 0,6.88 -0.0566,1.892 -0.10286,0.344 -0.10286,-3.44 z m 26.24169,-23.36 c 0,-4.136 0.0456,-5.828 0.10135,-3.76 0.0557,2.068 0.0557,5.452 0,7.52 -0.0557,2.068 -0.10135,0.376 -0.10135,-3.76 z m 0.18238,-22.5036 v -14.5035 l 7.92,-3.8706 c 15.99143,-7.8153 30.67641,-13.4848 46.560022,-17.9756 23.405636,-6.6176 50.322955,-10.5867 71.7954701,-10.5867 h 4.9245017 v 12.48 12.48 h -1.52 c -3.6633416,0.01 -16.3823498,0.6869 -21.3599988,1.1364 -36.320568,3.2791 -71.736961,14.4363 -103.121195,32.4859 -2.72883,1.5694 -5.01491,2.8535 -5.08016,2.8535 -0.0653,0 -0.11864,-6.5266 -0.11864,-14.5036 z m -26.10455,-6.7764 c 2.6e-4,-3.696 0.0468,-5.1642 0.10352,-3.2626 0.0567,1.9015 0.0565,4.9255 -4.8e-4,6.72 -0.0569,1.7944 -0.1033,0.2386 -0.10304,-3.4574 z m 26.2545,-129.44 c 0,-10.296 0.0404,-14.508 0.0899,-9.36 0.0494,5.148 0.0494,13.572 0,18.72 -0.0494,5.148 -0.0899,0.936 -0.0899,-9.36 z"
         id="path19" /><path
         style="fill:#7c95a0"
         d="m -382.13977,-558.69184 c 0.231,-0.0924 0.507,-0.0811 0.61334,0.0253 0.10633,0.10633 -0.0827,0.18196 -0.42,0.16807 -0.37278,-0.0154 -0.44861,-0.0912 -0.19334,-0.19334 z m 210.10534,-4.2614 c 0,-2.376 0.0504,-3.348 0.11195,-2.16 0.0616,1.188 0.0616,3.132 0,4.32 -0.0616,1.188 -0.11195,0.216 -0.11195,-2.16 z m 21.46295,-11.52 c 0,-8.712 0.0412,-12.276 0.0914,-7.92 0.0503,4.356 0.0503,11.484 0,15.84 -0.0503,4.356 -0.0914,0.792 -0.0914,-7.92 z m 87.851697,11.39918 c 0,-0.0664 0.252,-0.31845 0.56,-0.56 0.507538,-0.39804 0.518856,-0.38672 0.120818,0.12082 -0.418039,0.53304 -0.680818,0.70255 -0.680818,0.43918 z m -18.319999,-2.97111 c 0.22,-0.0888 0.58,-0.0888 0.8,0 0.22,0.0888 0.04,0.1614 -0.4,0.1614 -0.44,0 -0.62,-0.0726 -0.4,-0.1614 z m 2.56,0 c 0.22,-0.0888 0.58,-0.0888 0.8,0 0.22,0.0888 0.04,0.1614 -0.4,0.1614 -0.44,0 -0.62,-0.0726 -0.4,-0.1614 z m -320.746598,-6.98807 c 3.1e-4,-3.344 0.0477,-4.66852 0.10538,-2.94338 0.0576,1.72514 0.0574,4.46114 -5.6e-4,6.08 -0.058,1.61886 -0.10513,0.20738 -0.10482,-3.13662 z m 264.14578,0.56 c -0.39804,-0.50754 -0.38672,-0.51886 0.12082,-0.12082 0.308,0.24155 0.56,0.49355 0.56,0.56 0,0.26337 -0.26278,0.0939 -0.68082,-0.43918 z m 64.96,-2.56 c -0.398039,-0.50754 -0.38672,-0.51886 0.120817,-0.12082 0.308,0.24155 0.56,0.49355 0.56,0.56 0,0.26337 -0.262779,0.0939 -0.680817,-0.43918 z m -104.20963,-8.15645 -0.0695,-4.39645 -13.2,-0.0872 -13.2,-0.0872 13.21005,-0.0764 c 10.6134,-0.0613 13.24149,0.006 13.37003,0.34057 0.088,0.22931 0.11477,2.28131 0.0595,4.56 l -0.10048,4.14308 z m 112.849629,2.39645 c -0.398038,-0.50754 -0.38672,-0.51886 0.120818,-0.12082 0.533039,0.41804 0.702553,0.68082 0.439182,0.68082 -0.06645,0 -0.31845,-0.252 -0.56,-0.56 z m -337.737249,-6.57175 c -0.0869,-0.22646 -0.11466,-2.85446 -0.0617,-5.84 l 0.0963,-5.42825 0.0717,5.67323 0.0717,5.67324 6.32,0.0939 6.32,0.0939 -6.33004,0.0728 c -4.91847,0.0566 -6.36528,-0.019 -6.48804,-0.33891 z m 119.15983,0.17201 c 3.92796,-0.0509 10.26396,-0.0509 14.08,1.3e-4 3.81604,0.051 0.60225,0.0927 -7.14175,0.0926 -7.744,-8e-5 -10.86621,-0.0418 -6.93825,-0.0928 z m 248.959776,-0.63997 c 3.751848,-0.0512 9.799847,-0.0512 13.44,1.4e-4 3.640152,0.0513 0.570458,0.0932 -6.821541,0.0931 -7.392,-8e-5 -10.370306,-0.0421 -6.618459,-0.0933 z m -58.771011,-6.80029 c 0,-0.44 0.07263,-0.62 0.161403,-0.4 0.08877,0.22 0.08877,0.58 0,0.8 -0.08877,0.22 -0.161403,0.04 -0.161403,-0.4 z m -289.371325,-1.52 c -0.39804,-0.50754 -0.38672,-0.51886 0.12081,-0.12082 0.53304,0.41804 0.70256,0.68082 0.43919,0.68082 -0.0664,0 -0.31845,-0.252 -0.56,-0.56 z m 308.010393,-0.16 -0.609596,-0.72 0.72,0.6096 c 0.396,0.33527 0.72,0.65927 0.72,0.72 0,0.25608 -0.257534,0.067 -0.830404,-0.6096 z m -11.069595,-3.3386 c 0.231,-0.0924 0.507,-0.0811 0.613333,0.0253 0.106334,0.10633 -0.08267,0.18196 -0.42,0.16807 -0.372781,-0.0154 -0.448608,-0.0912 -0.193333,-0.19334 z m -299.519988,-7.36 c 0.231,-0.0924 0.507,-0.0811 0.61334,0.0253 0.10633,0.10633 -0.0827,0.18196 -0.42,0.16807 -0.37278,-0.0154 -0.44861,-0.0912 -0.19334,-0.19334 z m -22.34557,-26.25677 4.79515,-0.10124 0.0934,-8.5517 0.0934,-8.55169 -0.008,8.64 -0.008,8.64 -4.88036,0.0129 -4.88036,0.0129 z m 56.15278,-0.16463 c -0.084,-0.22 -0.11454,-11.2 -0.0679,-24.4 l 0.0848,-24 0.0779,24.23167 0.0779,24.23166 4.88,0.0973 4.88,0.0973 -4.89004,0.071 c -3.67093,0.0533 -4.92811,-0.0287 -5.04275,-0.32898 z m 35.1485,0.16151 c 1.54864,-0.0588 3.99664,-0.0585 5.44,6.7e-4 1.44336,0.0592 0.17629,0.10725 -2.81571,0.10688 -2.992,-3.7e-4 -4.17293,-0.0488 -2.62429,-0.10755 z m 30.06429,6.3e-4 c 1.364,-0.06 3.596,-0.06 4.96,0 1.364,0.06 0.248,0.10906 -2.48,0.10906 -2.728,0 -3.844,-0.0491 -2.48,-0.10906 z m 49.90381,-1.7e-4 c 1.5311,-0.0585 4.1231,-0.0588 5.76,-6.1e-4 1.6369,0.0582 0.38419,0.10609 -2.78381,0.10642 -3.168,3.4e-4 -4.50729,-0.0473 -2.97619,-0.10581 z m 39.29618,0.0218 c 4.28559,-0.2318 8.56841,-0.24388 8.43151,-0.0238 -0.0821,0.132 -2.40878,0.21277 -5.17039,0.17949 -2.76161,-0.0333 -4.22912,-0.10334 -3.26112,-0.1557 z m 46.64,-0.0219 c 1.452,-0.0593 3.828,-0.0593 5.28,0 1.452,0.0593 0.264,0.10781 -2.64,0.10781 -2.904,0 -4.092,-0.0485 -2.64,-0.10781 z m 31.22093,-0.002 c 3.31151,-0.0521 8.63951,-0.052 11.84,1.8e-4 3.20049,0.0522 0.49107,0.0947 -6.02093,0.0946 -6.512,-10e-5 -9.13058,-0.0428 -5.81907,-0.0948 z m 57.819067,0.0234 c 4.285589,-0.2318 8.568402,-0.24388 8.431506,-0.0238 -0.0821,0.132 -2.408779,0.21277 -5.170392,0.17949 -2.761613,-0.0333 -4.229114,-0.10334 -3.261114,-0.1557 z m 44.048525,-0.0238 c -0.08208,-0.132 1.457418,-0.20223 3.421114,-0.15608 6.4726856,0.15215 7.1669354,0.27417 1.9092435,0.33557 -2.8496125,0.0333 -5.2482735,-0.0475 -5.3303575,-0.17949 z m -97.981882,-8.8 c -0.0843,-0.22 -0.11436,-7.384 -0.0668,-15.92 l 0.0865,-15.52 0.0769,15.75364 0.0769,15.75363 6.8,0.0931 6.799999,0.0931 -6.810039,0.0733 c -5.20801,0.0561 -6.8461,-0.0208 -6.96332,-0.32671 z m -272.20663,-8.4586 c 0.231,-0.0924 0.507,-0.0811 0.61334,0.0253 0.10633,0.10633 -0.0827,0.18196 -0.42,0.16807 -0.37278,-0.0154 -0.44861,-0.0912 -0.19334,-0.19334 z m 212.93999,-4.50037 c 2.068,-0.0557 5.452,-0.0557 7.52,0 2.068,0.0557 0.376,0.10135 -3.76,0.10135 -4.136,0 -5.828,-0.0456 -3.76,-0.10135 z m 135.679995,0 c 2.068,-0.0557 5.452,-0.0557 7.52,0 2.068,0.0557 0.376,0.10135 -3.76,0.10135 -4.136,0 -5.827999,-0.0456 -3.76,-0.10135 z m -363.776735,-4.6493 c -0.0862,-0.22455 -0.11456,-3.42855 -0.0631,-7.12 l 0.0936,-6.71173 0.0731,6.95338 0.0731,6.95337 6.48,0.0936 6.48,0.0936 -6.49004,0.073 c -5.02076,0.0565 -6.52551,-0.0194 -6.64671,-0.33528 z m 12.59675,-13.57033 c 0.231,-0.0924 0.507,-0.0811 0.61334,0.0253 0.10633,0.10633 -0.0827,0.18196 -0.42,0.16807 -0.37278,-0.0154 -0.44861,-0.0912 -0.19334,-0.19334 z m 287.186079,-0.003 c 0.31135,-0.0811 0.74335,-0.0758 0.96,0.0119 0.21665,0.0877 -0.03809,0.15404 -0.56609,0.14752 -0.528,-0.007 -0.70526,-0.0782 -0.39391,-0.15938 z m -286.079989,-8.64 c 0.31135,-0.0811 0.74335,-0.0758 0.96,0.0119 0.21665,0.0877 -0.0381,0.15404 -0.56609,0.14752 -0.528,-0.007 -0.70526,-0.0782 -0.39391,-0.15938 z m 60.8,0 c 0.31135,-0.0811 0.74335,-0.0758 0.96,0.0119 0.21665,0.0877 -0.0381,0.15404 -0.56609,0.14752 -0.528,-0.007 -0.70526,-0.0782 -0.39391,-0.15938 z m 226.553899,10e-4 c 0.308,-0.0805 0.812,-0.0805 1.12,0 0.308,0.0805 0.056,0.14634 -0.56,0.14634 -0.616,0 -0.868,-0.0658 -0.56,-0.14634 z m -288.779989,-25.27801 c 0.231,-0.0924 0.507,-0.0811 0.61334,0.0253 0.10633,0.10633 -0.0827,0.18196 -0.42,0.16807 -0.37278,-0.0154 -0.44861,-0.0912 -0.19334,-0.19333 z m 8.96,0 c 0.231,-0.0924 0.507,-0.0811 0.61334,0.0253 0.10633,0.10633 -0.0827,0.18196 -0.42,0.16807 -0.37278,-0.0154 -0.44861,-0.0912 -0.19334,-0.19333 z m 271.67999,0 c 0.231,-0.0924 0.507,-0.0811 0.61333,0.0253 0.10634,0.10633 -0.0827,0.18196 -0.42,0.16807 -0.37278,-0.0154 -0.44861,-0.0912 -0.19333,-0.19333 z m -123.31159,-16.58141 c 5e-5,-8.8 0.0412,-12.35397 0.0914,-7.89771 0.0502,4.45626 0.0502,11.65626 -1e-4,16 -0.0503,4.34374 -0.0914,0.69771 -0.0913,-8.10229 z m 74.56376,-8.48 c 0,-13.464 0.0395,-18.972 0.0877,-12.24 0.0482,6.732 0.0482,17.748 0,24.48 -0.0482,6.732 -0.0877,1.224 -0.0877,-12.24 z m -51.07298,19.28 c -0.39804,-0.50754 -0.38672,-0.51885 0.12081,-0.12082 0.53304,0.41804 0.70256,0.68082 0.43919,0.68082 -0.0665,0 -0.31845,-0.252 -0.56,-0.56 z m 81.14068,-2.4 -0.93987,-1.04 1.04,0.93987 c 0.572,0.51693 1.04,0.98493 1.04,1.04 0,0.24722 -0.26404,0.0296 -1.14013,-0.93987 z m -259.41986,-0.45193 c 0.22,-0.0888 0.58,-0.0888 0.8,0 0.22,0.0888 0.04,0.16141 -0.4,0.16141 -0.44,0 -0.62,-0.0726 -0.4,-0.16141 z m 3.84,0 c 0.22,-0.0888 0.58,-0.0888 0.8,0 0.22,0.0888 0.04,0.16141 -0.4,0.16141 -0.44,0 -0.62,-0.0726 -0.4,-0.16141 z m 276.79999,0 c 0.22,-0.0888 0.58,-0.0888 0.8,0 0.22,0.0888 0.04,0.16141 -0.4,0.16141 -0.44,0 -0.62,-0.0726 -0.4,-0.16141 z m 3.839999,0 c 0.22,-0.0888 0.58,-0.0888 0.8,0 0.22,0.0888 0.04,0.16141 -0.4,0.16141 -0.44,0 -0.619999,-0.0726 -0.4,-0.16141 z m -111.640809,-3.22807 c -0.39804,-0.50754 -0.38672,-0.51885 0.12081,-0.12082 0.53304,0.41804 0.70256,0.68082 0.43919,0.68082 -0.0665,0 -0.31845,-0.252 -0.56,-0.56 z m 124.680808,-2 c 0.318556,-0.352 0.651192,-0.64 0.739192,-0.64 0.088,0 -0.100636,0.288 -0.419192,0.64 -0.318555,0.352 -0.651192,0.64 -0.739192,0.64 -0.088,0 0.100637,-0.288 0.419192,-0.64 z m -130.120808,-4.08 c -0.39804,-0.50754 -0.38672,-0.51885 0.12082,-0.12082 0.308,0.24155 0.56,0.49355 0.56,0.56 0,0.26338 -0.26278,0.0939 -0.68082,-0.43918 z m -2.56,-2.88 c -0.39804,-0.50754 -0.38672,-0.51885 0.12082,-0.12082 0.53303,0.41804 0.70255,0.68082 0.43918,0.68082 -0.0665,0 -0.31845,-0.252 -0.56,-0.56 z m 87.74607,-2.18666 c 0.0154,-0.37279 0.0912,-0.44861 0.19334,-0.19334 0.0924,0.231 0.0811,0.507 -0.0253,0.61334 -0.10633,0.10633 -0.18196,-0.0827 -0.16807,-0.42 z m -270.33809,-1.73334 c 0,-0.792 0.0624,-1.116 0.13868,-0.72 0.0763,0.396 0.0763,1.044 0,1.44 -0.0763,0.396 -0.13868,0.072 -0.13868,-0.72 z m -10.23563,-0.48 c 0.002,-0.88 0.0645,-1.20202 0.1381,-0.7156 0.0736,0.48642 0.0716,1.20642 -0.004,1.6 -0.076,0.39358 -0.13613,-0.004 -0.13373,-0.8844 z m 280.57372,-2.26666 c 0.0154,-0.37279 0.0912,-0.44861 0.19334,-0.19334 0.0924,0.231 0.0811,0.507 -0.0253,0.61334 -0.10633,0.10633 -0.18196,-0.0827 -0.16807,-0.42 z m -266.26525,-8.25416 c 0,-0.0665 0.252,-0.31845 0.56,-0.56 0.50754,-0.39803 0.51886,-0.38672 0.12082,0.12082 -0.41804,0.53304 -0.68082,0.70256 -0.68082,0.43918 z m 36.94495,-6.35918 -1.26495,-1.36 1.36,1.26495 c 0.748,0.69571 1.36,1.30771 1.36,1.36 0,0.2421 -0.27867,-1.6e-4 -1.45505,-1.26495 z m -23.88495,0.50141 c 0.231,-0.0924 0.507,-0.0811 0.61334,0.0253 0.10633,0.10633 -0.0827,0.18196 -0.42,0.16807 -0.37278,-0.0154 -0.44861,-0.0912 -0.19334,-0.19333 z m 3.84,0 c 0.231,-0.0924 0.507,-0.0811 0.61334,0.0253 0.10633,0.10633 -0.0827,0.18196 -0.42,0.16807 -0.37278,-0.0154 -0.44861,-0.0912 -0.19334,-0.19333 z m 276.47999,0 c 0.231,-0.0924 0.507,-0.0811 0.61333,0.0253 0.10634,0.10633 -0.0827,0.18196 -0.42,0.16807 -0.37278,-0.0154 -0.44861,-0.0912 -0.19333,-0.19333 z m 4.16,0 c 0.231,-0.0924 0.507,-0.0811 0.613332,0.0253 0.106334,0.10633 -0.08266,0.18196 -0.420002,0.16807 -0.37278,-0.0154 -0.44861,-0.0912 -0.19333,-0.19333 z m -122.54081,-0.66141 c -0.39804,-0.50754 -0.38672,-0.51885 0.12082,-0.12082 0.53303,0.41804 0.70255,0.68082 0.43918,0.68082 -0.0665,0 -0.31845,-0.252 -0.56,-0.56 z m -52.11918,-10.94111 c 0,-0.16561 0.16625,-0.40386 0.36944,-0.52944 0.22536,-0.13928 0.28272,-0.088 0.14708,0.13145 -0.15905,0.25736 0.94282,0.38829 3.87056,0.4599 l 4.09292,0.10011 -4.24,0.0695 c -2.48532,0.0408 -4.24,-0.0551 -4.24,-0.23157 z m 9.92,-1.4197 c 0,-0.0665 0.252,-0.31845 0.56,-0.56 0.50754,-0.39804 0.51885,-0.38673 0.12082,0.12081 -0.41804,0.53304 -0.68082,0.70256 -0.68082,0.43919 z m 3.52,-3.2 c 0,-0.0665 0.252,-0.31845 0.56,-0.56 0.50754,-0.39804 0.51885,-0.38672 0.12082,0.12081 -0.41804,0.53304 -0.68082,0.70256 -0.68082,0.43919 z m -150.15626,-184.10551 c 0.39805,-0.0765 0.97405,-0.0736 1.28,0.006 0.30594,0.0801 -0.0197,0.14272 -0.72373,0.13917 -0.704,-0.004 -0.95433,-0.0691 -0.55627,-0.14563 z m 11.67626,-0.31426 c 0.308,-0.0805 0.812,-0.0805 1.12,0 0.308,0.0805 0.056,0.14635 -0.56,0.14635 -0.616,0 -0.868,-0.0659 -0.56,-0.14635 z m 5.92,-0.31134 c 0.22,-0.0888 0.58,-0.0888 0.8,0 0.22,0.0888 0.04,0.1614 -0.4,0.1614 -0.44,0 -0.62,-0.0726 -0.4,-0.1614 z m 4.5,-0.32667 c 0.231,-0.0924 0.507,-0.0811 0.61334,0.0253 0.10633,0.10634 -0.0827,0.18197 -0.42,0.16807 -0.37278,-0.0153 -0.44861,-0.0912 -0.19334,-0.19333 z m -13.77626,-24.64773 c 0.39805,-0.0765 0.97405,-0.0736 1.28,0.006 0.30594,0.0801 -0.0197,0.14272 -0.72373,0.13917 -0.704,-0.004 -0.95433,-0.0691 -0.55627,-0.14563 z m 6.71626,-0.3056 c 0.22,-0.0888 0.58,-0.0888 0.8,0 0.22,0.0888 0.04,0.1614 -0.4,0.1614 -0.44,0 -0.62,-0.0726 -0.4,-0.1614 z m 4.5,-0.32667 c 0.231,-0.0924 0.507,-0.0811 0.61334,0.0253 0.10633,0.10634 -0.0827,0.18197 -0.42,0.16807 -0.37278,-0.0154 -0.44861,-0.0912 -0.19334,-0.19333 z m 3.84,-0.32 c 0.231,-0.0924 0.507,-0.0811 0.61334,0.0253 0.10633,0.10634 -0.0827,0.18197 -0.42,0.16807 -0.37278,-0.0154 -0.44861,-0.0912 -0.19334,-0.19333 z m -18.09559,-32.65102 c 0.48642,-0.073 1.20642,-0.072 1.6,0 0.39358,0.076 -0.004,0.1361 -0.8844,0.1336 -0.88,0 -1.20202,-0.064 -0.7156,-0.1381 z m 7.19559,-0.3023 c 0.22,-0.089 0.58,-0.089 0.8,0 0.22,0.089 0.04,0.1614 -0.4,0.1614 -0.44,0 -0.62,-0.073 -0.4,-0.1614 z m 4.82,-0.3266 c 0.231,-0.093 0.507,-0.081 0.61334,0.025 0.10633,0.1064 -0.0827,0.182 -0.42,0.1681 -0.37278,-0.015 -0.44861,-0.091 -0.19334,-0.1933 z m 3.52,-0.32 c 0.231,-0.092 0.507,-0.081 0.61334,0.025 0.10633,0.1064 -0.0827,0.182 -0.42,0.168 -0.37278,-0.015 -0.44861,-0.091 -0.19334,-0.1933 z m -20.65559,-24.3312 c 0.48642,-0.073 1.20642,-0.071 1.6,0 0.39358,0.076 -0.004,0.1361 -0.8844,0.1337 -0.88,0 -1.20202,-0.064 -0.7156,-0.138 z m 9.75559,-0.3023 c 0.22,-0.089 0.58,-0.089 0.8,0 0.22,0.089 0.04,0.1614 -0.4,0.1614 -0.44,0 -0.62,-0.073 -0.4,-0.1614 z m 4.82,-0.3266 c 0.231,-0.092 0.507,-0.081 0.61334,0.025 0.10633,0.1064 -0.0827,0.182 -0.42,0.1681 -0.37278,-0.015 -0.44861,-0.091 -0.19334,-0.1933 z m 3.52,-0.32 c 0.231,-0.092 0.507,-0.081 0.61334,0.025 0.10633,0.1064 -0.0827,0.182 -0.42,0.1681 -0.37278,-0.015 -0.44861,-0.091 -0.19334,-0.1933 z m 150.14,-5.0222 c 0,-0.066 0.252,-0.3185 0.56,-0.56 0.50753,-0.3981 0.51885,-0.3868 0.12081,0.1208 -0.41803,0.533 -0.68081,0.7025 -0.68081,0.4392 z m 4.16,-3.8194 c 0,-0.055 0.468,-0.523 1.04,-1.04 l 1.04,-0.9398 -0.93987,1.04 c -0.87609,0.9694 -1.14013,1.1871 -1.14013,0.9398 z m 7.68,-7.68 c 0,-0.055 0.468,-0.523 1.04,-1.04 l 1.04,-0.9398 -0.93987,1.04 c -0.87609,0.9694 -1.14013,1.1871 -1.14013,0.9398 z m -38.08,-10.9006 c 0,-0.067 0.252,-0.3185 0.56,-0.56 0.50754,-0.3981 0.51885,-0.3868 0.12082,0.1208 -0.41804,0.533 -0.68082,0.7025 -0.68082,0.4392 z m 3.2,-2.88 c 0,-0.066 0.252,-0.3185 0.56,-0.56 0.50754,-0.3981 0.51885,-0.3868 0.12082,0.1208 -0.41804,0.533 -0.68082,0.7025 -0.68082,0.4392 z m -139.75999,-4.2598 c 0.308,-0.08 0.812,-0.08 1.12,0 0.308,0.081 0.056,0.1463 -0.56,0.1463 -0.616,0 -0.868,-0.066 -0.56,-0.1463 z m 5.93999,-0.318 c 0.231,-0.092 0.507,-0.081 0.61334,0.025 0.10633,0.1064 -0.0827,0.182 -0.42,0.1681 -0.37278,-0.015 -0.44861,-0.091 -0.19334,-0.1933 z m 3.52,-0.32 c 0.231,-0.092 0.507,-0.081 0.61334,0.025 0.10633,0.1064 -0.0827,0.182 -0.42,0.1681 -0.37278,-0.015 -0.44861,-0.091 -0.19334,-0.1933 z m 143.42,-8.2222 c 0,-0.067 0.252,-0.3185 0.56,-0.56 0.50753,-0.3981 0.51885,-0.3868 0.12081,0.1208 -0.41803,0.533 -0.68081,0.7025 -0.68081,0.4392 z m -30.4,-5.44 c 0,-0.066 0.252,-0.3185 0.56,-0.56 0.50754,-0.3981 0.51885,-0.3868 0.12082,0.1208 -0.41804,0.533 -0.68082,0.7025 -0.68082,0.4392 z m -127.76713,-10.9902 c 0.56807,-0.071 1.57607,-0.072 2.24,0 0.66392,0.069 0.19914,0.1271 -1.03286,0.1286 -1.232,0 -1.77522,-0.055 -1.20714,-0.126 z m 8.66714,-0.3076 c 0.23099,-0.092 0.50699,-0.081 0.61333,0.025 0.10633,0.1064 -0.0827,0.182 -0.42,0.1681 -0.37278,-0.015 -0.44861,-0.091 -0.19333,-0.1933 z m 130.93999,-0.5422 c 0,-0.067 0.252,-0.3185 0.56,-0.56 0.50754,-0.3981 0.51885,-0.3868 0.12082,0.1208 -0.41804,0.533 -0.68082,0.7025 -0.68082,0.4392 z m -36.48,-12.8 c 0,-0.066 0.252,-0.3185 0.56,-0.56 0.50754,-0.3981 0.51886,-0.3868 0.12082,0.1208 -0.41804,0.533 -0.68082,0.7025 -0.68082,0.4392 z m 4.16,-3.8792 c 0.41336,-0.44 0.82356,-0.8 0.91156,-0.8 0.088,0 -0.1782,0.36 -0.59156,0.8 -0.41336,0.44 -0.82356,0.8 -0.91156,0.8 -0.088,0 0.1782,-0.36 0.59156,-0.8 z m 5.76,-5.76 c 0.41336,-0.44 0.82356,-0.8 0.91156,-0.8 0.088,0 -0.1782,0.36 -0.59156,0.8 -0.41336,0.44 -0.82356,0.8 -0.91156,0.8 -0.088,0 0.1782,-0.36 0.59156,-0.8 z m -23.04,-12.8 c 0.41336,-0.44 0.82356,-0.8 0.91156,-0.8 0.088,0 -0.1782,0.36 -0.59156,0.8 -0.41336,0.44 -0.82356,0.8 -0.91156,0.8 -0.088,0 0.1782,-0.36 0.59156,-0.8 z m 4.48,-4.48 c 0.41336,-0.44 0.82356,-0.8 0.91156,-0.8 0.088,0 -0.1782,0.36 -0.59156,0.8 -0.41336,0.44 -0.82356,0.8 -0.91156,0.8 -0.088,0 0.1782,-0.36 0.59156,-0.8 z m 154.93052,-68.96 c 0,-0.44 0.0726,-0.62 0.1614,-0.4 0.0888,0.22 0.0888,0.58 0,0.8 -0.0888,0.22 -0.1614,0.04 -0.1614,-0.4 z m -34.58526,-0.8267 c 0.0153,-0.3728 0.0912,-0.4486 0.19333,-0.1933 0.0924,0.231 0.0811,0.507 -0.0253,0.6133 -0.10634,0.1063 -0.18197,-0.083 -0.16807,-0.42 z m -25.28,-2.24 c 0.0153,-0.3728 0.0912,-0.4486 0.19333,-0.1933 0.0924,0.231 0.0811,0.507 -0.0253,0.6133 -0.10633,0.1063 -0.18197,-0.083 -0.16807,-0.42 z m 60.16,-1.28 c 0.0153,-0.3728 0.0912,-0.4486 0.19333,-0.1933 0.0924,0.231 0.0811,0.507 -0.0253,0.6133 -0.10634,0.1063 -0.18197,-0.083 -0.16807,-0.42 z m -34.56,-0.32 c 0.0154,-0.3728 0.0912,-0.4486 0.19333,-0.1933 0.0924,0.231 0.0811,0.507 -0.0253,0.6133 -0.10634,0.1063 -0.18197,-0.083 -0.16807,-0.42 z m -25.28,-2.24 c 0.0154,-0.3728 0.0912,-0.4486 0.19333,-0.1933 0.0924,0.231 0.0811,0.507 -0.0253,0.6133 -0.10633,0.1063 -0.18197,-0.083 -0.16807,-0.42 z m -34.56,-0.32 c 0.0154,-0.3728 0.0912,-0.4486 0.19333,-0.1933 0.0924,0.231 0.0811,0.507 -0.0253,0.6133 -0.10633,0.1063 -0.18196,-0.083 -0.16807,-0.42 z m -25.28,-2.24 c 0.0154,-0.3728 0.0912,-0.4486 0.19334,-0.1933 0.0924,0.231 0.0811,0.507 -0.0253,0.6133 -0.10633,0.1063 -0.18196,-0.083 -0.16807,-0.42 z m 85.47712,-0.2933 c 0.007,-0.528 0.0782,-0.7053 0.15937,-0.3939 0.0811,0.3113 0.0758,0.7433 -0.0119,0.96 -0.0876,0.2166 -0.15403,-0.038 -0.14751,-0.5661 z m 34.57185,-0.48 c 0,-0.616 0.0659,-0.868 0.14635,-0.56 0.0805,0.308 0.0805,0.812 0,1.12 -0.0805,0.308 -0.14635,0.056 -0.14635,-0.56 z m -94.42371,-1.28 c 0,-0.44 0.0726,-0.62 0.16141,-0.4 0.0888,0.22 0.0888,0.58 0,0.8 -0.0888,0.22 -0.16141,0.04 -0.16141,-0.4 z m 34.57186,-0.8 c 0.007,-0.528 0.0782,-0.7053 0.15937,-0.3939 0.0811,0.3113 0.0758,0.7433 -0.0119,0.96 -0.0877,0.2166 -0.15404,-0.038 -0.14752,-0.5661 z m -59.84,-1.6 c 0.007,-0.528 0.0782,-0.7053 0.15938,-0.3939 0.0811,0.3113 0.0758,0.7433 -0.0119,0.96 -0.0877,0.2166 -0.15404,-0.038 -0.14752,-0.5661 z m 85.46914,-5.76 c 0.002,-0.88 0.0646,-1.202 0.1381,-0.7156 0.0736,0.4864 0.0716,1.2064 -0.004,1.6 -0.076,0.3936 -0.13613,0 -0.13373,-0.8844 z"
         id="path18" /><path
         style="fill:#0063a6"
         d="m -281.91632,-908.15323 0.003,-73.52 2.4576,-1.28 c 1.35169,-0.704 5.2018,-2.91737 8.55582,-4.91859 5.16028,-3.07896 8.0556,-4.90679 14.97968,-9.45675 l 0.88,-0.57827 v 81.6368 81.6368 h -13.44 -13.44 z m 59.83655,-21.44235 v -94.96232 l 5.70068,-5.7577 c 6.8231,-6.8913 11.29019,-11.7876 16.63875,-18.2376 2.18918,-2.64 4.10638,-4.9368 4.26044,-5.104 0.16021,-0.1739 0.28012,46.6406 0.28012,109.35997 v 109.66399 h -13.44 -13.43999 z m 59.95519,74.40234 c 0.11386,-11.308 0.50752,-73.33599 0.87481,-137.83999 l 0.66778,-117.27997 2.35566,-5.6 c 12.09711,-28.7579 18.85744,-55.7361 21.41959,-85.4784 0.38405,-4.4582 1.09389,-18.7605 1.12174,-22.6016 0.004,-0.512 0.19568,-0.72 0.66453,-0.72 0.63074,0 0.65178,0.1282 0.48559,2.96 -0.0956,1.628 -0.25044,68.624 -0.34421,148.88 -0.0938,80.25597 -0.23203,157.51197 -0.30723,171.67997 -0.0752,14.168 -0.14499,34.93999 -0.15509,46.15999 l -0.0184,20.4 h -13.48591 -13.48591 z"
         id="path17" /><path
         style="fill:#365b6d"
         d="m -82.299782,-557.73184 c 0.231,-0.0924 0.507,-0.0811 0.613333,0.0253 0.106334,0.10633 -0.08267,0.18196 -0.42,0.16807 -0.372781,-0.0154 -0.448608,-0.0912 -0.193333,-0.19334 z m -319.998438,-0.98111 c 3.75184,-0.0512 9.79984,-0.0512 13.44,1.4e-4 3.64015,0.0513 0.57045,0.0932 -6.82155,0.0931 -7.39199,-8e-5 -10.3703,-0.0421 -6.61845,-0.0933 z m 43.51365,10e-4 c 1.46035,-0.0594 3.76435,-0.0591 5.12,7.3e-4 1.35564,0.0598 0.1608,0.10846 -2.6552,0.10806 -2.816,-4.1e-4 -3.92516,-0.0494 -2.4648,-0.10879 z m 43.15333,-0.002 c -0.0821,-0.132 1.45742,-0.20224 3.42111,-0.15608 6.47269,0.15215 7.16694,0.27417 1.90925,0.33557 -2.84962,0.0333 -5.24828,-0.0475 -5.33036,-0.17949 z m 18.82198,-0.15141 c -0.0858,-0.22472 -0.11784,-11.20859 -0.0712,-24.40859 l 0.0848,-24 0.0779,24.24 0.0779,24.24 h 4.63531 4.6353 l 0.0847,-9.68 0.0847,-9.68 h 14.08 14.08 l 0.0847,9.68 0.0847,9.68 h 4.6333 4.63329 l 0.0851,-24.24 0.0851,-24.24 -0.003,24.32 -0.003,24.32 h -4.8 -4.8 l -0.0847,-9.68 -0.0847,-9.68 h -13.91061 -13.91062 l -0.0847,9.68 -0.0847,9.68 -4.72675,0.0886 c -3.60518,0.0676 -4.76376,-0.008 -4.88274,-0.32 z m 62.07999,0 c -0.0858,-0.22472 -0.11783,-11.20859 -0.0712,-24.40859 l 0.0848,-24 0.0779,24.24 0.0779,24.24 h 4.63798 4.63799 l 0.085,-24.08 0.085,-24.08 -0.003,24.16 -0.003,24.16 -4.72675,0.0886 c -3.60519,0.0676 -4.76376,-0.008 -4.88275,-0.32 z m 33.68949,0.15159 c 5.324,-0.0493 14.036,-0.0493 19.36,0 5.324,0.0493 0.968,0.0896 -9.68,0.0896 -10.648,0 -15.004,-0.0403 -9.68,-0.0896 z m 43.04,0.002 c 1.364,-0.06 3.596,-0.06 4.96,0 1.364,0.06 0.248,0.10906 -2.48,0.10906 -2.728,0 -3.844,-0.0491 -2.48,-0.10906 z m 37.92,-2.2e-4 c 1.452,-0.0593 3.828,-0.0593 5.28,0 1.452,0.0593 0.264,0.10781 -2.64,0.10781 -2.904,0 -4.092,-0.0485 -2.64,-0.10781 z m 82.239996,-0.002 c 5.323999,-0.0493 14.035999,-0.0493 19.359999,0 5.323999,0.0493 0.968,0.0896 -9.68,0.0896 -10.647999,0 -15.003999,-0.0403 -9.679999,-0.0896 z m -85.720816,-0.96018 c -0.39804,-0.50754 -0.38672,-0.51886 0.12082,-0.12082 0.308,0.24155 0.56,0.49355 0.56,0.56 0,0.26337 -0.26278,0.0939 -0.68082,-0.43918 z m -2.56,-2.88 c -0.39804,-0.50754 -0.38672,-0.51886 0.12082,-0.12082 0.53304,0.41804 0.70255,0.68082 0.43918,0.68082 -0.0665,0 -0.31845,-0.252 -0.56,-0.56 z m 28.660688,-1.76 -0.939869,-1.04 1.04,0.93987 c 0.969425,0.87609 1.187088,1.14013 0.939869,1.14013 -0.05507,0 -0.523072,-0.468 -1.04,-1.04 z m -31.220688,-1.12 c -0.39804,-0.50754 -0.38672,-0.51886 0.12082,-0.12082 0.308,0.24155 0.56,0.49355 0.56,0.56 0,0.26337 -0.26278,0.0939 -0.68082,-0.43918 z m 51.500818,-0.6186 c 0.231,-0.0924 0.507,-0.0811 0.613333,0.0253 0.106333,0.10633 -0.08267,0.18196 -0.42,0.16807 -0.372782,-0.0154 -0.448608,-0.0912 -0.193333,-0.19334 z m -123.631128,-6.90113 0.0111,-5.84027 13.28,-0.005 13.28,-0.005 -13.19279,0.089 -13.1928,0.089 -0.0983,5.75672 -0.0983,5.75672 z m 69.25031,4.31973 c -0.39804,-0.50754 -0.38672,-0.51886 0.12082,-0.12082 0.308,0.24155 0.56,0.49355 0.56,0.56 0,0.26337 -0.26278,0.0939 -0.68082,-0.43918 z m 41.600001,-0.96 c -0.398039,-0.50754 -0.38672,-0.51886 0.120817,-0.12082 0.308,0.24155 0.56,0.49355 0.56,0.56 0,0.26337 -0.262779,0.0939 -0.680817,-0.43918 z m -47.040001,-5.12 c -0.39804,-0.50754 -0.38672,-0.51886 0.12082,-0.12082 0.53304,0.41804 0.70255,0.68082 0.43918,0.68082 -0.0665,0 -0.31845,-0.252 -0.56,-0.56 z m -2.56,-2.88 c -0.39804,-0.50754 -0.38672,-0.51886 0.12082,-0.12082 0.308,0.24155 0.56,0.49355 0.56,0.56 0,0.26337 -0.26278,0.0939 -0.68082,-0.43918 z m 108.462356,-1.27971 c 3.751848,-0.0512 9.799847,-0.0512 13.44,1.4e-4 3.640152,0.0513 0.570458,0.0932 -6.821541,0.0931 -7.392,-8e-5 -10.370306,-0.0421 -6.618459,-0.0933 z m -364.643466,-0.31941 c 2.07793,-0.0558 5.38993,-0.0556 7.36,4.1e-4 1.97007,0.0561 0.26994,0.10172 -3.77806,0.1015 -4.048,-2.3e-4 -5.65987,-0.0461 -3.58194,-0.10191 z m 253.62111,-1.28088 c -0.39804,-0.50754 -0.38672,-0.51886 0.12082,-0.12082 0.308,0.24155 0.56,0.49355 0.56,0.56 0,0.26337 -0.26278,0.0939 -0.68082,-0.43918 z m -2.24,-2.56 c -0.39804,-0.50754 -0.38672,-0.51886 0.12082,-0.12082 0.308,0.24155 0.56,0.49355 0.56,0.56 0,0.26337 -0.26278,0.0939 -0.68082,-0.43918 z m 48.320001,-2.24 c -0.398039,-0.50754 -0.38672,-0.51886 0.120818,-0.12082 0.308,0.24155 0.56,0.49355 0.56,0.56 0,0.26337 -0.26278,0.0939 -0.680818,-0.43918 z m -290.259171,-1.8986 c 0.231,-0.0924 0.507,-0.0811 0.61334,0.0253 0.10633,0.10633 -0.0827,0.18196 -0.42,0.16807 -0.37278,-0.0154 -0.44861,-0.0912 -0.19334,-0.19334 z m 99.08276,-9.8614 c 1.3e-4,-5.632 0.0437,-7.89093 0.0968,-5.01985 0.0531,2.87109 0.053,7.47909 -2.3e-4,10.24 -0.0532,2.76092 -0.0967,0.41185 -0.0965,-5.22015 z m 28.16,0 c 1.3e-4,-5.632 0.0437,-7.89093 0.0968,-5.01985 0.0531,2.87109 0.053,7.47909 -2.3e-4,10.24 -0.0532,2.76092 -0.0967,0.41185 -0.0965,-5.22015 z m 58.2459,3.84 0.0113,-5.44 13.92,-0.005 13.92,-0.005 -13.83245,0.0884 -13.83246,0.0884 -0.0989,5.35664 -0.0989,5.35664 z m -166.84339,-0.66667 c 0.0154,-0.37278 0.0912,-0.4486 0.19333,-0.19333 0.0924,0.231 0.0811,0.507 -0.0253,0.61333 -0.10634,0.10634 -0.18197,-0.0827 -0.16807,-0.42 z m 227.7739,-1.33333 c -0.39804,-0.50754 -0.38672,-0.51886 0.12082,-0.12082 0.308,0.24155 0.56,0.49355 0.56,0.56 0,0.26337 -0.26278,0.0939 -0.68082,-0.43918 z m -227.7739,-0.26667 c 0.0154,-0.37278 0.0912,-0.4486 0.19333,-0.19333 0.0924,0.231 0.0811,0.507 -0.0253,0.61333 -0.10634,0.10634 -0.18197,-0.0827 -0.16807,-0.42 z m 278.854718,-1.73333 c 0.318556,-0.352 0.651192,-0.64 0.739192,-0.64 0.088,0 -0.100636,0.288 -0.419192,0.64 -0.318555,0.352 -0.651192,0.64 -0.739192,0.64 -0.088,0 0.100637,-0.288 0.419192,-0.64 z m -307.422958,-1.51887 c 1.81336,-0.0571 4.69336,-0.0569 6.4,5.1e-4 1.70663,0.0574 0.22297,0.10418 -3.29703,0.1039 -3.52,-2.8e-4 -4.91634,-0.0473 -3.10297,-0.10441 z m 365.422955,-8.1e-4 c 3.916,-0.0509 10.324,-0.0509 14.239999,0 3.916,0.0509 0.712,0.0926 -7.119999,0.0926 -7.832,0 -11.036,-0.0417 -7.12,-0.0926 z m -65.519996,-3.76032 c 0.413358,-0.44 0.823561,-0.8 0.911561,-0.8 0.088,0 -0.178203,0.36 -0.591561,0.8 -0.413359,0.44 -0.823561,0.8 -0.911561,0.8 -0.088,0 0.178202,-0.36 0.591561,-0.8 z m 12.739999,-5.4986 c 0.231,-0.0924 0.507,-0.0811 0.613333,0.0253 0.106334,0.10633 -0.08267,0.18196 -0.42,0.16807 -0.372781,-0.0154 -0.448607,-0.0912 -0.193333,-0.19334 z m 6.4,0 c 0.231,-0.0924 0.507,-0.0811 0.613333,0.0253 0.106333,0.10633 -0.08267,0.18196 -0.42,0.16807 -0.372782,-0.0154 -0.448608,-0.0912 -0.193333,-0.19334 z m -198.262058,-49.45306 -0.0779,-24.23167 -4.88,-0.0973 -4.88,-0.0973 4.89004,-0.071 c 3.67093,-0.0533 4.92811,0.0287 5.04275,0.32898 0.084,0.22 0.11454,11.2 0.0679,24.4 l -0.0848,24 z m 180.342059,23.85306 c 0.231,-0.0924 0.507,-0.0811 0.613333,0.0253 0.106333,0.10633 -0.08267,0.18196 -0.42,0.16807 -0.372782,-0.0154 -0.448608,-0.0912 -0.193333,-0.19334 z m -2.9,-8.31333 c 0.22,-0.0888 0.58,-0.0888 0.8,0 0.22,0.0888 0.04,0.1614 -0.4,0.1614 -0.44,0 -0.62,-0.0726 -0.4,-0.1614 z m 11.759999,-4.26807 c 0.318556,-0.352 0.651192,-0.64 0.739192,-0.64 0.088,0 -0.100636,0.288 -0.419192,0.64 -0.318555,0.352 -0.651192,0.64 -0.739192,0.64 -0.088,0 0.100637,-0.288 0.419192,-0.64 z m -87.119998,0.0804 c 3.3,-0.052 8.7,-0.052 12,0 3.3,0.052 0.6,0.0946 -6,0.0946 -6.6,0 -9.3,-0.0426 -6,-0.0946 z m 135.679996,0 c 3.299999,-0.052 8.699999,-0.052 11.999999,0 3.3,0.052 0.6,0.0946 -6,0.0946 -6.599999,0 -9.299999,-0.0426 -5.999999,-0.0946 z m -357.901626,-4.47963 c 2.16609,-0.0554 5.62209,-0.0553 7.68,3.8e-4 2.0579,0.0557 0.28564,0.10102 -3.93836,0.10081 -4.224,-2.1e-4 -5.90774,-0.0457 -3.74164,-0.10119 z m 313.444052,-6.80081 c 0,-1.144 0.05808,-1.612 0.129063,-1.04 0.07098,0.572 0.07098,1.508 0,2.08 -0.07098,0.572 -0.129063,0.104 -0.129063,-1.04 z m -253.302412,-1.51842 c 1.628,-0.0581 4.292,-0.0581 5.92,0 1.628,0.0581 0.296,0.10559 -2.96,0.10559 -3.256,0 -4.588,-0.0475 -2.96,-0.10559 z m -50.54,-0.62018 c 0.231,-0.0924 0.507,-0.0811 0.61334,0.0253 0.10633,0.10633 -0.0827,0.18196 -0.42,0.16807 -0.37278,-0.0154 -0.44861,-0.0912 -0.19334,-0.19334 z m 79.76526,-5.08807 c 0.0154,-0.37278 0.0912,-0.4486 0.19334,-0.19333 0.0924,0.231 0.0811,0.507 -0.0253,0.61333 -0.10633,0.10634 -0.18196,-0.0827 -0.16807,-0.42 z m -70.99102,-1.73333 c 0,-0.616 0.0659,-0.868 0.14635,-0.56 0.0805,0.308 0.0805,0.812 0,1.12 -0.0805,0.308 -0.14635,0.056 -0.14635,-0.56 z m 70.99102,-1.46667 c 0.0154,-0.37278 0.0912,-0.4486 0.19334,-0.19333 0.0924,0.231 0.0811,0.507 -0.0253,0.61333 -0.10633,0.10634 -0.18196,-0.0827 -0.16807,-0.42 z m -79.44526,-5.47193 c 0.231,-0.0924 0.507,-0.0811 0.61334,0.0253 0.10633,0.10633 -0.0827,0.18196 -0.42,0.16807 -0.37278,-0.0154 -0.44861,-0.0912 -0.19334,-0.19334 z m 287.679989,0 c 0.231,-0.0924 0.507,-0.0811 0.613333,0.0253 0.106333,0.10633 -0.08267,0.18196 -0.42,0.16807 -0.372782,-0.0154 -0.448608,-0.0912 -0.193333,-0.19334 z m -237.636169,-0.33942 c 1.53109,-0.0585 4.12309,-0.0588 5.76,-6.1e-4 1.6369,0.0582 0.38418,0.10608 -2.78382,0.10641 -3.168,3.4e-4 -4.50728,-0.0473 -2.97618,-0.1058 z m 257.81535,-0.32198 c -0.398039,-0.50754 -0.38672,-0.51886 0.120818,-0.12082 0.533039,0.41804 0.702553,0.68082 0.439182,0.68082 -0.06645,0 -0.31845,-0.252 -0.56,-0.56 z m -1.28,-1.28 c -0.398039,-0.50754 -0.38672,-0.51886 0.120818,-0.12082 0.533039,0.41804 0.702553,0.68082 0.439182,0.68082 -0.06645,0 -0.31845,-0.252 -0.56,-0.56 z m -173.55917,-6.48 -5.12,-0.18475 5.02111,-0.0676 c 3.07742,-0.0414 5.09767,0.0562 5.21889,0.25238 0.10877,0.176 0.15327,0.28957 0.0989,0.25238 -0.0544,-0.0372 -2.40288,-0.15076 -5.21888,-0.25238 z m 40.75955,-0.0884 c 0.13709,-0.13662 2.54228,-0.20821 5.34485,-0.15908 l 5.09559,0.0893 -5.34485,0.15908 c -2.93967,0.0875 -5.23269,0.0473 -5.09559,-0.0893 z m 39.03948,6.1e-4 c 0.13671,-0.13629 2.75785,-0.20793 5.82476,-0.15921 l 5.5762,0.0886 -5.82476,0.15922 c -3.20362,0.0876 -5.71291,0.0477 -5.5762,-0.0886 z m 135.679989,0 c 0.136709,-0.13629 2.757853,-0.20793 5.824764,-0.15921 l 5.576202,0.0886 -5.824764,0.15922 c -3.20362,0.0876 -5.712911,0.0477 -5.576202,-0.0886 z m -366.119009,-0.15174 c 3.21199,-0.0522 8.46799,-0.0522 11.67999,0 3.212,0.0522 0.584,0.0949 -5.84,0.0949 -6.42399,0 -9.05199,-0.0427 -5.83999,-0.0949 z m 61.14078,-8e-5 c 3.22343,-0.0522 8.40743,-0.0521 11.52,1.9e-4 3.11257,0.0524 0.47521,0.0951 -5.86079,0.095 -6.336,-10e-5 -8.88264,-0.0429 -5.65921,-0.0952 z m 226.2192,8e-5 c 3.212,-0.0522 8.468,-0.0522 11.68,0 3.212,0.0522 0.584,0.0949 -5.84,0.0949 -6.424,0 -9.052,-0.0427 -5.84,-0.0949 z m -270.05999,-25.25905 c 0.231,-0.0924 0.507,-0.0811 0.61334,0.0253 0.10633,0.10633 -0.0827,0.18196 -0.42,0.16807 -0.37278,-0.0154 -0.44861,-0.0912 -0.19334,-0.19333 z m 7.04,0 c 0.231,-0.0924 0.507,-0.0811 0.61334,0.0253 0.10633,0.10633 -0.0827,0.18196 -0.42,0.16807 -0.37278,-0.0154 -0.44861,-0.0912 -0.19334,-0.19333 z m 273.59999,0 c 0.231,-0.0924 0.507,-0.0811 0.61333,0.0253 0.10634,0.10633 -0.0827,0.18196 -0.42,0.16807 -0.37278,-0.0154 -0.44861,-0.0912 -0.19333,-0.19333 z m 7.039999,0 c 0.231,-0.0924 0.507,-0.0811 0.613333,0.0253 0.106333,0.10633 -0.08267,0.18196 -0.42,0.16807 -0.372782,-0.0154 -0.448608,-0.0912 -0.193333,-0.19333 z m -198.533729,-5.06141 c 5e-4,-2.464 0.0507,-3.4297 0.11162,-2.146 0.0609,1.2837 0.0605,3.2997 -9e-4,4.48 -0.0614,1.1803 -0.11122,0.13 -0.11072,-2.334 z m 21.14591,-20 c 0,-13.464 0.0395,-18.972 0.0877,-12.24 0.0482,6.732 0.0482,17.748 0,24.48 -0.0482,6.732 -0.0877,1.224 -0.0877,-12.24 z m 9.59999,0 c 0,-13.464 0.0395,-18.972 0.0877,-12.24 0.0482,6.732 0.0482,17.748 0,24.48 -0.0482,6.732 -0.0877,1.224 -0.0877,-12.24 z m 74.56,0 c 0,-13.464 0.0395,-18.972 0.0877,-12.24 0.0482,6.732 0.0482,17.748 0,24.48 -0.0482,6.732 -0.0877,1.224 -0.0877,-12.24 z m 110.247828,18.75918 c 0,-0.0665 0.252,-0.31845 0.56,-0.56 0.507538,-0.39803 0.518856,-0.38672 0.120818,0.12082 -0.418039,0.53304 -0.680818,0.70256 -0.680818,0.43918 z m -126.760808,-1.71918 c -0.39804,-0.50754 -0.38672,-0.51885 0.12081,-0.12082 0.53304,0.41804 0.70256,0.68082 0.43919,0.68082 -0.0665,0 -0.31845,-0.252 -0.56,-0.56 z m 128.680808,-0.20082 c 0,-0.0665 0.252,-0.31845 0.56,-0.56 0.507538,-0.39803 0.518856,-0.38672 0.120817,0.12082 -0.418038,0.53304 -0.680817,0.70256 -0.680817,0.43918 z m -299.899988,-0.41777 c 0.231,-0.0924 0.507,-0.0811 0.61334,0.0253 0.10633,0.10633 -0.0827,0.18196 -0.42,0.16807 -0.37278,-0.0154 -0.44861,-0.0912 -0.19334,-0.19333 z m 274.55999,0 c 0.231,-0.0924 0.507,-0.0811 0.61333,0.0253 0.10634,0.10633 -0.0827,0.18196 -0.42,0.16807 -0.37278,-0.0154 -0.44861,-0.0912 -0.19333,-0.19333 z m -293.4042,-5.46141 -0.77579,-0.88 0.88,0.77578 c 0.8225,0.72509 1.02675,0.98422 0.77579,0.98422 -0.0573,0 -0.45333,-0.396 -0.88,-0.88 z m 184.62339,0 c -0.39804,-0.50754 -0.38672,-0.51885 0.12081,-0.12082 0.53304,0.41804 0.70256,0.68082 0.43919,0.68082 -0.0665,0 -0.31845,-0.252 -0.56,-0.56 z m -188.73391,-8.90666 c 0.0154,-0.37279 0.0912,-0.44861 0.19333,-0.19334 0.0924,0.231 0.0811,0.507 -0.0253,0.61334 -0.10634,0.10633 -0.18197,-0.0827 -0.16807,-0.42 z m 270.47388,-2.21334 c 0.002,-1.056 0.0615,-1.44942 0.13275,-0.87427 0.0712,0.57516 0.0697,1.43916 -0.003,1.92 -0.073,0.48085 -0.13129,0.0103 -0.12949,-1.04573 z m -270.47388,-1.30666 c 0.0154,-0.37279 0.0912,-0.44861 0.19333,-0.19334 0.0924,0.231 0.0811,0.507 -0.0253,0.61334 -0.10634,0.10633 -0.18197,-0.0827 -0.16807,-0.42 z m 33.7146,-9.49334 -0.93987,-1.04 1.04,0.93987 c 0.572,0.51693 1.04,0.98493 1.04,1.04 0,0.24722 -0.26404,0.0296 -1.14013,-0.93987 z m 147.01931,-4.32 c -0.39804,-0.50754 -0.38672,-0.51885 0.12082,-0.12082 0.308,0.24156 0.56,0.49356 0.56,0.56 0,0.26338 -0.26278,0.0939 -0.68082,-0.43918 z m -184.27917,-1.52 c 0.41335,-0.44 0.82356,-0.8 0.91156,-0.8 0.088,0 -0.17821,0.36 -0.59156,0.8 -0.41336,0.44 -0.82357,0.8 -0.91157,0.8 -0.088,0 0.17821,-0.36 0.59157,-0.8 z m 19.77999,0.26141 c 0.231,-0.0924 0.507,-0.0811 0.61334,0.0253 0.10633,0.10633 -0.0827,0.18196 -0.42,0.16807 -0.37278,-0.0154 -0.44861,-0.0912 -0.19334,-0.19333 z m -0.64,-8.64 c 0.231,-0.0924 0.507,-0.0811 0.61334,0.0253 0.10633,0.10633 -0.0827,0.18196 -0.42,0.16807 -0.37278,-0.0154 -0.44861,-0.0912 -0.19334,-0.19333 z m 7.04,0 c 0.231,-0.0924 0.507,-0.0811 0.61334,0.0253 0.10633,0.10633 -0.0827,0.18196 -0.42,0.16807 -0.37278,-0.0154 -0.44861,-0.0912 -0.19334,-0.19333 z m 273.59999,0 c 0.231,-0.0924 0.507,-0.0811 0.61333,0.0253 0.10634,0.10633 -0.0827,0.18196 -0.42,0.16807 -0.37278,-0.0154 -0.44861,-0.0912 -0.19333,-0.19333 z m 7.039999,0 c 0.231,-0.0924 0.507,-0.0811 0.613333,0.0253 0.106333,0.10633 -0.08267,0.18196 -0.42,0.16807 -0.372782,-0.0154 -0.448608,-0.0912 -0.193333,-0.19333 z m -165.379989,-5.34222 c 0,-0.0665 0.252,-0.31845 0.56,-0.56 0.50754,-0.39804 0.51885,-0.38673 0.12082,0.12081 -0.41804,0.53304 -0.68082,0.70256 -0.68082,0.43919 z m 3.52,-3.2 c 0,-0.0664 0.252,-0.31845 0.56,-0.56 0.50754,-0.39804 0.51885,-0.38672 0.12082,0.12081 -0.41804,0.53304 -0.68082,0.70256 -0.68082,0.43919 z m 3.52,-3.2 c 0,-0.0665 0.252,-0.31845 0.56,-0.56 0.50753,-0.39804 0.51885,-0.38672 0.12081,0.12081 -0.41803,0.53304 -0.68081,0.70256 -0.68081,0.43919 z m -144.88,-180.25977 c 0.308,-0.0805 0.812,-0.0805 1.12,0 0.308,0.0805 0.056,0.14635 -0.56,0.14635 -0.616,0 -0.868,-0.0659 -0.56,-0.14635 z m 6.56,-0.31134 c 0.22,-0.0888 0.58,-0.0888 0.8,0 0.22,0.0888 0.04,0.1614 -0.4,0.1614 -0.44,0 -0.62,-0.0726 -0.4,-0.1614 z m 4.82,-0.32667 c 0.231,-0.0924 0.507,-0.0811 0.61334,0.0253 0.10633,0.10634 -0.0827,0.18197 -0.42,0.16807 -0.37278,-0.0153 -0.44861,-0.0912 -0.19334,-0.19333 z m 3.84,-0.32 c 0.231,-0.0924 0.507,-0.0811 0.61334,0.0253 0.10633,0.10634 -0.0827,0.18197 -0.42,0.16807 -0.37278,-0.0154 -0.44861,-0.0912 -0.19334,-0.19333 z m 3.2,-0.32 c 0.231,-0.0924 0.507,-0.0811 0.61334,0.0253 0.10633,0.10634 -0.0827,0.18197 -0.42,0.16807 -0.37278,-0.0154 -0.44861,-0.0912 -0.19334,-0.19333 z m -17.7739,-24.00316 c 0.31134,-0.0811 0.74334,-0.0758 0.96,0.0119 0.21665,0.0877 -0.0381,0.15403 -0.5661,0.14751 -0.528,-0.007 -0.70525,-0.0782 -0.3939,-0.15937 z m 5.9139,-0.31017 c 0.22,-0.0888 0.58,-0.0888 0.8,0 0.22,0.0888 0.04,0.1614 -0.4,0.1614 -0.44,0 -0.62,-0.0726 -0.4,-0.1614 z m 4.18,-0.32667 c 0.231,-0.0924 0.507,-0.0811 0.61334,0.0253 0.10633,0.10634 -0.0827,0.18197 -0.42,0.16807 -0.37278,-0.0154 -0.44861,-0.0912 -0.19334,-0.19333 z m 6.72,-0.64 c 0.231,-0.0924 0.507,-0.0811 0.61334,0.0253 0.10633,0.10634 -0.0827,0.18197 -0.42,0.16807 -0.37278,-0.0154 -0.44861,-0.0912 -0.19334,-0.19333 z m -26.57999,-32.33571 c 0.748,-0.067 1.972,-0.067 2.72,0 0.748,0.067 0.136,0.1225 -1.36,0.1225 -1.496,0 -2.108,-0.055 -1.36,-0.1225 z m 10.55999,-0.2977 c 0.22,-0.089 0.58,-0.089 0.8,0 0.22,0.089 0.04,0.1614 -0.4,0.1614 -0.44,0 -0.62,-0.073 -0.4,-0.1614 z m 5.14,-0.3266 c 0.231,-0.093 0.507,-0.081 0.61334,0.025 0.10633,0.1064 -0.0827,0.182 -0.42,0.1681 -0.37278,-0.015 -0.44861,-0.091 -0.19334,-0.1933 z m 3.52,-0.32 c 0.231,-0.092 0.507,-0.081 0.61334,0.025 0.10633,0.1064 -0.0827,0.182 -0.42,0.1681 -0.37278,-0.015 -0.44861,-0.091 -0.19334,-0.1933 z m 3.2,-0.32 c 0.231,-0.092 0.507,-0.081 0.61334,0.025 0.10633,0.1064 -0.0827,0.182 -0.42,0.1681 -0.37278,-0.015 -0.44861,-0.091 -0.19334,-0.1933 z m 160.06,-9.1823 c 0,-0.066 0.252,-0.3184 0.56,-0.56 0.50753,-0.398 0.51885,-0.3867 0.12081,0.1209 -0.41803,0.533 -0.68081,0.7025 -0.68081,0.4391 z m 3.68,-3.3991 c 0.31855,-0.352 0.65119,-0.64 0.73919,-0.64 0.088,0 -0.10064,0.288 -0.41919,0.64 -0.31856,0.352 -0.6512,0.64 -0.7392,0.64 -0.088,0 0.10064,-0.288 0.4192,-0.64 z m -183.59426,-11.4319 c 0.57515,-0.071 1.43915,-0.07 1.92,0 0.48084,0.073 0.0103,0.1313 -1.04573,0.1295 -1.056,0 -1.44943,-0.062 -0.87427,-0.1327 z m 7.99426,-0.3001 c 0.22,-0.089 0.58,-0.089 0.8,0 0.22,0.089 0.04,0.1614 -0.4,0.1614 -0.44,0 -0.62,-0.073 -0.4,-0.1614 z m 4.5,-0.3266 c 0.231,-0.092 0.507,-0.081 0.61334,0.025 0.10633,0.1064 -0.0827,0.182 -0.42,0.1681 -0.37278,-0.015 -0.44861,-0.091 -0.19334,-0.1933 z m 151.74,-4.3822 c 0,-0.066 0.252,-0.3185 0.56,-0.56 0.50753,-0.3981 0.51885,-0.3868 0.12081,0.1208 -0.41803,0.533 -0.68081,0.7025 -0.68081,0.4392 z m 4.32,-4.0392 c 0.31855,-0.352 0.65119,-0.64 0.73919,-0.64 0.088,0 -0.10064,0.288 -0.41919,0.64 -0.31856,0.352 -0.6512,0.64 -0.7392,0.64 -0.088,0 0.10064,-0.288 0.4192,-0.64 z m 11.04,-11.04 c 0.41335,-0.44 0.82356,-0.8 0.91156,-0.8 0.088,0 -0.17821,0.36 -0.59156,0.8 -0.41336,0.44 -0.82357,0.8 -0.91157,0.8 -0.088,0 0.17821,-0.36 0.59157,-0.8 z m 3.2,-3.4808 c 0,-0.066 0.252,-0.3185 0.56,-0.56 0.50753,-0.3981 0.51885,-0.3868 0.12081,0.1208 -0.41804,0.533 -0.68081,0.7025 -0.68081,0.4392 z m -39.2,-9.1592 c 0.31855,-0.352 0.65119,-0.64 0.73919,-0.64 0.088,0 -0.10064,0.288 -0.41919,0.64 -0.31856,0.352 -0.65119,0.64 -0.73919,0.64 -0.088,0 0.10063,-0.288 0.41919,-0.64 z m -144.07999,-2.7892 c 0.484,-0.073 1.276,-0.073 1.76,0 0.484,0.073 0.088,0.1333 -0.88,0.1333 -0.968,0 -1.364,-0.06 -0.88,-0.1333 z m 7.51999,-0.3028 c 0.22,-0.089 0.58,-0.089 0.8,0 0.22,0.089 0.04,0.1614 -0.4,0.1614 -0.44,0 -0.62,-0.073 -0.4,-0.1614 z m 147.44,-7.788 c 0.31855,-0.352 0.65119,-0.64 0.73919,-0.64 0.088,0 -0.10064,0.288 -0.41919,0.64 -0.31856,0.352 -0.65119,0.64 -0.73919,0.64 -0.088,0 0.10063,-0.288 0.41919,-0.64 z m 3.04,-3.3208 c 0,-0.067 0.252,-0.3185 0.56,-0.56 0.50753,-0.3981 0.51885,-0.3868 0.12081,0.1208 -0.41803,0.533 -0.68081,0.7025 -0.68081,0.4392 z m -26.08,-9.1592 c 1.57666,-1.584 2.93865,-2.88 3.02665,-2.88 0.088,0 -1.12999,1.296 -2.70665,2.88 -1.57666,1.584 -2.93866,2.88 -3.02666,2.88 -0.088,0 1.13,-1.296 2.70666,-2.88 z m -130.47626,-4.7064 c 0.39805,-0.077 0.97405,-0.074 1.28,0.01 0.30594,0.08 -0.0197,0.1427 -0.72373,0.1392 -0.704,0 -0.95433,-0.069 -0.55627,-0.1457 z m 5.77626,-0.3122 c 0.231,-0.092 0.507,-0.081 0.61334,0.025 0.10633,0.1064 -0.0827,0.182 -0.42,0.1681 -0.37278,-0.015 -0.44861,-0.091 -0.19334,-0.1933 z m 3.52,-0.32 c 0.231,-0.092 0.507,-0.081 0.61334,0.025 0.10633,0.1064 -0.0827,0.182 -0.42,0.1681 -0.37278,-0.015 -0.44861,-0.091 -0.19334,-0.1933 z m 127.42,-1.1822 c 0,-0.067 0.252,-0.3185 0.56,-0.56 0.50754,-0.3981 0.51885,-0.3868 0.12082,0.1208 -0.41804,0.533 -0.68082,0.7025 -0.68082,0.4392 z m -30.4,-18.5992 c 1.13383,-1.144 2.13351,-2.08 2.22151,-2.08 0.088,0 -0.76768,0.936 -1.90151,2.08 -1.13383,1.144 -2.13351,2.08 -2.22151,2.08 -0.088,0 0.76768,-0.936 1.90151,-2.08 z m 5.44,-5.7208 c 0,-0.067 0.252,-0.3185 0.56,-0.56 0.50754,-0.3981 0.51886,-0.3868 0.12082,0.1208 -0.41804,0.533 -0.68082,0.7025 -0.68082,0.4392 z m -27.2,-8.32 c 0,-0.066 0.252,-0.3185 0.56,-0.56 0.50754,-0.3981 0.51886,-0.3868 0.12082,0.1208 -0.41804,0.533 -0.68082,0.7025 -0.68082,0.4392 z m 7.52,-7.5592 c 0.31856,-0.352 0.65119,-0.64 0.73919,-0.64 0.088,0 -0.10063,0.288 -0.41919,0.64 -0.31856,0.352 -0.65119,0.64 -0.73919,0.64 -0.088,0 0.10063,-0.288 0.41919,-0.64 z m 153.14526,-63.2267 c 0.0154,-0.3728 0.0912,-0.4486 0.19333,-0.1933 0.0924,0.231 0.0811,0.507 -0.0253,0.6133 -0.10634,0.1063 -0.18197,-0.083 -0.16807,-0.42 z m -59.84,-3.52 c 0.0153,-0.3728 0.0912,-0.4486 0.19333,-0.1933 0.0924,0.231 0.0811,0.507 -0.0253,0.6133 -0.10633,0.1063 -0.18197,-0.083 -0.16807,-0.42 z m 25.6,-2.56 c 0.0153,-0.3728 0.0912,-0.4486 0.19333,-0.1933 0.0924,0.231 0.0811,0.507 -0.0253,0.6133 -0.10634,0.1063 -0.18197,-0.083 -0.16807,-0.42 z m 34.90526,-1.4133 c 0,-0.44 0.0726,-0.62 0.1614,-0.4 0.0888,0.22 0.0888,0.58 0,0.8 -0.0888,0.22 -0.1614,0.04 -0.1614,-0.4 z m -94.74526,-1.4667 c 0.0154,-0.3728 0.0912,-0.4486 0.19333,-0.1933 0.0924,0.231 0.0811,0.507 -0.0253,0.6133 -0.10633,0.1063 -0.18196,-0.083 -0.16807,-0.42 z m 60.18526,-1.0933 c 0,-0.44 0.0726,-0.62 0.1614,-0.4 0.0888,0.22 0.0888,0.58 0,0.8 -0.0888,0.22 -0.1614,0.04 -0.1614,-0.4 z m -25.30526,-0.1867 c 0.0154,-0.3728 0.0912,-0.4486 0.19333,-0.1933 0.0924,0.231 0.0811,0.507 -0.0253,0.6133 -0.10633,0.1063 -0.18197,-0.083 -0.16807,-0.42 z m -34.56,-2.24 c 0.0154,-0.3728 0.0912,-0.4486 0.19333,-0.1933 0.0924,0.231 0.0811,0.507 -0.0253,0.6133 -0.10633,0.1063 -0.18196,-0.083 -0.16807,-0.42 z m 94.75712,-0.2933 c 0.007,-0.528 0.0782,-0.7053 0.15937,-0.3939 0.0811,0.3113 0.0758,0.7433 -0.0119,0.96 -0.0876,0.2166 -0.15404,-0.038 -0.14751,-0.5661 z m -120.03712,-0.027 c 0.0154,-0.3728 0.0912,-0.4486 0.19334,-0.1933 0.0924,0.231 0.0811,0.507 -0.0253,0.6133 -0.10633,0.1063 -0.18196,-0.083 -0.16807,-0.42 z m 60.19712,-2.2133 c 0.007,-0.528 0.0782,-0.7053 0.15937,-0.3939 0.0811,0.3113 0.0758,0.7433 -0.0119,0.96 -0.0877,0.2166 -0.15404,-0.038 -0.14752,-0.5661 z m 25.28,-0.64 c 0.007,-0.528 0.0782,-0.7053 0.15937,-0.3939 0.0811,0.3113 0.0758,0.7433 -0.0119,0.96 -0.0876,0.2166 -0.15403,-0.038 -0.14751,-0.5661 z m -85.13186,-1.12 c 0,-0.44 0.0726,-0.62 0.16141,-0.4 0.0888,0.22 0.0888,0.58 0,0.8 -0.0888,0.22 -0.16141,0.04 -0.16141,-0.4 z m 25.29186,-0.48 c 0.007,-0.528 0.0782,-0.7053 0.15937,-0.3939 0.0811,0.3113 0.0758,0.7433 -0.0119,0.96 -0.0877,0.2166 -0.15404,-0.038 -0.14752,-0.5661 z m 94.79131,-6.1553 c 0.0199,-1.3931 0.1426,-1.8467 0.5063,-1.8724 0.264,-0.019 0.30691,0.025 0.0954,0.097 -0.21427,0.073 -0.43853,0.9025 -0.50631,1.8724 l -0.12166,1.7411 z m -59.91131,-1.2047 c 0.007,-0.528 0.0782,-0.7053 0.15937,-0.3939 0.0811,0.3113 0.0758,0.7433 -0.0119,0.96 -0.0877,0.2166 -0.15404,-0.038 -0.14752,-0.5661 z m -53.76369,-0.7196 c 3.46427,-0.052 9.22427,-0.052 12.79999,-10e-5 3.57573,0.052 0.74132,0.094 -6.29868,0.094 -7.04,10e-5 -9.96559,-0.042 -6.50131,-0.094 z m 134.9013,0.01 c 0.748,-0.067 1.972,-0.067 2.72,0 0.748,0.067 0.136,0.1225 -1.36,0.1225 -1.496,0 -2.108,-0.055 -1.36,-0.1225 z"
         id="path16" /><path
         style="fill:#002e44"
         d="m -83.500398,-557.83869 c -2.899839,-0.40675 -6.201133,-1.45821 -8.819384,-2.80894 -3.061853,-1.57959 -7.016377,-5.53936 -8.413718,-8.42488 -0.56446,-1.1656 -1.02628,-2.27399 -1.02628,-2.46309 0,-0.32555 7.479495,-2.93764 8.411672,-2.93764 0.241409,0 0.77609,0.71986 1.18818,1.59969 2.072125,4.42407 6.954132,7.04928 13.083822,7.03558 5.903551,-0.0132 10.598003,-2.6036 10.595127,-5.84641 -6.92e-4,-0.78084 -0.268972,-1.78805 -0.637075,-2.39179 -1.227695,-2.01358 -3.452446,-2.94232 -12.843916,-5.36184 -7.05283,-1.81701 -10.261506,-3.09748 -13.036485,-5.20239 -6.140725,-4.65795 -6.472125,-12.74963 -0.738987,-18.04362 2.339117,-2.15994 4.29152,-3.21523 7.863781,-4.25043 7.320279,-2.12133 15.850119,-1.01911 21.534213,2.78264 2.576781,1.72346 4.043144,3.27969 5.346213,5.67385 l 0.87369,1.60526 -0.740119,0.28715 c -0.407065,0.15792 -2.252119,0.877 -4.100119,1.59795 -1.848,0.72094 -3.528255,1.3116 -3.733901,1.31258 -0.205645,9.8e-4 -0.683857,-0.49974 -1.062693,-1.11271 -1.000473,-1.6188 -3.052925,-3.25723 -5.098014,-4.06963 -1.484932,-0.58989 -2.431617,-0.71148 -5.625391,-0.72256 -3.666288,-0.0127 -3.937364,0.0328 -5.992283,1.00626 -5.502897,2.60682 -4.205941,7.11124 2.761165,9.58972 0.721115,0.25653 4.479118,1.32563 8.351118,2.37577 7.805064,2.11686 11.45379,3.6433 13.734994,5.74605 3.652065,3.36635 4.351035,9.03003 1.746092,14.14842 -1.80814,3.55276 -6.635167,6.87329 -12.000077,8.25489 -2.911238,0.74972 -8.551955,1.0507 -11.621625,0.62012 z m -325.459362,-25.13804 v -24.18349 l 14.15999,0.13203 c 15.48981,0.14443 16.18147,0.21799 20.23393,2.15205 5.07034,2.41985 7.629,6.92809 6.82866,12.03179 -0.55835,3.56057 -2.5846,6.20751 -6.09704,7.96471 -1.23834,0.61952 -2.44819,1.1264 -2.68854,1.1264 -1.11049,0 -0.25403,0.55076 1.40299,0.90222 3.94373,0.83649 6.95597,2.99556 8.46883,6.07018 0.95547,1.94181 1.0505,2.39902 1.04373,5.02195 -0.006,2.41781 -0.14062,3.17099 -0.82885,4.64565 -1.50893,3.23311 -3.81487,5.21306 -7.80371,6.70046 -3.97895,1.48372 -5.71221,1.61954 -20.66815,1.61954 h -14.05184 z m 29.14101,14.96905 c 2.66388,-1.05807 4.13898,-2.84731 4.13898,-5.02041 0,-3.12127 -2.75254,-5.20803 -7.78315,-5.90056 -1.37674,-0.18952 -5.51674,-0.34459 -9.2,-0.34459 h -6.69685 v 6.10637 6.10637 l 8.88,-0.11989 c 8.25353,-0.11143 9.00565,-0.1698 10.66102,-0.82729 z m -4.50102,-19.27957 c 4.38851,-0.69451 6.72,-2.60149 6.72,-5.49644 0,-1.98562 -1.00756,-3.39591 -3.2,-4.47905 -2.29517,-1.13388 -5.63075,-1.5305 -12.8716,-1.5305 h -5.6884 v 5.92 5.92 l 6.48,-0.002 c 3.564,-10e-4 7.416,-0.15054 8.56,-0.33159 z m 23.84737,26.81401 c 0.42458,-0.924 5.4398,-11.76 11.14494,-24.08 l 10.37298,-22.4 5.56609,-0.0871 5.56609,-0.0871 10.97324,23.7182 c 6.03529,13.045 11.05076,23.9202 11.1455,24.16709 0.14328,0.37338 -0.66806,0.4489 -4.82303,0.4489 h -4.9953 l -3.11513,-6.24 -3.11513,-6.24 h -11.75978 -11.75978 l -3.01989,6.24 -3.01989,6.24 h -4.96643 -4.96644 z m 34.39263,-19.87611 c 0,-0.0639 -1.27687,-2.83587 -2.83749,-6.16 -1.56062,-3.32414 -3.16236,-6.79989 -3.55941,-7.72389 -0.39705,-0.924 -0.8244,-1.68 -0.94966,-1.68 -0.12527,0 -1.06504,1.836 -2.08838,4.08 -1.02334,2.244 -2.54004,5.448 -3.37044,7.12 -0.83039,1.672 -1.6106,3.364 -1.73378,3.76 l -0.22397,0.72 h 7.38157 c 4.05986,0 7.38156,-0.0522 7.38156,-0.11611 z m 29.44,-2.60389 v -24.16 h 4.64 4.64 v 10.08 10.08 h 14.24 14.24 v -10.08 -10.08 h 4.64 4.64 v 24.16 24.16 h -4.63531 -4.63531 l -0.0847,-9.68 -0.0847,-9.68 h -14.08 -14.08 l -0.0847,9.68 -0.0847,9.68 h -4.6353 -4.63531 z m 62.08,0 v -24.16 h 4.64 4.64 v 24.16 24.16 h -4.64 -4.64 z m 23.99999,0 v -24.16 h 18.88 18.88 v 4.15664 4.15663 l -14,0.0834 -14,0.0834 -0.0875,5.52 -0.0876,5.52 h 13.28756 13.28755 v 4.31645 4.31645 l -13.2,0.0835 -13.2,0.0836 -0.0872,5.84 -0.0872,5.84 h 14.40721 14.40722 v 4.16 4.16 h -19.2 -19.2 z m 50.24,0 v -24.16 h 5.04497 5.04498 l 10.28156,11.76 c 5.65486,6.468 11.98863,13.76874 14.07503,16.22386 l 3.79346,4.46386 0.0829,-16.22386 0.0829,-16.22386 h 4.79706 4.79707 v 24.16 24.16 l -5.2,-0.023 -5.2,-0.023 -3.00736,-3.41701 c -1.65405,-1.87936 -6.47805,-7.31125 -10.72,-12.07086 -4.24195,-4.75961 -9.06937,-10.23161 -10.72759,-12.16 -1.65823,-1.92839 -3.13423,-3.55416 -3.28,-3.61283 -0.14578,-0.0587 -0.26505,6.96134 -0.26505,15.6 v 15.70667 h -4.8 -4.8 z m 112.959996,0 v -24.16 h 18.879999 18.8799991 v 4.16 4.16 H -23.679785 -37.759784 v 5.6 5.6 h 13.279999 13.279999 v 4.32 4.32 h -13.279999 -13.279999 v 5.92 5.92 h 14.399999 14.399999 v 4.16 4.16 h -19.199999 -19.199999 z m -361.599976,-74.58111 v -24.18111 l 13.99999,0.12011 c 15.46753,0.1327 15.54947,0.14211 20.15898,2.31596 4.32621,2.04024 6.79756,5.46174 7.51867,10.40933 1.02935,7.06236 -1.95016,13.03959 -7.96082,15.97027 -3.93627,1.91925 -6.31395,2.2618 -15.71683,2.26431 l -8.4,0.002 v 8.64 8.64 h -4.79999 -4.8 z m 26.87752,-2.52132 c 5.25416,-1.69928 6.70564,-7.51738 2.74333,-10.99633 -2.04851,-1.79861 -3.61745,-2.08327 -12.26086,-2.22446 l -7.76,-0.12677 v 7.09407 7.09406 l 7.76,-0.13607 c 6.29026,-0.11031 8.09288,-0.24374 9.51753,-0.7045 z m 34.24247,2.52112 v -24.18131 l 13.84,0.12106 c 13.17625,0.11525 13.95247,0.15502 16.18516,0.8294 7.08601,2.14031 10.7363,6.00142 11.58657,12.25572 1.0965,8.06561 -3.25853,14.3078 -11.56942,16.58278 l -1.94583,0.53264 6.1612,7.50051 c 3.38866,4.12528 6.72836,8.18451 7.42156,9.02051 l 1.26036,1.52 h -5.39739 -5.39738 l -7.03241,-8.63851 -7.03242,-8.6385 -4.24,-10e-4 -4.24,-10e-4 v 8.64 8.64 h -4.8 -4.8 z m 25.74162,-1.88239 c 3.82293,-1.04591 5.65662,-2.89753 5.87623,-5.93367 0.18216,-2.51827 -0.34634,-3.90446 -2.06561,-5.41782 -2.51168,-2.21086 -6.04268,-2.89811 -14.91224,-2.90238 l -5.04,-0.002 v 7.56394 7.56393 l 7.12,-0.17566 c 5.11372,-0.12616 7.65584,-0.32225 9.02162,-0.69591 z m 36.97838,1.9037 v -24.16 h 4.8 4.8 v 24.16 24.16 h -4.8 -4.8 z m 38.7115,0.27569 c -6.06733,-13.13637 -11.08074,-24.01209 -11.14093,-24.16827 -0.0617,-0.16019 2.10023,-0.24549 4.96,-0.19569 l 5.06943,0.0883 2.30208,4.48 c 1.26615,2.464 4.70842,9.664 7.64948,16 6.78212,14.61086 7.78961,16.62698 8.13554,16.28021 0.27068,-0.27135 3.32437,-6.77739 11.47127,-24.44021 2.15126,-4.664 4.37268,-9.344 4.9365,-10.4 l 1.02512,-1.92 5.06943,-0.0883 c 3.11405,-0.0542 5.02722,0.0293 4.96,0.21659 -0.0602,0.16767 -5.07743,11.04305 -11.14943,24.16751 l -11.03999,23.86265 -5.6085,7.6e-4 -5.60849,7.6e-4 z m 51.86319,22.52431 c 0.35551,-0.748 5.37398,-11.584 11.15214,-24.08 l 10.50576,-22.72 h 5.67654 5.67654 l 9.25723,20 c 5.09147,11 10.10749,21.836 11.14671,24.08 l 1.88948,4.08 h -5.02595 -5.02594 l -3.18721,-6.4 -3.18721,-6.4 h -11.70373 -11.70373 l -3.07844,6.4 -3.07845,6.4 h -4.98006 -4.98006 z m 34.5453,-20.34826 c 0,-0.14754 -1.44183,-3.35154 -3.20407,-7.12 -1.76223,-3.76845 -3.40439,-7.28374 -3.64923,-7.81174 l -0.44517,-0.96 -1.19103,2.56 c -0.65506,1.408 -2.32491,4.92218 -3.71076,7.80929 -1.38586,2.88711 -2.51974,5.37111 -2.51974,5.52 0,0.14889 3.312,0.27071 7.36,0.27071 4.048,0 7.36,-0.12072 7.36,-0.26826 z m 38.4,-2.42825 v -24.18349 l 13.04,10e-4 c 14.128128,10e-4 16.526952,0.19887 21.131734,1.74026 7.636838,2.55633 12.616697,7.82377 14.690164,15.53852 0.87133,3.24195 0.785498,10.2579 -0.166159,13.58189 -2.442332,8.53069 -8.150702,13.95682 -17.27758,16.42332 -3.081747,0.83283 -3.173179,0.83791 -17.258159,0.95952 l -14.16,0.12225 z m 28.622574,15.02836 c 2.065824,-0.59121 4.563501,-1.77028 6.036981,-2.84986 1.518582,-1.11262 3.394232,-4.02087 4.147055,-6.43012 0.983395,-3.14714 0.958489,-8.70582 -0.05214,-11.63706 -1.688987,-4.89874 -4.984604,-7.74983 -10.650867,-9.2142 -1.519271,-0.39264 -4.077221,-0.56044 -10.263603,-0.67331 l -8.24,-0.15033 v 15.90554 15.90553 l 8.56,-0.15585 c 6.74249,-0.12276 8.963965,-0.27146 10.462574,-0.70034 z m 33.63532,8.70815 c 0.0868,-0.22 5.091932,-11.056 11.122525,-24.08 l 10.964716,-23.68 h 5.676394 5.676395 l 11.031035,23.82689 c 6.0670691,13.1048 11.0310348,23.9408 11.0310348,24.08 0,0.13921 -2.2269809,0.25311 -4.9488463,0.25311 h -4.9488465 l -3.101898,-6.4 -3.101898,-6.4 h -11.733018 -11.733018 l -3.128651,6.4 -3.128652,6.4 h -4.917541 c -3.804866,0 -4.881835,-0.0905 -4.759731,-0.4 z m 35.022101,-21.31177 c 0,-0.14948 -1.125485,-2.63348 -2.501079,-5.52 -1.375593,-2.88653 -2.995593,-6.36407 -3.599999,-7.72788 -0.604407,-1.36381 -1.197218,-2.47981 -1.317358,-2.48 -0.120139,-1.9e-4 -0.320774,0.32365 -0.445855,0.71965 -0.12508,0.396 -1.718784,3.87893 -3.541563,7.73985 -1.82278,3.86091 -3.314145,7.13691 -3.314145,7.28 0,0.14308 3.311999,0.26015 7.359999,0.26015 4.048,0 7.36,-0.1223 7.36,-0.27177 z m -363.005365,-52.25224 c -11.33629,-1.45499 -19.56102,-7.13362 -23.1301,-15.96978 -1.34267,-3.32412 -1.78431,-6.13279 -1.60797,-10.22621 0.25928,-6.01863 2.11462,-10.64279 5.91875,-14.75161 9.79997,-10.58487 29.67752,-12.32836 41.81449,-3.6676 2.62282,1.87161 5.57107,5.11269 6.87339,7.55608 0.57111,1.07153 0.98854,1.99024 0.92761,2.04158 -0.0609,0.0513 -1.26279,0.53311 -2.67079,1.07059 -1.408,0.53747 -3.3073,1.27179 -4.22067,1.63181 l -1.66068,0.65458 -1.45178,-2.03449 c -5.48921,-7.69242 -17.1124,-10.163 -26.36244,-5.60348 -7.1109,3.50509 -10.64613,10.90003 -8.85121,18.51482 1.04638,4.43921 3.79326,7.75849 8.20985,9.92065 3.51837,1.72243 5.74886,2.26775 10.18414,2.48988 8.74475,0.43794 15.7273,-2.93467 19.0102,-9.18204 0.64762,-1.23242 1.27764,-2.23947 1.40004,-2.23788 0.1224,0.002 2.13279,0.63047 4.46753,1.39752 l 4.24498,1.39464 -1.4261,2.84247 c -2.60654,5.19528 -6.32352,8.85466 -11.54386,11.36496 -5.4844,2.63728 -13.10313,3.6948 -20.12538,2.79351 z m 280.44537,0.006 c -3.15148,-0.36058 -7.58021,-1.6315 -10.5316,-3.02227 -6.39556,-3.01378 -10.91411,-7.98652 -13.06666,-14.38011 -0.79309,-2.35565 -0.86195,-2.96868 -0.86261,-7.68 -6.7e-4,-4.68121 0.0712,-5.33331 0.83893,-7.60897 3.41436,-10.121 13.04492,-16.5366 26.10847,-17.39271 9.29474,-0.60912 19.025363,2.86904 24.361861,8.70802 1.521419,1.66468 4.432117,6.10503 4.154361,6.33761 -0.06752,0.0565 -1.850754,0.76056 -3.962754,1.56451 -2.112,0.80396 -4.056,1.54585 -4.32,1.64867 -0.325363,0.12671 -0.768372,-0.27037 -1.37512,-1.23255 -1.395728,-2.21335 -4.724584,-5.12174 -7.330084,-6.40424 -3.295887,-1.62232 -6.329504,-2.19635 -10.654794,-2.01614 -10.76281,0.44842 -18.10319,7.29768 -18.07218,16.86303 0.015,4.62814 1.27918,7.76602 4.34774,10.79174 3.91967,3.86495 9.77704,5.74882 16.92444,5.4433 7.973442,-0.34084 13.806641,-3.65392 16.719445,-9.49614 0.484304,-0.97137 0.921093,-1.83067 0.970643,-1.90955 0.153393,-0.2442 8.70991,2.65981 8.70991,2.95607 0,0.41151 -2.175367,4.67412 -2.96454,5.80899 -5.90792,8.49589 -16.867849,12.52272 -29.995458,11.02074 z m -226.23999,-24.92238 v -24.32 h 4.8 4.8 v 20 20 h 13.28 13.28 v 4.32 4.32 h -18.08 -18.08 z m 57.6,0 v -24.32 h 4.64 4.64 v 24.32 24.32 h -4.64 -4.64 z m 36.16,0 v -24.32 l 5.04,0.004 5.04,0.004 11.24085,12.87573 c 6.18247,7.08165 12.51847,14.38353 14.08,16.2264 l 2.83914,3.35068 0.0829,-16.23068 0.0829,-16.23068 h 4.63707 4.63706 v 24.32 24.32 l -4.88,-0.0101 -4.88,-0.0101 -10.60278,-11.9099 c -5.83154,-6.55045 -12.09554,-13.66344 -13.92,-15.80664 -1.82447,-2.14321 -3.42521,-3.90721 -3.55721,-3.92 -0.132,-0.0128 -0.24,7.10473 -0.24,15.81673 v 15.84 h -4.8 -4.8 z m 74.55999,0 v -24.32 h 4.8 4.8 v 24.32 24.32 h -4.8 -4.8 z m 105.279997,24.20853 c 0,-0.0613 5.027348,-10.96931 11.171885,-24.24 l 11.171884,-24.12853 5.559859,-0.0871 5.55986,-0.0871 9.886091,21.36711 c 5.43735,11.7519 10.5033478,22.6991 11.2577733,24.3271 l 1.3716827,2.96 h -5.0359143 -5.0359147 l -3.187209,-6.4 -3.187208,-6.4 h -11.745218 -11.745217 l -3.114069,6.4 -3.114068,6.4 h -4.907109 c -2.698909,0 -4.907108,-0.0502 -4.907108,-0.11147 z m 35.199998,-21.78348 c 0,-0.0742 -1.27697,-2.84622 -2.837711,-6.16 -1.560741,-3.31378 -3.162474,-6.78105 -3.559406,-7.70505 -0.396932,-0.924 -0.812762,-1.68 -0.924066,-1.68 -0.163198,0 -6.63046,13.49926 -7.287272,15.21088 -0.154959,0.40382 0.849263,0.46912 7.214219,0.46912 4.06683,0 7.394236,-0.0607 7.394236,-0.13495 z m -250.026675,-31.3629 c 0.32268,-0.42782 2.24269,-2.87473 4.26669,-5.43757 l 3.68,-4.65972 5.74857,-0.002 c 4.8685,-0.002 5.67683,0.0643 5.28,0.43368 -0.25772,0.23986 -2.9432,2.68786 -5.96774,5.44 l -5.49917,5.00389 h -4.04752 -4.04752 z m -138.1333,-200.61234 v -12.5902 l 8.24,-0.19643 c 24.22834,-0.57759 49.0778,-5.06015 72.98484,-13.16564 73.32076,-24.85881 131.56548,-82.85371 156.68972,-156.01751 7.9425,-23.1293 12.30023,-46.9097 13.27858,-72.4622 0.17425,-4.5509 0.40397,-8.3607 0.51049,-8.4662 0.24346,-0.2409 24.70137,-0.2133 24.94288,0.028 0.27103,0.2711 -0.424,16.8833 -0.973,23.2562 -3.6561,42.4405 -16.7072,82.4296 -38.8128,118.924 -13.07151,21.5799 -31.19124,43.9404 -47.55043,58.6793 -17.46897,15.7387 -31.05815,25.96399 -47.87029,36.02026 -6.9319,4.14634 -20.22347,10.95222 -28.8,14.74687 -31.55365,13.96081 -64.07581,21.68152 -99.04,23.51196 -3.344,0.17506 -7.77199,0.31904 -9.83999,0.31994 l -3.76,0.002 z m 0,-58.97858 v -12.4677 l 7.92,-0.3822 c 26.3538,-1.2718 49.32976,-6.8412 72.66341,-17.6135 31.52441,-14.5538 59.4429,-38.596 79.01909,-68.0478 19.13247,-28.7843 30.63683,-64.0601 31.62123,-96.96 0.0895,-2.992 0.23916,-6.196 0.33254,-7.12 l 0.16977,-1.68 h 12.50786 12.50786 l -0.21065,6.64 c -2.19964,69.3346 -36.93307,132.7988 -94.29112,172.2868 -33.5882,23.1237 -74.55491,36.5832 -114.47999,37.6122 l -7.76,0.2 z m 0,-60.7579 v -12.6333 h 2.26003 c 3.9065,0 11.45149,-0.6426 17.09996,-1.4563 34.1658,-4.9219 64.98973,-23.1169 86.00643,-50.7685 15.82009,-20.8144 25.2325,-46.999 26.0594,-72.4952 l 0.1894,-5.84 h 12.64241 12.64241 l -0.216,5.4944 c -1.38049,35.1155 -13.87774,67.5543 -36.40887,94.5056 -3.85003,4.6053 -12.24234,13.0952 -17.07518,17.2737 -22.98579,19.8735 -50.6708,32.5251 -80.48,36.7781 -5.73478,0.8182 -11.42753,1.3088 -18.63999,1.6065 l -4.08,0.1684 z"
         id="path15" /></g></g></svg>
