<?xml version="1.0" encoding="UTF-8" standalone="no"?>
<!-- Created with Inkscape (http://www.inkscape.org/) -->

<svg
   width="220.96147mm"
   height="89.954918mm"
   viewBox="0 0 835.12998 339.9871"
   version="1.1"
   id="svg1"
   xml:space="preserve"
   xmlns="http://www.w3.org/2000/svg"
   xmlns:svg="http://www.w3.org/2000/svg"><defs
     id="defs1" /><g
     id="layer1"
     transform="translate(-30.020399,-120.96982)"><g
       id="g22"
       transform="translate(2134.7405,777.96067)"><path
         style="fill:#bacdd8"
         d="m -1985.3154,-317.112 c 3.3115,-0.052 8.6395,-0.052 11.84,1.8e-4 3.2005,0.0522 0.4911,0.0947 -6.0209,0.0946 -6.512,-10e-5 -9.1306,-0.0428 -5.8191,-0.0948 z m 57.8985,0.002 11.7595,-0.09 0.081,-95.51606 0.081,-95.51606 -7e-4,95.6 -8e-4,95.6 -11.84,0.006 -11.84,0.006 z m 55.6806,-4e-4 c 1.54,-0.0587 4.06,-0.0587 5.6,0 1.54,0.0587 0.28,0.10666 -2.8,0.10666 -3.08,0 -4.34,-0.048 -2.8,-0.10666 z m 8.2652,-14.0284 c 0.015,-0.37278 0.091,-0.44861 0.1934,-0.19334 0.092,0.231 0.081,0.507 -0.025,0.61334 -0.1063,0.10633 -0.182,-0.0827 -0.1681,-0.42 z m -23.5698,-13.09334 c 3e-4,-3.696 0.047,-5.16417 0.1035,-3.2626 0.057,1.90156 0.056,4.92556 -5e-4,6.72 -0.057,1.79443 -0.1033,0.2386 -0.103,-3.4574 z m 539.0045,-35.89859 c 0.231,-0.0924 0.507,-0.0811 0.6134,0.0253 0.1063,0.10633 -0.083,0.18197 -0.42,0.16807 -0.3728,-0.0154 -0.4486,-0.0912 -0.1934,-0.19333 z m -320.18,-0.98104 c 3.652,-0.0513 9.628,-0.0513 13.28,0 3.652,0.0513 0.664,0.0934 -6.64,0.0934 -7.304,0 -10.292,-0.042 -6.64,-0.0934 z m 43.3752,10e-4 c 1.4604,-0.0594 3.7644,-0.0591 5.12,7.4e-4 1.3557,0.0598 0.1608,0.10846 -2.6552,0.10805 -2.816,-4e-4 -3.9251,-0.0494 -2.4648,-0.10879 z m 45.9206,-1.7e-4 c 1.5486,-0.0588 3.9966,-0.0585 5.44,6.7e-4 1.4433,0.0592 0.1762,0.10725 -2.8158,0.10689 -2.992,-3.7e-4 -4.1729,-0.0488 -2.6242,-0.10756 z m 16.0515,-0.16151 c -0.084,-0.22 -0.1146,-11.272 -0.068,-24.56 l 0.085,-24.16 0.078,24.39167 0.078,24.39166 4.88,0.0973 4.88,0.0973 -4.89,0.071 c -3.6709,0.0533 -4.9281,-0.0287 -5.0427,-0.32898 z m 37.8341,0.19468 c -0.1218,-0.12174 -0.2214,-4.51581 -0.2214,-9.76461 v -9.54327 l -13.76,-0.0886 -13.7601,-0.0885 13.8401,0.005 13.84,0.005 0.085,9.68 0.085,9.68 h 4.7933 4.7933 l 0.085,-24.24 0.085,-24.24 v 24.32 24.32 l -4.8186,0.088 c -2.6503,0.0484 -4.9183,-0.0116 -5.04,-0.13333 z m 24.2491,-0.1863 c -0.086,-0.22461 -0.1178,-11.28038 -0.071,-24.56838 l 0.085,-24.16 0.078,24.4 0.078,24.4 h 4.798 4.798 l 0.085,-24.24 0.085,-24.24 v 24.32 24.32 l -4.8868,0.0884 c -3.7335,0.0675 -4.9236,-0.008 -5.0427,-0.32 z m 24.3177,-0.006 c -0.084,-0.22138 -0.1155,-11.27451 -0.069,-24.56251 l 0.085,-24.16 0.078,24.4 0.078,24.4 h 19.191 19.191 l 0.1031,-4.32042 0.1031,-4.32043 -0.014,4.40043 -0.014,4.40042 -19.289,0.0825 c -15.2613,0.0653 -19.3212,-0.002 -19.4428,-0.32 z m 52.587,0.15917 c 1.4604,-0.0594 3.7644,-0.0591 5.12,7.4e-4 1.3557,0.0598 0.1608,0.10846 -2.6552,0.10805 -2.816,-4e-4 -3.9251,-0.0494 -2.4648,-0.10879 z m 38.08,0 c 1.4604,-0.0594 3.7644,-0.0591 5.12,7.4e-4 1.3557,0.0598 0.1608,0.10846 -2.6552,0.10805 -2.816,-4e-4 -3.9251,-0.0494 -2.4648,-0.10879 z m 82.0879,-0.002 c 5.4246,-0.0492 14.2086,-0.0492 19.52,8e-5 5.3113,0.0492 0.8729,0.0895 -9.8631,0.0894 -10.736,-4e-5 -15.0816,-0.0403 -9.6569,-0.0895 z m -90.0639,-5.76014 c -0.398,-0.50753 -0.3867,-0.51885 0.1208,-0.12081 0.308,0.24155 0.56,0.49355 0.56,0.56 0,0.26337 -0.2627,0.0938 -0.6808,-0.43919 z m 50.5408,-1.89859 c 0.231,-0.0924 0.507,-0.0811 0.6134,0.0253 0.1063,0.10633 -0.083,0.18197 -0.42,0.16807 -0.3728,-0.0154 -0.4486,-0.0912 -0.1934,-0.19333 z m -123.3114,-6.74113 0.011,-5.68028 13.1913,-0.0835 13.1912,-0.0835 0.1029,-4.55646 0.1029,-4.55646 -0.014,4.64 -0.014,4.64 -13.1926,0.0836 -13.1926,0.0835 -0.099,5.59674 -0.099,5.59673 z m -420.1731,-1.20028 c 3e-4,-3.696 0.047,-5.16417 0.1035,-3.2626 0.057,1.90156 0.057,4.92556 -5e-4,6.72 -0.057,1.79443 -0.1033,0.2386 -0.103,-3.4574 z m 530.8844,4.24 -0.9399,-1.04 1.04,0.93987 c 0.9695,0.87609 1.1871,1.14013 0.9399,1.14013 -0.055,0 -0.5231,-0.468 -1.04,-1.04 z m -43.3807,-0.48 c -0.398,-0.50753 -0.3867,-0.51885 0.1208,-0.12081 0.308,0.24155 0.56,0.49355 0.56,0.56 0,0.26337 -0.2627,0.0938 -0.6808,-0.43919 z m -436.2791,-2.32 c 0.3185,-0.352 0.6511,-0.64 0.7391,-0.64 0.088,0 -0.1006,0.288 -0.4191,0.64 -0.3186,0.352 -0.6512,0.64 -0.7392,0.64 -0.088,0 0.1006,-0.288 0.4192,-0.64 z m -28,-3.52 c 0,-1.99466 0.063,-3.56349 0.1403,-3.48628 0.2256,0.22555 0.2827,6.68994 0.061,6.91155 -0.1108,0.11077 -0.2014,-1.4306 -0.2014,-3.42527 z m 32.96,-1.76 c 1.4882,-1.496 2.7778,-2.72 2.8658,-2.72 0.088,0 -1.0576,1.224 -2.5458,2.72 -1.4883,1.496 -2.7779,2.72 -2.8659,2.72 -0.088,0 1.0576,-1.224 2.5459,-2.72 z m 187.1591,1.52 c -0.398,-0.50753 -0.3867,-0.51885 0.1208,-0.12081 0.308,0.24155 0.56,0.49355 0.56,0.56 0,0.26337 -0.2627,0.0939 -0.6808,-0.43919 z m 238.72,0 c -0.398,-0.50753 -0.3867,-0.51885 0.1208,-0.12081 0.5331,0.41803 0.7026,0.68081 0.4392,0.68081 -0.066,0 -0.3184,-0.252 -0.56,-0.56 z m 107.8224,-2.23971 c 3.7518,-0.0512 9.7998,-0.0512 13.44,1.4e-4 3.6401,0.0513 0.5704,0.0932 -6.8216,0.0931 -7.392,-8e-5 -10.3703,-0.042 -6.6184,-0.0933 z m -355.0555,-0.30204 c 0.3114,-0.0811 0.7434,-0.0758 0.96,0.0118 0.2167,0.0877 -0.038,0.15404 -0.5661,0.14752 -0.528,-0.007 -0.7052,-0.0782 -0.3939,-0.15937 z m 244.6731,-0.33825 c -0.398,-0.50753 -0.3867,-0.51885 0.1208,-0.12081 0.5331,0.41803 0.7026,0.68081 0.4392,0.68081 -0.066,0 -0.3184,-0.252 -0.56,-0.56 z m -418.0391,-3.6 c 0.3185,-0.352 0.6511,-0.64 0.7391,-0.64 0.088,0 -0.1006,0.288 -0.4191,0.64 -0.3186,0.352 -0.6512,0.64 -0.7392,0.64 -0.088,0 0.1006,-0.288 0.4192,-0.64 z m -28.96,-2.04081 c 0,-0.0664 0.252,-0.31845 0.56,-0.56 0.5075,-0.39804 0.5188,-0.38672 0.1208,0.12081 -0.4181,0.53304 -0.6808,0.70256 -0.6808,0.43919 z m 2.4,-2.75919 c 0.3185,-0.352 0.6511,-0.64 0.7391,-0.64 0.088,0 -0.1006,0.288 -0.4191,0.64 -0.3186,0.352 -0.6512,0.64 -0.7392,0.64 -0.088,0 0.1006,-0.288 0.4192,-0.64 z m 199.1199,0.42807 c 0.22,-0.0888 0.58,-0.0888 0.8,0 0.22,0.0888 0.04,0.16141 -0.4,0.16141 -0.44,0 -0.62,-0.0726 -0.4,-0.16141 z m 127.5828,-9.86807 c 10e-5,-5.632 0.044,-7.89093 0.097,-5.01984 0.053,2.87108 0.053,7.47908 -3e-4,10.24 -0.053,2.76091 -0.097,0.41184 -0.096,-5.22016 z m 58.5653,4.08031 0.012,-5.36031 13.92,-0.005 13.92,-0.005 -13.8322,0.0884 -13.8323,0.0884 -0.1,5.27695 -0.1,5.27695 z m -379.668,-0.56031 c 1.665,-1.672 3.0993,-3.04 3.1873,-3.04 0.088,0 -1.2023,1.368 -2.8673,3.04 -1.6651,1.672 -3.0994,3.04 -3.1874,3.04 -0.088,0 1.2023,-1.368 2.8674,-3.04 z m 491.7991,1.84 c -0.398,-0.50753 -0.3867,-0.51885 0.1208,-0.12081 0.5331,0.41803 0.7026,0.68081 0.4392,0.68081 -0.066,0 -0.3184,-0.252 -0.56,-0.56 z m -740.3591,-2.54058 c 0.308,-0.0805 0.812,-0.0805 1.12,0 0.308,0.0805 0.056,0.14634 -0.56,0.14634 -0.616,0 -0.868,-0.0659 -0.56,-0.14634 z m 6.26,-0.31801 c 0.231,-0.0924 0.507,-0.0811 0.6133,0.0253 0.1063,0.10633 -0.083,0.18197 -0.42,0.16807 -0.3728,-0.0153 -0.4486,-0.0912 -0.1933,-0.19333 z m 4.16,-0.32 c 0.231,-0.0924 0.507,-0.0811 0.6133,0.0253 0.1063,0.10633 -0.083,0.18197 -0.42,0.16807 -0.3728,-0.0154 -0.4486,-0.0912 -0.1933,-0.19333 z m 3.52,-0.32 c 0.231,-0.0924 0.507,-0.0811 0.6133,0.0253 0.1063,0.10633 -0.083,0.18197 -0.42,0.16807 -0.3728,-0.0154 -0.4486,-0.0912 -0.1933,-0.19333 z m 240.38,-3.78141 c 0.4133,-0.44 0.8235,-0.8 0.9115,-0.8 0.088,0 -0.1782,0.36 -0.5915,0.8 -0.4134,0.44 -0.8236,0.8 -0.9116,0.8 -0.088,0 0.1782,-0.36 0.5916,-0.8 z m 178.497,0.56113 c 1.8133,-0.0571 4.6933,-0.0569 6.4,5.2e-4 1.7066,0.0574 0.2229,0.10418 -3.2971,0.10389 -3.52,-2.8e-4 -4.9163,-0.0473 -3.1029,-0.10441 z m 365.4447,-8.6e-4 c 3.928,-0.051 10.264,-0.0509 14.08,1.3e-4 3.816,0.051 0.6022,0.0927 -7.1418,0.0926 -7.744,-7e-5 -10.8662,-0.0418 -6.9382,-0.0928 z m -541.7017,-2.44108 c 0,-0.0664 0.252,-0.31845 0.56,-0.56 0.5075,-0.39804 0.5188,-0.38672 0.1208,0.12081 -0.4181,0.53304 -0.6808,0.70256 -0.6808,0.43919 z m 78.34,-10.33778 c 0.231,-0.0924 0.507,-0.0811 0.6133,0.0253 0.1063,0.10633 -0.083,0.18197 -0.42,0.16807 -0.3728,-0.0154 -0.4486,-0.0912 -0.1933,-0.19333 z m 3.986,-0.32316 c 0.3114,-0.0811 0.7434,-0.0758 0.96,0.0118 0.2167,0.0877 -0.038,0.15404 -0.566,0.14752 -0.528,-0.007 -0.7053,-0.0782 -0.394,-0.15937 z m 7.098,-11.13825 c 10e-5,-6.16 0.043,-8.63471 0.096,-5.49935 0.053,3.13535 0.052,8.17535 -2e-4,11.2 -0.053,3.02464 -0.095,0.45935 -0.095,-5.70065 z m -354.304,6.32479 c 0.836,-0.0659 2.204,-0.0659 3.04,0 0.836,0.0659 0.152,0.11986 -1.52,0.11986 -1.672,0 -2.356,-0.0539 -1.52,-0.11986 z m 10.72,-0.29672 c 0.22,-0.0888 0.58,-0.0888 0.8,0 0.22,0.0888 0.04,0.16141 -0.4,0.16141 -0.44,0 -0.62,-0.0726 -0.4,-0.16141 z m 4.82,-0.32666 c 0.231,-0.0924 0.507,-0.0811 0.6133,0.0253 0.1063,0.10633 -0.083,0.18197 -0.42,0.16807 -0.3728,-0.0154 -0.4486,-0.0912 -0.1933,-0.19333 z m 225.82,-2.66141 c 0.3185,-0.352 0.6511,-0.64 0.7391,-0.64 0.088,0 -0.1006,0.288 -0.4191,0.64 -0.3186,0.352 -0.6512,0.64 -0.7392,0.64 -0.088,0 0.1006,-0.288 0.4192,-0.64 z m -24.6646,-6.88 c 3e-4,-3.696 0.047,-5.16417 0.1035,-3.2626 0.057,1.90156 0.056,4.92556 -5e-4,6.72 -0.057,1.79443 -0.1033,0.2386 -0.103,-3.4574 z m 27.5446,4.32 c 0.3185,-0.352 0.6511,-0.64 0.7391,-0.64 0.088,0 -0.1006,0.288 -0.4191,0.64 -0.3186,0.352 -0.6512,0.64 -0.7392,0.64 -0.088,0 0.1006,-0.288 0.4192,-0.64 z m 1.76,-1.40081 c 0,-0.0664 0.252,-0.31845 0.56,-0.56 0.5075,-0.39804 0.5188,-0.38672 0.1208,0.12081 -0.4181,0.53304 -0.6808,0.70256 -0.6808,0.43919 z m 1.92,-1.6 c 0,-0.0665 0.252,-0.31845 0.56,-0.56 0.5075,-0.39804 0.5188,-0.38672 0.1208,0.12081 -0.4181,0.53304 -0.6808,0.70256 -0.6808,0.43919 z m 85.7,-7.13778 c 0.231,-0.0924 0.507,-0.0811 0.6133,0.0253 0.1063,0.10633 -0.083,0.18197 -0.42,0.16807 -0.3728,-0.0154 -0.4486,-0.0912 -0.1933,-0.19333 z m 7.98,-0.95334 c 0.22,-0.0888 0.58,-0.0888 0.8,0 0.22,0.0888 0.04,0.16141 -0.4,0.16141 -0.44,0 -0.62,-0.0726 -0.4,-0.16141 z m 210.4769,-24.10807 v -24.48 h 4.96 4.96 v 24.48 24.48 l -0.085,-24.4 -0.085,-24.4 h -4.796 -4.796 l -0.085,24.4 -0.085,24.4 z m -205.8309,23.77825 c 0.3114,-0.0811 0.7434,-0.0758 0.96,0.0119 0.2167,0.0877 -0.038,0.15404 -0.566,0.14752 -0.528,-0.007 -0.7053,-0.0782 -0.394,-0.15937 z m 392.64,-8.32 c 0.3114,-0.0811 0.7434,-0.0758 0.96,0.0119 0.2167,0.0877 -0.038,0.15404 -0.5661,0.14752 -0.528,-0.007 -0.7052,-0.0782 -0.3939,-0.15937 z m -737.7732,-3.5292 c 0.5681,-0.0707 1.5761,-0.0718 2.24,-0.003 0.6639,0.0693 0.1992,0.12711 -1.0328,0.12853 -1.232,10e-4 -1.7753,-0.0553 -1.2072,-0.12595 z m 668.7271,-0.089 -11.84,-0.17186 11.7412,-0.0741 c 7.5631,-0.0477 11.8114,0.0398 11.9388,0.24593 0.1088,0.176 0.1533,0.28667 0.099,0.24594 -0.054,-0.0407 -5.4269,-0.15141 -11.9389,-0.24594 z m -659.7399,-0.21859 c 0.231,-0.0924 0.507,-0.0811 0.6133,0.0253 0.1063,0.10633 -0.083,0.18197 -0.42,0.16807 -0.3728,-0.0154 -0.4486,-0.0912 -0.1933,-0.19333 z m 789.6009,-0.021 c 3.3115,-0.0521 8.6395,-0.052 11.84,1.8e-4 3.2005,0.0521 0.491,0.0947 -6.021,0.0946 -6.512,-1e-4 -9.1305,-0.0428 -5.819,-0.0948 z m -785.1209,-0.29896 c 0.231,-0.0924 0.507,-0.0811 0.6133,0.0253 0.1063,0.10633 -0.083,0.18197 -0.42,0.16807 -0.3728,-0.0154 -0.4486,-0.0912 -0.1933,-0.19333 z m 427.0199,-4.18037 c 2.068,-0.0557 5.452,-0.0557 7.52,0 2.068,0.0557 0.376,0.10134 -3.76,0.10134 -4.136,0 -5.828,-0.0456 -3.76,-0.10134 z m 224.6581,-4.80016 c 2.0779,-0.0558 5.3899,-0.0556 7.36,4.1e-4 1.9701,0.0561 0.2699,0.10173 -3.7781,0.1015 -4.048,-2.2e-4 -5.6598,-0.0461 -3.5819,-0.10191 z m 135.68,0 c 2.0779,-0.0558 5.3899,-0.0556 7.36,4.1e-4 1.9701,0.0561 0.2699,0.10173 -3.7781,0.1015 -4.048,-2.2e-4 -5.6598,-0.0461 -3.5819,-0.10191 z m -274.6581,-0.88088 c 0.4134,-0.44 0.8236,-0.8 0.9116,-0.8 0.088,0 -0.1782,0.36 -0.5916,0.8 -0.4133,0.44 -0.8235,0.8 -0.9115,0.8 -0.088,0 0.1782,-0.36 0.5915,-0.8 z m 227.5706,0.16 c 0,-0.44 0.073,-0.62 0.1614,-0.4 0.089,0.22 0.089,0.58 0,0.8 -0.089,0.22 -0.1614,0.04 -0.1614,-0.4 z m -593.9705,-1.08081 c 0,-0.0664 0.252,-0.31845 0.56,-0.56 0.5075,-0.39804 0.5188,-0.38672 0.1208,0.12081 -0.4181,0.53304 -0.6808,0.70256 -0.6808,0.43919 z m 593.9705,-1.79919 c 0,-0.44 0.073,-0.62 0.1614,-0.4 0.089,0.22 0.089,0.58 0,0.8 -0.089,0.22 -0.1614,0.04 -0.1614,-0.4 z m -304.1106,-0.85859 c 0.231,-0.0924 0.507,-0.0811 0.6134,0.0253 0.1063,0.10633 -0.083,0.18197 -0.42,0.16807 -0.3728,-0.0154 -0.4486,-0.0912 -0.1934,-0.19333 z m -120.3199,-1.92 c 0.231,-0.0924 0.507,-0.0811 0.6133,0.0253 0.1063,0.10633 -0.083,0.18197 -0.42,0.16807 -0.3728,-0.0154 -0.4486,-0.0912 -0.1933,-0.19333 z m 127.4199,-0.22222 c 0,-0.0664 0.252,-0.31845 0.56,-0.56 0.5076,-0.39804 0.5189,-0.38672 0.1209,0.12081 -0.4181,0.53304 -0.6809,0.70256 -0.6809,0.43919 z m -122.2999,-0.41778 c 0.231,-0.0924 0.507,-0.0811 0.6133,0.0253 0.1063,0.10633 -0.083,0.18197 -0.42,0.16807 -0.3728,-0.0154 -0.4486,-0.0912 -0.1933,-0.19333 z m 3.2,-0.32 c 0.231,-0.0924 0.507,-0.0811 0.6133,0.0253 0.1063,0.10633 -0.083,0.18197 -0.42,0.16807 -0.3728,-0.0154 -0.4486,-0.0912 -0.1933,-0.19333 z m 3.986,-0.32316 c 0.3114,-0.0811 0.7434,-0.0758 0.96,0.0119 0.2167,0.0877 -0.038,0.15404 -0.566,0.14752 -0.528,-0.007 -0.7053,-0.0782 -0.394,-0.15937 z m 6.8668,-0.3292 c 0.5681,-0.0707 1.5761,-0.0719 2.24,-0.003 0.6639,0.0693 0.1992,0.12711 -1.0328,0.12853 -1.232,0.001 -1.7753,-0.0553 -1.2072,-0.12595 z m 4.7112,-11.12905 c 10e-5,-6.16 0.043,-8.63471 0.096,-5.49935 0.053,3.13535 0.052,8.17535 -2e-4,11.2 -0.053,3.02464 -0.095,0.45935 -0.095,-5.70065 z m 105.5302,7.84 c 0,-0.616 0.066,-0.868 0.1463,-0.56 0.081,0.308 0.081,0.812 0,1.12 -0.081,0.308 -0.1463,0.056 -0.1463,-0.56 z m -453.7481,-1.50175 c 0.3113,-0.0811 0.7433,-0.0758 0.96,0.0118 0.2166,0.0877 -0.038,0.15404 -0.5661,0.14752 -0.528,-0.007 -0.7053,-0.0782 -0.3939,-0.15937 z m 5.2939,-0.31684 c 0.231,-0.0924 0.507,-0.0811 0.6133,0.0253 0.1063,0.10633 -0.083,0.18197 -0.42,0.16807 -0.3728,-0.0154 -0.4486,-0.0912 -0.1933,-0.19333 z m 739.5391,-0.34141 c -0.398,-0.50753 -0.3867,-0.51885 0.1208,-0.12081 0.308,0.24155 0.56,0.49355 0.56,0.56 0,0.26337 -0.2627,0.0938 -0.6808,-0.43919 z m -232,-1.92 c -0.398,-0.50753 -0.3867,-0.51885 0.1208,-0.12081 0.5331,0.41803 0.7026,0.68081 0.4392,0.68081 -0.066,0 -0.3184,-0.252 -0.56,-0.56 z m -375.3191,-0.84081 c 0,-0.0665 0.252,-0.31845 0.56,-0.56 0.5075,-0.39804 0.5188,-0.38672 0.1208,0.12081 -0.4181,0.53304 -0.6808,0.70256 -0.6808,0.43919 z m 73.4154,-8.03919 c 3e-4,-3.696 0.047,-5.16417 0.1035,-3.2626 0.057,1.90156 0.056,4.92556 -5e-4,6.72 -0.057,1.79443 -0.1033,0.2386 -0.103,-3.4574 z m 284.7284,6.00198 c 1.5311,-0.0585 4.1231,-0.0588 5.76,-6.1e-4 1.6369,0.0582 0.3841,0.10608 -2.7839,0.10642 -3.168,3.3e-4 -4.5072,-0.0473 -2.9761,-0.10581 z m 257.0257,-1.44198 -0.6096,-0.72 0.72,0.6096 c 0.6767,0.57287 0.8657,0.8304 0.6096,0.8304 -0.061,0 -0.3847,-0.324 -0.72,-0.72 z m -611.1695,-0.24 c 0.3185,-0.352 0.6511,-0.64 0.7391,-0.64 0.088,0 -0.1006,0.288 -0.4191,0.64 -0.3186,0.352 -0.6512,0.64 -0.7392,0.64 -0.088,0 0.1006,-0.288 0.4192,-0.64 z m 482.7199,-6.72 -5.28,-0.18412 5.1812,-0.0679 c 3.1843,-0.0417 5.2573,0.0554 5.3788,0.25206 0.1088,0.176 0.1533,0.28943 0.099,0.25207 -0.054,-0.0374 -2.4749,-0.1508 -5.3789,-0.25207 z m -196.059,-0.23963 c 3.3115,-0.0521 8.6395,-0.052 11.84,1.8e-4 3.2005,0.0521 0.491,0.0947 -6.021,0.0946 -6.512,-10e-5 -9.1305,-0.0428 -5.819,-0.0948 z m 60.8,0 c 3.3115,-0.0521 8.6395,-0.052 11.84,1.8e-4 3.2005,0.0521 0.491,0.0947 -6.021,0.0946 -6.512,-10e-5 -9.1305,-0.0428 -5.819,-0.0948 z m 86.859,0.002 c 1.452,-0.0593 3.828,-0.0593 5.28,0 1.452,0.0593 0.264,0.10781 -2.64,0.10781 -2.904,0 -4.092,-0.0485 -2.64,-0.10781 z m 85.12,-3.5e-4 c 1.628,-0.0581 4.292,-0.0581 5.92,0 1.628,0.0581 0.296,0.1056 -2.96,0.1056 -3.256,0 -4.588,-0.0475 -2.96,-0.1056 z m 54.24,-0.001 c 3.3,-0.052 8.7,-0.052 12,0 3.3,0.052 0.6,0.0946 -6,0.0946 -6.6,0 -9.3,-0.0426 -6,-0.0946 z m 81.2639,0.002 c 1.5311,-0.0585 4.1231,-0.0588 5.76,-6.1e-4 1.6369,0.0582 0.3841,0.10608 -2.7839,0.10642 -3.168,3.3e-4 -4.5072,-0.0473 -2.9761,-0.10581 z m -476.2838,-1.26057 c 0.231,-0.0924 0.507,-0.0811 0.6133,0.0253 0.1063,0.10633 -0.083,0.18197 -0.42,0.16807 -0.3728,-0.0154 -0.4486,-0.0912 -0.1933,-0.19333 z m 4.8,-0.64 c 0.231,-0.0924 0.507,-0.0811 0.6133,0.0253 0.1063,0.10633 -0.083,0.18197 -0.42,0.16807 -0.3728,-0.0154 -0.4486,-0.0912 -0.1933,-0.19333 z m 2.88,-0.32 c 0.231,-0.0924 0.507,-0.0811 0.6133,0.0253 0.1063,0.10633 -0.083,0.18197 -0.42,0.16807 -0.3728,-0.0154 -0.4486,-0.0912 -0.1933,-0.19333 z m 3.52,-0.32 c 0.231,-0.0924 0.507,-0.0811 0.6133,0.0253 0.1063,0.10633 -0.083,0.18197 -0.42,0.16807 -0.3728,-0.0154 -0.4486,-0.0912 -0.1933,-0.19333 z m 4.14,-0.31334 c 0.22,-0.0888 0.58,-0.0888 0.8,0 0.22,0.0888 0.04,0.16141 -0.4,0.16141 -0.44,0 -0.62,-0.0726 -0.4,-0.16141 z m -183.44,-0.74807 c 0.3185,-0.352 0.6511,-0.64 0.7391,-0.64 0.088,0 -0.1006,0.288 -0.4191,0.64 -0.3186,0.352 -0.6512,0.64 -0.7392,0.64 -0.088,0 0.1006,-0.288 0.4192,-0.64 z m 190.4857,0.40809 c 0.5751,-0.0712 1.4391,-0.0697 1.92,0.003 0.4808,0.073 0.01,0.13128 -1.0457,0.12949 -1.056,-0.002 -1.4495,-0.0615 -0.8743,-0.13276 z m -223.6057,-9.1689 c 0,-0.0664 0.252,-0.31845 0.56,-0.56 0.5075,-0.39804 0.5188,-0.38672 0.1208,0.12081 -0.4181,0.53304 -0.6808,0.70256 -0.6808,0.43919 z m -125.5143,-3.9511 c 0.5751,-0.0712 1.4391,-0.0697 1.92,0.003 0.4808,0.073 0.01,0.13128 -1.0457,0.12949 -1.056,-0.002 -1.4495,-0.0615 -0.8743,-0.13276 z m 8.3343,-0.30668 c 0.231,-0.0924 0.507,-0.0811 0.6133,0.0253 0.1063,0.10633 -0.083,0.18197 -0.42,0.16807 -0.3728,-0.0154 -0.4486,-0.0912 -0.1933,-0.19333 z m 123.74,-2.02141 c 0.3185,-0.352 0.6511,-0.64 0.7391,-0.64 0.088,0 -0.1006,0.288 -0.4191,0.64 -0.3186,0.352 -0.6512,0.64 -0.7392,0.64 -0.088,0 0.1006,-0.288 0.4192,-0.64 z m 5.6,-5.88081 c 0,-0.0665 0.252,-0.31845 0.56,-0.56 0.5075,-0.39804 0.5188,-0.38672 0.1208,0.12081 -0.4181,0.53304 -0.6808,0.70256 -0.6808,0.43919 z m 314.1799,-0.41778 c 0.231,-0.0924 0.507,-0.0811 0.6134,0.0253 0.1063,0.10633 -0.083,0.18197 -0.42,0.16807 -0.3728,-0.0154 -0.4486,-0.0912 -0.1934,-0.19333 z m 6.72,0 c 0.231,-0.0924 0.507,-0.0811 0.6134,0.0253 0.1063,0.10633 -0.083,0.18197 -0.42,0.16807 -0.3728,-0.0154 -0.4486,-0.0912 -0.1934,-0.19333 z m 280.64,0 c 0.231,-0.0924 0.507,-0.0811 0.6134,0.0253 0.1063,0.10633 -0.083,0.18197 -0.42,0.16807 -0.3728,-0.0154 -0.4486,-0.0912 -0.1934,-0.19333 z m -216.589,-0.98006 18.231,-0.0866 0.1031,-4.31781 0.1031,-4.31781 -0.014,4.40043 -0.014,4.40042 -18.32,0.004 -18.32,0.004 z m 39.1963,-0.16135 c -0.084,-0.22 -0.1146,-11.272 -0.068,-24.56 l 0.085,-24.16 0.078,24.39167 0.078,24.39166 4.88,0.0973 4.88,0.0973 -4.89,0.071 c -3.6709,0.0533 -4.9281,-0.0287 -5.0427,-0.32898 z m 38.8279,0.16168 c 1.4604,-0.0594 3.7644,-0.0591 5.12,7.4e-4 1.3557,0.0598 0.1608,0.10846 -2.6552,0.10805 -2.816,-4e-4 -3.9251,-0.0494 -2.4648,-0.10879 z m 38.08,0 c 1.4604,-0.0594 3.7644,-0.0591 5.12,7.4e-4 1.3557,0.0598 0.1608,0.10846 -2.6552,0.10805 -2.816,-4e-4 -3.9251,-0.0494 -2.4648,-0.10879 z m 36.6248,4.7e-4 c 1.364,-0.06 3.596,-0.06 4.96,0 1.364,0.06 0.248,0.10906 -2.48,0.10906 -2.728,0 -3.844,-0.0491 -2.48,-0.10906 z m 105.12,-2.2e-4 c 1.452,-0.0593 3.828,-0.0593 5.28,0 1.452,0.0593 0.264,0.10781 -2.64,0.10781 -2.904,0 -4.092,-0.0485 -2.64,-0.10781 z m 45.9358,-4.2e-4 c 1.5486,-0.0588 3.9966,-0.0585 5.44,6.7e-4 1.4433,0.0592 0.1762,0.10725 -2.8158,0.10689 -2.992,-3.7e-4 -4.1729,-0.0488 -2.6242,-0.10756 z m -585.9488,-10.56151 c 0.067,-8.89891 0.1778,-7.88294 0.3311,3.04039 0.045,3.21221 -0.026,5.84021 -0.158,5.84 -0.132,-2.1e-4 -0.2099,-3.99639 -0.1731,-8.88039 z m -128.2269,6 c 0.3185,-0.352 0.6511,-0.64 0.7391,-0.64 0.088,0 -0.1006,0.288 -0.4191,0.64 -0.3186,0.352 -0.6512,0.64 -0.7392,0.64 -0.088,0 0.1006,-0.288 0.4192,-0.64 z m 319.8227,-2.8 -1.1028,-1.2 1.2,1.10278 c 0.66,0.60652 1.2,1.14652 1.2,1.2 0,0.24436 -0.2707,0.0142 -1.2972,-1.10278 z m 325.4572,1.07919 c 0,-0.0665 0.252,-0.31845 0.56,-0.56 0.5076,-0.39804 0.5189,-0.38672 0.1209,0.12081 -0.4181,0.53304 -0.6809,0.70256 -0.6809,0.43919 z m -427.5799,-0.41778 c 0.231,-0.0924 0.507,-0.0811 0.6133,0.0253 0.1063,0.10633 -0.083,0.18197 -0.42,0.16807 -0.3728,-0.0154 -0.4486,-0.0912 -0.1933,-0.19333 z m 3.2,-0.32 c 0.231,-0.0924 0.507,-0.0811 0.6133,0.0253 0.1063,0.10633 -0.083,0.18197 -0.42,0.16807 -0.3728,-0.0154 -0.4486,-0.0912 -0.1933,-0.19333 z m 3.52,-0.32 c 0.231,-0.0924 0.507,-0.0811 0.6133,0.0253 0.1063,0.10633 -0.083,0.18197 -0.42,0.16807 -0.3728,-0.0154 -0.4486,-0.0912 -0.1933,-0.19333 z m 4.306,-0.32316 c 0.3114,-0.0811 0.7434,-0.0758 0.96,0.0118 0.2167,0.0877 -0.038,0.15404 -0.566,0.14752 -0.528,-0.007 -0.7053,-0.0782 -0.394,-0.15937 z m 7.034,-0.32745 c 0.484,-0.0733 1.276,-0.0733 1.76,0 0.484,0.0733 0.088,0.13331 -0.88,0.13331 -0.968,0 -1.364,-0.06 -0.88,-0.13331 z m 110.2599,0.0106 c 0.231,-0.0924 0.507,-0.0811 0.6134,0.0253 0.1063,0.10633 -0.083,0.18197 -0.42,0.16807 -0.3728,-0.0154 -0.4486,-0.0912 -0.1934,-0.19333 z m 274.88,0 c 0.231,-0.0924 0.507,-0.0811 0.6134,0.0253 0.1063,0.10633 -0.083,0.18197 -0.42,0.16807 -0.3728,-0.0154 -0.4486,-0.0912 -0.1934,-0.19333 z m -378.3559,-11.14141 c 10e-5,-6.16 0.043,-8.63471 0.096,-5.49935 0.053,3.13535 0.052,8.17535 -2e-4,11.2 -0.053,3.02464 -0.095,0.45935 -0.095,-5.70065 z m 273.0951,10.16 c -0.398,-0.50753 -0.3867,-0.51885 0.1208,-0.12081 0.5331,0.41803 0.7026,0.68081 0.4392,0.68081 -0.066,0 -0.3184,-0.252 -0.56,-0.56 z m -2.88,-3.2 c -0.398,-0.50753 -0.3867,-0.51885 0.1208,-0.12081 0.5331,0.41803 0.7026,0.68081 0.4392,0.68081 -0.066,0 -0.3184,-0.252 -0.56,-0.56 z m -504.7591,-0.4 c 0.3185,-0.352 0.6511,-0.64 0.7391,-0.64 0.088,0 -0.1006,0.288 -0.4191,0.64 -0.3186,0.352 -0.6512,0.64 -0.7392,0.64 -0.088,0 0.1006,-0.288 0.4192,-0.64 z m -115.5939,-0.22175 c 0.3113,-0.0811 0.7433,-0.0758 0.96,0.0118 0.2166,0.0877 -0.038,0.15404 -0.5661,0.14752 -0.528,-0.007 -0.7053,-0.0782 -0.3939,-0.15937 z m 4.6539,-0.31684 c 0.231,-0.0924 0.507,-0.0811 0.6133,0.0253 0.1063,0.10633 -0.083,0.18197 -0.42,0.16807 -0.3728,-0.0154 -0.4486,-0.0912 -0.1933,-0.19333 z m 208.5062,-8.58141 c 5e-4,-2.464 0.051,-3.4297 0.1116,-2.146 0.061,1.2837 0.061,3.2997 -9e-4,4.48 -0.061,1.1803 -0.1112,0.13 -0.1107,-2.334 z m 487.9696,-2.72 c 0,-0.968 0.06,-1.364 0.1333,-0.88 0.073,0.484 0.073,1.276 0,1.76 -0.073,0.484 -0.1333,0.088 -0.1333,-0.88 z m -615.7758,-0.44081 c 0,-0.0664 0.252,-0.31845 0.56,-0.56 0.5075,-0.39804 0.5188,-0.38672 0.1208,0.12081 -0.4181,0.53304 -0.6808,0.70256 -0.6808,0.43919 z m 345.6252,-0.70585 c 0.015,-0.37278 0.091,-0.44861 0.1933,-0.19334 0.093,0.231 0.081,0.507 -0.025,0.61334 -0.1064,0.10633 -0.182,-0.0827 -0.1681,-0.42 z m -110.1652,-2.91193 c 0.231,-0.0924 0.507,-0.0811 0.6133,0.0253 0.1063,0.10633 -0.083,0.18197 -0.42,0.16807 -0.3728,-0.0154 -0.4486,-0.0912 -0.1933,-0.19333 z m 2.88,-0.32 c 0.231,-0.0924 0.507,-0.0811 0.6133,0.0253 0.1063,0.10633 -0.083,0.18197 -0.42,0.16807 -0.3728,-0.0154 -0.4486,-0.0912 -0.1933,-0.19333 z m 3.2,-0.32 c 0.231,-0.0924 0.507,-0.0811 0.6133,0.0253 0.1063,0.10633 -0.083,0.18197 -0.42,0.16807 -0.3728,-0.0154 -0.4486,-0.0912 -0.1933,-0.19333 z m -236.74,-0.20154 c 0,-0.0551 0.468,-0.52307 1.04,-1.04 l 1.04,-0.93987 -0.9399,1.04 c -0.8761,0.96943 -1.1401,1.18709 -1.1401,0.93987 z m 240.58,-0.11846 c 0.231,-0.0924 0.507,-0.0811 0.6133,0.0253 0.1063,0.10633 -0.083,0.18197 -0.42,0.16807 -0.3728,-0.0153 -0.4486,-0.0912 -0.1933,-0.19333 z m 4.626,-0.32316 c 0.3114,-0.0811 0.7434,-0.0758 0.96,0.0118 0.2167,0.0877 -0.038,0.15404 -0.566,0.14752 -0.528,-0.007 -0.7053,-0.0782 -0.394,-0.15937 z m 7.034,-0.32745 c 0.484,-0.0733 1.276,-0.0733 1.76,0 0.484,0.0733 0.088,0.13331 -0.88,0.13331 -0.968,0 -1.364,-0.06 -0.88,-0.13331 z m 402.4627,-5.1308 -1.1028,-1.2 1.2,1.10278 c 0.66,0.60652 1.2,1.14652 1.2,1.2 0,0.24436 -0.2707,0.0142 -1.2972,-1.10278 z m -128.9836,0.32 c -0.398,-0.50753 -0.3867,-0.51885 0.1208,-0.12081 0.5331,0.41803 0.7026,0.68081 0.4392,0.68081 -0.066,0 -0.3184,-0.252 -0.56,-0.56 z m 91.8808,-6.32 c 0.4134,-0.44 0.8236,-0.8 0.9116,-0.8 0.088,0 -0.1782,0.36 -0.5916,0.8 -0.4133,0.44 -0.8235,0.8 -0.9115,0.8 -0.088,0 0.1782,-0.36 0.5915,-0.8 z m -636.1599,-1.24081 c 0,-0.0664 0.252,-0.31845 0.56,-0.56 0.5075,-0.39804 0.5188,-0.38672 0.1208,0.12081 -0.4181,0.53304 -0.6808,0.70256 -0.6808,0.43919 z m 6.72,-6.72 c 0,-0.0665 0.252,-0.31845 0.56,-0.56 0.5075,-0.39804 0.5188,-0.38672 0.1208,0.12081 -0.4181,0.53304 -0.6808,0.70256 -0.6808,0.43919 z m 375.2999,-0.41778 c 0.231,-0.0924 0.507,-0.0811 0.6134,0.0253 0.1063,0.10633 -0.083,0.18197 -0.42,0.16807 -0.3728,-0.0154 -0.4486,-0.0912 -0.1934,-0.19333 z m 273.28,0 c 0.231,-0.0924 0.507,-0.0811 0.6134,0.0253 0.1063,0.10633 -0.083,0.18197 -0.42,0.16807 -0.3728,-0.0154 -0.4486,-0.0912 -0.1934,-0.19333 z m -157.06,-5.98222 c 0,-0.0664 0.252,-0.31845 0.56,-0.56 0.5076,-0.39804 0.5189,-0.38672 0.1209,0.12081 -0.4181,0.53304 -0.6809,0.70256 -0.6809,0.43919 z m 3.52,-3.2 c 0,-0.0665 0.252,-0.31845 0.56,-0.56 0.5076,-0.39804 0.5189,-0.38672 0.1209,0.12081 -0.4181,0.53304 -0.6809,0.70256 -0.6809,0.43919 z m -361.5747,-48.38585 c 0.015,-0.37278 0.091,-0.44861 0.1934,-0.19334 0.092,0.231 0.081,0.507 -0.025,0.61334 -0.1063,0.10633 -0.182,-0.0827 -0.1681,-0.42 z m 0.32,-4.16 c 0.015,-0.37278 0.091,-0.44861 0.1934,-0.19334 0.092,0.231 0.081,0.507 -0.025,0.61334 -0.1063,0.10633 -0.182,-0.0827 -0.1681,-0.42 z m -29.7347,-2.05334 c 0,-0.44 0.073,-0.62 0.1614,-0.4 0.089,0.22 0.089,0.58 0,0.8 -0.089,0.22 -0.1614,0.04 -0.1614,-0.4 z m -52.1853,-0.50666 c 0.015,-0.37278 0.091,-0.44861 0.1934,-0.19334 0.092,0.231 0.081,0.507 -0.025,0.61334 -0.1063,0.10633 -0.182,-0.0827 -0.1681,-0.42 z m 30.1053,-2.69334 c 0,-0.44 0.073,-0.62 0.1614,-0.4 0.089,0.22 0.089,0.58 0,0.8 -0.089,0.22 -0.1614,0.04 -0.1614,-0.4 z m -52.1853,-0.18666 c 0.015,-0.37278 0.091,-0.44861 0.1934,-0.19334 0.092,0.231 0.081,0.507 -0.025,0.61334 -0.1063,0.10633 -0.182,-0.0827 -0.1681,-0.42 z m 104.369,-0.77334 c 0,-0.616 0.066,-0.868 0.1463,-0.56 0.081,0.308 0.081,0.812 0,1.12 -0.08,0.308 -0.1463,0.056 -0.1463,-0.56 z m -81.9319,-0.8 c 0.01,-0.528 0.078,-0.70526 0.1594,-0.39391 0.081,0.31135 0.076,0.74335 -0.012,0.96 -0.088,0.21665 -0.1541,-0.0381 -0.1476,-0.56609 z m 52.1784,-1.28 c 0,-0.704 0.069,-0.95432 0.1456,-0.55626 0.076,0.39805 0.074,0.97405 -0.01,1.28 -0.08,0.30594 -0.1427,-0.0197 -0.1391,-0.72374 z m -74.2336,-3.04 c 0,-0.792 0.062,-1.116 0.1387,-0.72 0.076,0.396 0.076,1.044 0,1.44 -0.076,0.396 -0.1387,0.072 -0.1387,-0.72 z m 57.7529,-3.75948 c 3.036,-0.0526 8.004,-0.0526 11.04,0 3.036,0.0526 0.552,0.0956 -5.52,0.0956 -6.072,0 -8.556,-0.043 -5.52,-0.0956 z"
         id="path28" /><path
         style="fill:#89b4d0"
         d="m -1967.6592,-388.23237 c 0,-39.16 0.037,-55.18 0.083,-35.6 0.046,19.58 0.046,51.62 0,71.2 -0.046,19.58 -0.083,3.56 -0.083,-35.6 z m 28.4804,-11.52 c 0,-45.496 0.037,-64.108 0.082,-41.36 0.045,22.748 0.045,59.972 0,82.72 -0.045,22.748 -0.082,4.136 -0.082,-41.36 z m 52.1379,68.64 c 3e-4,-3.696 0.047,-5.16417 0.1035,-3.2626 0.057,1.90156 0.056,4.92556 -5e-4,6.72 -0.057,1.79443 -0.1033,0.2386 -0.103,-3.4574 z m 23.5698,-0.98666 c 0.015,-0.37278 0.091,-0.44861 0.1934,-0.19334 0.092,0.231 0.081,0.507 -0.025,0.61334 -0.1063,0.10633 -0.182,-0.0827 -0.1681,-0.42 z m -23.2503,-51.65334 c 0,-3.608 0.047,-5.084 0.1037,-3.28 0.057,1.804 0.057,4.756 0,6.56 -0.057,1.804 -0.1037,0.328 -0.1037,-3.28 z m 252.185,-2.56 c 0.3186,-0.352 0.6512,-0.64 0.7392,-0.64 0.088,0 -0.1006,0.288 -0.4192,0.64 -0.3185,0.352 -0.6511,0.64 -0.7391,0.64 -0.088,0 0.1006,-0.288 0.4191,-0.64 z m -199.5199,-10.68081 c 0,-0.0665 0.252,-0.31845 0.56,-0.56 0.5075,-0.39804 0.5188,-0.38672 0.1208,0.12081 -0.4181,0.53304 -0.6808,0.70256 -0.6808,0.43919 z m -29.2902,-23.71919 c 0,-10.208 0.04,-14.43028 0.09,-9.38284 0.049,5.04743 0.049,13.39943 10e-5,18.56 -0.049,5.16056 -0.09,1.03084 -0.09,-9.17716 z m 35.6902,17.31919 c 0,-0.0665 0.252,-0.31845 0.56,-0.56 0.5075,-0.39804 0.5188,-0.38672 0.1208,0.12081 -0.4181,0.53304 -0.6808,0.70256 -0.6808,0.43919 z m -23.36,-7.68 c 0,-0.0665 0.252,-0.31845 0.56,-0.56 0.5075,-0.39804 0.5188,-0.38672 0.1208,0.12081 -0.4181,0.53304 -0.6808,0.70256 -0.6808,0.43919 z m 521.5757,-13.55919 -0.7758,-0.88 0.88,0.77578 c 0.484,0.42668 0.88,0.82268 0.88,0.88 0,0.25097 -0.2591,0.0467 -0.9842,-0.77578 z m -307.2,-0.32 -0.7758,-0.88 0.88,0.77578 c 0.484,0.42668 0.88,0.82268 0.88,0.88 0,0.25097 -0.2591,0.0467 -0.9842,-0.77578 z m -249.7608,-11.28 c 0,-3.608 0.047,-5.084 0.1037,-3.28 0.057,1.804 0.057,4.756 0,6.56 -0.057,1.804 -0.1037,0.328 -0.1037,-3.28 z m 125.5651,2.34141 c 0.231,-0.0924 0.507,-0.0811 0.6133,0.0253 0.1063,0.10633 -0.083,0.18197 -0.42,0.16807 -0.3728,-0.0154 -0.4486,-0.0912 -0.1933,-0.19333 z m 3.84,-0.32 c 0.231,-0.0924 0.507,-0.0811 0.6133,0.0253 0.1063,0.10633 -0.083,0.18197 -0.42,0.16807 -0.3728,-0.0154 -0.4486,-0.0912 -0.1933,-0.19333 z m -103.94,-8.86222 c 0,-0.0665 0.252,-0.31845 0.56,-0.56 0.5075,-0.39804 0.5188,-0.38672 0.1208,0.12081 -0.4181,0.53304 -0.6808,0.70256 -0.6808,0.43919 z m 100.74,-12.89778 c 0.231,-0.0924 0.507,-0.0811 0.6133,0.0253 0.1063,0.10633 -0.083,0.18197 -0.42,0.16807 -0.3728,-0.0154 -0.4486,-0.0912 -0.1933,-0.19333 z m 4.946,-0.32316 c 0.3114,-0.0811 0.7434,-0.0758 0.96,0.0119 0.2167,0.0877 -0.038,0.15404 -0.566,0.14752 -0.528,-0.007 -0.7053,-0.0782 -0.394,-0.15937 z m 409.8339,-5.95838 c 0,-0.0551 0.468,-0.52307 1.04,-1.04 l 1.04,-0.93987 -0.9398,1.04 c -0.8761,0.96943 -1.1402,1.18709 -1.1402,0.93987 z m -291.68,-15.89987 c 0.3186,-0.352 0.6512,-0.64 0.7392,-0.64 0.088,0 -0.1006,0.288 -0.4192,0.64 -0.3185,0.352 -0.6511,0.64 -0.7391,0.64 -0.088,0 0.1006,-0.288 0.4191,-0.64 z m -304.1599,-2.36081 c 0,-0.0665 0.252,-0.31845 0.56,-0.56 0.5075,-0.39804 0.5188,-0.38672 0.1208,0.12081 -0.4181,0.53304 -0.6808,0.70256 -0.6808,0.43919 z m 55.1754,-8.35919 c 3e-4,-3.696 0.047,-5.16417 0.1035,-3.2626 0.057,1.90156 0.056,4.92556 -5e-4,6.72 -0.057,1.79443 -0.1033,0.2386 -0.103,-3.4574 z m 124.6046,3.46141 c 0.231,-0.0924 0.507,-0.0811 0.6133,0.0253 0.1063,0.10633 -0.083,0.18197 -0.42,0.16807 -0.3728,-0.0154 -0.4486,-0.0912 -0.1933,-0.19333 z m 5.58,-0.32199 c 0.308,-0.0805 0.812,-0.0805 1.12,0 0.308,0.0805 0.056,0.14634 -0.56,0.14634 -0.616,0 -0.868,-0.0659 -0.56,-0.14634 z m 180.0557,-13.45942 -0.7758,-0.88 0.88,0.77578 c 0.8225,0.72509 1.0268,0.98422 0.7758,0.98422 -0.057,0 -0.4533,-0.396 -0.88,-0.88 z m -61.1366,-0.32 c -0.398,-0.50753 -0.3867,-0.51885 0.1208,-0.12081 0.308,0.24155 0.56,0.49355 0.56,0.56 0,0.26337 -0.2627,0.0938 -0.6808,-0.43919 z m -131.2191,-7.33859 c 0.231,-0.0924 0.507,-0.0811 0.6133,0.0253 0.1063,0.10633 -0.083,0.18197 -0.42,0.16807 -0.3728,-0.0154 -0.4486,-0.0912 -0.1933,-0.19333 z m 3.52,-0.32 c 0.231,-0.0924 0.507,-0.0811 0.6133,0.0253 0.1063,0.10633 -0.083,0.18197 -0.42,0.16807 -0.3728,-0.0154 -0.4486,-0.0912 -0.1933,-0.19333 z m 4.46,-0.31334 c 0.22,-0.0888 0.58,-0.0888 0.8,0 0.22,0.0888 0.04,0.16141 -0.4,0.16141 -0.44,0 -0.62,-0.0726 -0.4,-0.16141 z m 9.1244,-0.33769 c 0.4864,-0.0736 1.2064,-0.0716 1.6,0.004 0.3935,0.0759 0,0.13613 -0.8844,0.13373 -0.88,-0.002 -1.2021,-0.0645 -0.7156,-0.1381 z m -193.0444,-1.17119 c 0,-0.0665 0.252,-0.31845 0.56,-0.56 0.5075,-0.39804 0.5188,-0.38672 0.1208,0.12081 -0.4181,0.53304 -0.6808,0.70256 -0.6808,0.43919 z m 58.3754,-32.35919 c 3e-4,-3.696 0.047,-5.16417 0.1035,-3.2626 0.057,1.90156 0.057,4.92556 -5e-4,6.72 -0.057,1.79443 -0.1033,0.2386 -0.103,-3.4574 z m 259.5445,4 c 0.3186,-0.352 0.6512,-0.64 0.7392,-0.64 0.088,0 -0.1006,0.288 -0.4192,0.64 -0.3185,0.352 -0.6511,0.64 -0.7391,0.64 -0.088,0 0.1006,-0.288 0.4191,-0.64 z m -145.1799,-0.21859 c 0.231,-0.0924 0.507,-0.0811 0.6133,0.0253 0.1063,0.10633 -0.083,0.18197 -0.42,0.16807 -0.3728,-0.0154 -0.4486,-0.0912 -0.1933,-0.19333 z m 3.52,-0.32 c 0.231,-0.0924 0.507,-0.0811 0.6133,0.0253 0.1063,0.10633 -0.083,0.18197 -0.42,0.16807 -0.3728,-0.0154 -0.4486,-0.0912 -0.1933,-0.19333 z m 4.16,-0.32 c 0.231,-0.0924 0.507,-0.0811 0.6133,0.0253 0.1063,0.10633 -0.083,0.18197 -0.42,0.16807 -0.3728,-0.0153 -0.4486,-0.0912 -0.1933,-0.19333 z m 5.9,-0.32199 c 0.308,-0.0805 0.812,-0.0805 1.12,0 0.308,0.0805 0.056,0.14634 -0.56,0.14634 -0.616,0 -0.868,-0.0658 -0.56,-0.14634 z m -105.2102,-29.69942 c 0,-10.208 0.04,-14.43028 0.09,-9.38284 0.05,5.04743 0.05,13.39943 10e-5,18.56 -0.049,5.16056 -0.09,1.03084 -0.09,-9.17716 z m 91.9502,8.58141 c 0.231,-0.0924 0.507,-0.0811 0.6133,0.0253 0.1063,0.10633 -0.083,0.18197 -0.42,0.16807 -0.3728,-0.0154 -0.4486,-0.0912 -0.1933,-0.19333 z m 3.82,-0.31334 c 0.22,-0.0888 0.58,-0.0888 0.8,0 0.22,0.0888 0.04,0.16141 -0.4,0.16141 -0.44,0 -0.62,-0.0726 -0.4,-0.16141 z m 5.12,-0.32 c 0.22,-0.0888 0.58,-0.0888 0.8,0 0.22,0.0888 0.04,0.16141 -0.4,0.16141 -0.44,0 -0.62,-0.0726 -0.4,-0.16141 z m 9.28,-0.34237 c 0.748,-0.0674 1.972,-0.0674 2.72,0 0.748,0.0674 0.136,0.12249 -1.36,0.12249 -1.496,0 -2.108,-0.0551 -1.36,-0.12249 z m 369.8399,-5.2057 c 0.3186,-0.352 0.6512,-0.64 0.7392,-0.64 0.088,0 -0.1006,0.288 -0.4192,0.64 -0.3185,0.352 -0.6511,0.64 -0.7391,0.64 -0.088,0 0.1006,-0.288 0.4191,-0.64 z m 36.4599,-6.16 -0.9399,-1.04 1.04,0.93987 c 0.9695,0.87609 1.1871,1.14013 0.9399,1.14013 -0.055,0 -0.5231,-0.468 -1.04,-1.04 z"
         id="path27" /><path
         style="fill:#63acde"
         d="m -1887.0542,-320.87237 c 7e-4,-2.112 0.052,-2.93435 0.1151,-1.82746 0.063,1.1069 0.062,2.8349 0,3.84 -0.063,1.00511 -0.1146,0.0995 -0.114,-2.01254 z m 23.3632,-0.48 c 0,-2.376 0.05,-3.348 0.112,-2.16 0.062,1.188 0.062,3.132 0,4.32 -0.062,1.188 -0.112,0.216 -0.112,-2.16 z m 0.229,-42.3268 -0.034,-31.2868 2.955,-4.0732 c 22.4808,-30.98698 56.1662,-51.19957 93.423,-56.05743 4.7108,-0.61423 13.4717,-1.29577 16.6565,-1.29577 h 1.5255 v 10.99048 10.99048 l -5.68,0.20308 c -28.9426,1.03478 -58.1159,14.52165 -78.3957,36.24234 -16.2599,17.41521 -26.5256,38.83322 -29.9737,62.53575 -0.3948,2.71416 -0.4455,-0.29598 -0.4763,-28.24893 z m -23.2584,-6.9532 c 0,-3.784 0.046,-5.332 0.1028,-3.44 0.057,1.892 0.057,4.988 0,6.88 -0.056,1.892 -0.1028,0.344 -0.1028,-3.44 z m 0.3195,-52.64 c 3e-4,-3.696 0.047,-5.16417 0.1035,-3.2626 0.057,1.90156 0.056,4.92556 -5e-4,6.72 -0.057,1.79443 -0.1033,0.2386 -0.103,-3.4574 z m 22.9669,-16.64 c 0.01,-0.528 0.078,-0.70526 0.1594,-0.39391 0.081,0.31135 0.076,0.74335 -0.012,0.96 -0.088,0.21665 -0.1541,-0.0381 -0.1476,-0.56609 z m 0.2565,-13.93203 c -7e-4,-7.12138 -0.054,-14.96397 -0.1192,-17.42797 -0.084,-3.17265 -0.06,-3.61185 0.081,-1.50506 l 0.1993,2.97494 3.2,-2.30162 c 30.463,-21.91078 67.0376,-34.34849 104.08,-35.39381 l 6.8,-0.19189 v 10.87876 10.87876 l -5.7884,0.2173 c -34.797,1.30635 -67.1389,12.68731 -94.8516,33.37784 -4.1792,3.12018 -9.6737,7.65781 -12.08,9.97625 l -1.52,1.46448 z m -22.9034,-21.90797 c 3e-4,-3.696 0.047,-5.16417 0.1035,-3.2626 0.057,1.90156 0.056,4.92556 -5e-4,6.72 -0.057,1.79443 -0.1033,0.2386 -0.103,-3.4574 z m 22.9046,-43.80383 v -12.60383 l 6.48,-3.20504 c 31.433,-15.54693 65.7033,-24.10462 99.84,-24.9312 l 7.92,-0.19177 v 10.87688 10.87687 l -6.8,0.20937 c -36.2578,1.11633 -71.17,10.94112 -102.4668,28.83563 -2.6328,1.50531 -4.8288,2.73692 -4.88,2.73692 -0.051,0 -0.093,-5.67172 -0.093,-12.60383 z m -22.5846,-8.67617 c 3e-4,-3.696 0.047,-5.16417 0.1035,-3.2626 0.057,1.90156 0.057,4.92556 -5e-4,6.72 -0.057,1.79443 -0.1033,0.2386 -0.103,-3.4574 z m 22.7345,-76.96 c 0,-10.296 0.04,-14.508 0.09,-9.36 0.049,5.148 0.049,13.572 0,18.72 -0.05,5.148 -0.09,0.936 -0.09,-9.36 z m -0.5299,-51.41859 c 0.231,-0.0924 0.507,-0.0811 0.6133,0.0253 0.1063,0.10633 -0.083,0.18197 -0.42,0.16807 -0.3728,-0.0154 -0.4486,-0.0912 -0.1933,-0.19333 z"
         id="path26" /><path
         style="fill:#7c95a0"
         d="m -1346.9364,-380.13295 c 0.308,-0.0805 0.812,-0.0805 1.12,0 0.308,0.0805 0.056,0.14634 -0.56,0.14634 -0.616,0 -0.868,-0.0659 -0.56,-0.14634 z m 2.88,0 c 0.308,-0.0805 0.812,-0.0805 1.12,0 0.308,0.0805 0.056,0.14634 -0.56,0.14634 -0.616,0 -0.868,-0.0659 -0.56,-0.14634 z m -330.8078,-25.21942 c 0,-13.376 0.04,-18.80133 0.088,-12.0563 0.048,6.74503 0.048,17.68903 -10e-5,24.32 -0.048,6.63097 -0.088,1.1123 -0.088,-12.2637 z m 121.9101,14.4 c -10e-5,-5.456 0.043,-7.73298 0.097,-5.05997 0.053,2.67302 0.054,7.13702 2e-4,9.92 -0.053,2.78299 -0.097,0.59597 -0.097,-4.86003 z m 174.7299,-14.4 c 0,-13.376 0.04,-18.80133 0.088,-12.0563 0.048,6.74503 0.048,17.68903 -10e-5,24.32 -0.048,6.63097 -0.088,1.1123 -0.088,-12.2637 z m -11.713,22.64 c -0.398,-0.50753 -0.3867,-0.51885 0.1208,-0.12081 0.5331,0.41803 0.7026,0.68081 0.4392,0.68081 -0.066,0 -0.3184,-0.252 -0.56,-0.56 z m -2.56,-2.88 c -0.398,-0.50753 -0.3867,-0.51885 0.1208,-0.12081 0.308,0.24155 0.56,0.49355 0.56,0.56 0,0.26337 -0.2627,0.0939 -0.6808,-0.43919 z m 64.2008,-0.4 c 0.3186,-0.352 0.6512,-0.64 0.7392,-0.64 0.088,0 -0.1006,0.288 -0.4192,0.64 -0.3185,0.352 -0.6512,0.64 -0.7392,0.64 -0.088,0 0.1007,-0.288 0.4192,-0.64 z m -333.5026,-3.75896 c 1.9016,-0.0567 4.9256,-0.0565 6.72,4.7e-4 1.7945,0.0569 0.2386,0.10331 -3.4574,0.10304 -3.696,-2.6e-4 -5.1641,-0.0468 -3.2626,-0.10351 z m 263.8618,-1.92104 c -0.398,-0.50753 -0.3867,-0.51885 0.1208,-0.12081 0.5331,0.41803 0.7026,0.68081 0.4392,0.68081 -0.066,0 -0.3184,-0.252 -0.56,-0.56 z m 63.4261,-2.82666 c 0.015,-0.37278 0.091,-0.44861 0.1933,-0.19334 0.092,0.231 0.081,0.507 -0.025,0.61334 -0.1064,0.10633 -0.182,-0.0827 -0.1681,-0.42 z m -68.8661,-3.25334 c -0.398,-0.50753 -0.3867,-0.51885 0.1208,-0.12081 0.5331,0.41803 0.7026,0.68081 0.4392,0.68081 -0.066,0 -0.3184,-0.252 -0.56,-0.56 z m -247.0592,-3.81859 c 0.231,-0.0924 0.507,-0.0811 0.6134,0.0253 0.1063,0.10633 -0.083,0.18197 -0.42,0.16807 -0.3728,-0.0154 -0.4486,-0.0912 -0.1934,-0.19333 z m 323.0696,-1.78141 -0.6096,-0.72 0.72,0.6096 c 0.6767,0.57287 0.8657,0.8304 0.6096,0.8304 -0.061,0 -0.3847,-0.324 -0.72,-0.72 z m -81.1304,-0.16 c -0.398,-0.50753 -0.3867,-0.51885 0.1208,-0.12081 0.308,0.24155 0.56,0.49355 0.56,0.56 0,0.26337 -0.2627,0.0938 -0.6808,-0.43919 z m -242.8992,-6.37859 c 0.231,-0.0924 0.507,-0.0811 0.6134,0.0253 0.1063,0.10633 -0.083,0.18197 -0.42,0.16807 -0.3728,-0.0154 -0.4486,-0.0912 -0.1934,-0.19333 z m 98.4426,-9.70141 c 0,-5.544 0.044,-7.812 0.097,-5.04 0.053,2.772 0.053,7.308 0,10.08 -0.053,2.772 -0.097,0.504 -0.097,-5.04 z m -90.652,4.16 c 0,-0.44 0.073,-0.62 0.1614,-0.4 0.089,0.22 0.089,0.58 0,0.8 -0.089,0.22 -0.1614,0.04 -0.1614,-0.4 z m 10.24,-1.6 c 0,-0.44 0.073,-0.62 0.1614,-0.4 0.089,0.22 0.089,0.58 0,0.8 -0.089,0.22 -0.1614,0.04 -0.1614,-0.4 z m -471.2665,-10.72 c 1e-4,-6.16 0.043,-8.63471 0.096,-5.49935 0.052,3.13535 0.052,8.17535 -2e-4,11.2 -0.053,3.02464 -0.095,0.45935 -0.095,-5.70065 z m 7.456,10.81417 c 0.396,-0.0763 1.044,-0.0763 1.44,0 0.396,0.0763 0.072,0.13868 -0.72,0.13868 -0.792,0 -1.116,-0.0624 -0.72,-0.13868 z m 7.04,-0.3061 c 0.22,-0.0888 0.58,-0.0888 0.8,0 0.22,0.0888 0.04,0.16141 -0.4,0.16141 -0.44,0 -0.62,-0.0726 -0.4,-0.16141 z m 4.82,-0.32666 c 0.231,-0.0924 0.507,-0.0811 0.6133,0.0253 0.1063,0.10633 -0.083,0.18197 -0.42,0.16807 -0.3728,-0.0154 -0.4486,-0.0912 -0.1933,-0.19333 z m 678.0991,-1.94141 c -0.398,-0.50753 -0.3867,-0.51885 0.1208,-0.12081 0.5331,0.41803 0.7026,0.68081 0.4392,0.68081 -0.066,0 -0.3184,-0.252 -0.56,-0.56 z m -244.8192,-1.57859 c 0.231,-0.0924 0.507,-0.0811 0.6134,0.0253 0.1063,0.10633 -0.083,0.18197 -0.42,0.16807 -0.3728,-0.0154 -0.4486,-0.0912 -0.1934,-0.19333 z m 376.5054,-4.26141 c 0,-2.376 0.05,-3.348 0.1119,-2.16 0.062,1.188 0.062,3.132 0,4.32 -0.062,1.188 -0.1119,0.216 -0.1119,-2.16 z m -373.9654,-4.37193 c 0.22,-0.0888 0.58,-0.0888 0.8,0 0.22,0.0888 0.04,0.16141 -0.4,0.16141 -0.44,0 -0.62,-0.0726 -0.4,-0.16141 z m 300.82,-0.96666 c 0.231,-0.0924 0.507,-0.0811 0.6134,0.0253 0.1063,0.10633 -0.083,0.18197 -0.42,0.16807 -0.3728,-0.0154 -0.4486,-0.0912 -0.1934,-0.19333 z m 4.8,0 c 0.231,-0.0924 0.507,-0.0811 0.6134,0.0253 0.1063,0.10633 -0.083,0.18197 -0.42,0.16807 -0.3728,-0.0154 -0.4486,-0.0912 -0.1934,-0.19333 z m -754.2599,-8.32724 c 0.396,-0.0763 1.044,-0.0763 1.44,0 0.396,0.0763 0.072,0.13868 -0.72,0.13868 -0.792,0 -1.116,-0.0624 -0.72,-0.13868 z m 7.04,-0.3061 c 0.22,-0.0888 0.58,-0.0888 0.8,0 0.22,0.0888 0.04,0.16141 -0.4,0.16141 -0.44,0 -0.62,-0.0726 -0.4,-0.16141 z m 4.82,-0.32666 c 0.231,-0.0924 0.507,-0.0811 0.6133,0.0253 0.1063,0.10633 -0.083,0.18197 -0.42,0.16807 -0.3728,-0.0154 -0.4486,-0.0912 -0.1933,-0.19333 z m 6.4,-0.64 c 0.231,-0.0924 0.507,-0.0811 0.6133,0.0253 0.1063,0.10633 -0.083,0.18197 -0.42,0.16807 -0.3728,-0.0154 -0.4486,-0.0912 -0.1933,-0.19333 z m 717.7599,-15.68 c 0.231,-0.0924 0.507,-0.0811 0.6134,0.0253 0.1063,0.10633 -0.083,0.18197 -0.42,0.16807 -0.3728,-0.0154 -0.4486,-0.0912 -0.1934,-0.19333 z m -312.7478,-24.26141 c 0,-13.376 0.04,-18.80133 0.088,-12.0563 0.048,6.74503 0.048,17.68903 -10e-5,24.32 -0.048,6.63097 -0.088,1.1123 -0.088,-12.2637 z m 312.1078,15.62141 c 0.231,-0.0924 0.507,-0.0811 0.6134,0.0253 0.1063,0.10633 -0.083,0.18197 -0.42,0.16807 -0.3728,-0.0154 -0.4486,-0.0912 -0.1934,-0.19333 z m -741.8744,-3.70368 c -0.085,-0.22125 -0.1144,-5.22525 -0.066,-11.12 l 0.089,-10.71773 0.075,10.93775 0.076,10.93774 0.72,0.13868 0.72,0.13868 -0.7301,0.0436 c -0.4015,0.024 -0.7995,-0.13745 -0.8844,-0.3587 z m 10.0145,-0.12966 c 0.22,-0.0888 0.58,-0.0888 0.8,0 0.22,0.0888 0.04,0.16141 -0.4,0.16141 -0.44,0 -0.62,-0.0726 -0.4,-0.16141 z m 4.8,-0.32 c 0.22,-0.0888 0.58,-0.0888 0.8,0 0.22,0.0888 0.04,0.16141 -0.4,0.16141 -0.44,0 -0.62,-0.0726 -0.4,-0.16141 z m 6.74,-0.64666 c 0.231,-0.0924 0.507,-0.0811 0.6133,0.0253 0.1063,0.10633 -0.083,0.18197 -0.42,0.16807 -0.3728,-0.0154 -0.4486,-0.0912 -0.1933,-0.19333 z m 481.1133,-3.85901 c 1.1953,-0.0617 3.0673,-0.0613 4.16,10e-4 1.0926,0.0623 0.1146,0.11281 -2.1734,0.11225 -2.288,-5.6e-4 -3.182,-0.0515 -1.9866,-0.11327 z m 263.9319,-4.42906 c 0.015,-0.37278 0.091,-0.44861 0.1933,-0.19334 0.092,0.231 0.081,0.507 -0.025,0.61334 -0.1064,0.10633 -0.182,-0.0827 -0.1681,-0.42 z m -606.1052,-0.25415 c 0,-0.0665 0.252,-0.31845 0.56,-0.56 0.5075,-0.39804 0.5188,-0.38672 0.1208,0.12081 -0.4181,0.53304 -0.6808,0.70256 -0.6808,0.43919 z m 3.84,-3.52 c 0,-0.0664 0.252,-0.31845 0.56,-0.56 0.5075,-0.39804 0.5188,-0.38672 0.1208,0.12081 -0.4181,0.53304 -0.6808,0.70256 -0.6808,0.43919 z m 339.457,-0.11806 c 1.8133,-0.0571 4.6933,-0.0569 6.4,5.2e-4 1.7066,0.0574 0.2229,0.10418 -3.2971,0.10389 -3.52,-2.8e-4 -4.9163,-0.0473 -3.1029,-0.10441 z m 252.5682,-0.90779 c 0.015,-0.37278 0.091,-0.44861 0.1933,-0.19334 0.092,0.231 0.081,0.507 -0.025,0.61334 -0.1064,0.10633 -0.182,-0.0827 -0.1681,-0.42 z m 10.24,-0.64 c 0.015,-0.37278 0.091,-0.44861 0.1933,-0.19334 0.092,0.231 0.081,0.507 -0.025,0.61334 -0.1064,0.10633 -0.182,-0.0827 -0.1681,-0.42 z m -233.8581,-5.57334 c 0,-0.792 0.062,-1.116 0.1387,-0.72 0.076,0.396 0.076,1.044 0,1.44 -0.076,0.396 -0.1387,0.072 -0.1387,-0.72 z m -10.2648,0.16 c 0.01,-0.528 0.078,-0.70526 0.1594,-0.39391 0.081,0.31135 0.076,0.74335 -0.012,0.96 -0.088,0.21665 -0.154,-0.0381 -0.1475,-0.56609 z m -513.2562,-1.98175 c 0.3113,-0.0811 0.7433,-0.0758 0.96,0.0118 0.2166,0.0877 -0.038,0.15404 -0.5661,0.14752 -0.528,-0.007 -0.7053,-0.0782 -0.3939,-0.15937 z m 462.3391,-0.28491 c 0.015,-0.37278 0.091,-0.44861 0.1933,-0.19334 0.092,0.231 0.081,0.507 -0.025,0.61334 -0.1064,0.10633 -0.182,-0.0827 -0.1681,-0.42 z m -457.6852,-0.0319 c 0.231,-0.0924 0.507,-0.0811 0.6133,0.0253 0.1063,0.10633 -0.083,0.18197 -0.42,0.16807 -0.3728,-0.0154 -0.4486,-0.0912 -0.1933,-0.19333 z m 133.18,-4.70222 c 0,-0.0664 0.252,-0.31845 0.56,-0.56 0.5075,-0.39804 0.5188,-0.38672 0.1208,0.12081 -0.4181,0.53304 -0.6808,0.70256 -0.6808,0.43919 z m 365.3599,-0.41112 c 0.22,-0.0888 0.58,-0.0888 0.8,0 0.22,0.0888 0.04,0.16141 -0.4,0.16141 -0.44,0 -0.62,-0.0726 -0.4,-0.16141 z m -357.8399,-6.82807 c 1.5766,-1.584 2.9386,-2.88 3.0266,-2.88 0.088,0 -1.13,1.296 -2.7066,2.88 -1.5767,1.584 -2.9387,2.88 -3.0267,2.88 -0.088,0 1.13,-1.296 2.7067,-2.88 z m -29.92,-12.60081 c 0,-0.0664 0.252,-0.31845 0.56,-0.56 0.5075,-0.39804 0.5188,-0.38672 0.1208,0.12081 -0.4181,0.53304 -0.6808,0.70256 -0.6808,0.43919 z m 4.16,-3.87919 c 0.4133,-0.44 0.8235,-0.8 0.9115,-0.8 0.088,0 -0.1782,0.36 -0.5915,0.8 -0.4134,0.44 -0.8236,0.8 -0.9116,0.8 -0.088,0 0.1782,-0.36 0.5916,-0.8 z m -128.8162,-12.64 c 0,-6.072 0.043,-8.556 0.096,-5.52 0.053,3.036 0.053,8.004 0,11.04 -0.052,3.036 -0.096,0.552 -0.096,-5.52 z m 8.0962,10.66807 c 0.22,-0.0888 0.58,-0.0888 0.8,0 0.22,0.0888 0.04,0.16141 -0.4,0.16141 -0.44,0 -0.62,-0.0726 -0.4,-0.16141 z m 129.04,-6.34807 c 0.4133,-0.44 0.8235,-0.8 0.9115,-0.8 0.088,0 -0.1782,0.36 -0.5915,0.8 -0.4134,0.44 -0.8236,0.8 -0.9116,0.8 -0.088,0 0.1782,-0.36 0.5916,-0.8 z m 316.8799,-1.98058 c 0.308,-0.0805 0.812,-0.0805 1.12,0 0.308,0.0805 0.056,0.14634 -0.56,0.14634 -0.616,0 -0.868,-0.0659 -0.56,-0.14634 z m 3.84,0 c 0.308,-0.0805 0.812,-0.0805 1.12,0 0.308,0.0805 0.056,0.14634 -0.56,0.14634 -0.616,0 -0.868,-0.0659 -0.56,-0.14634 z m 276.8061,-0.001 c 0.3114,-0.0811 0.7434,-0.0758 0.96,0.0118 0.2167,0.0877 -0.038,0.15404 -0.5661,0.14752 -0.528,-0.007 -0.7052,-0.0782 -0.3939,-0.15937 z m 3.8339,0.001 c 0.308,-0.0805 0.812,-0.0805 1.12,0 0.308,0.0805 0.056,0.14634 -0.56,0.14634 -0.616,0 -0.868,-0.0659 -0.56,-0.14634 z m -165.6878,-25.21942 c 0,-13.376 0.04,-18.80133 0.088,-12.0563 0.048,6.74503 0.048,17.68903 -10e-5,24.32 -0.048,6.63097 -0.088,1.1123 -0.088,-12.2637 z m 74.56,0 c 0,-13.376 0.04,-18.80133 0.088,-12.0563 0.048,6.74503 0.048,17.68903 -10e-5,24.32 -0.048,6.63097 -0.088,1.1123 -0.088,-12.2637 z m 26.56,0 c 0,-13.376 0.039,-18.80133 0.088,-12.0563 0.048,6.74503 0.048,17.68903 -10e-5,24.32 -0.048,6.63097 -0.088,1.1123 -0.088,-12.2637 z m -533.5921,23.71919 c 0,-0.0665 0.252,-0.31845 0.56,-0.56 0.5075,-0.39804 0.5188,-0.38672 0.1208,0.12081 -0.4181,0.53304 -0.6808,0.70256 -0.6808,0.43919 z m -29.12,-1.92 c 0,-0.0664 0.252,-0.31845 0.56,-0.56 0.5075,-0.39804 0.5188,-0.38672 0.1208,0.12081 -0.4181,0.53304 -0.6808,0.70256 -0.6808,0.43919 z m 602.3695,-5.07919 -0.6096,-0.72 0.72,0.6096 c 0.6767,0.57287 0.8657,0.8304 0.6096,0.8304 -0.061,0 -0.3847,-0.324 -0.72,-0.72 z m -596.1295,-0.88 c 0.6874,-0.704 1.3218,-1.28 1.4098,-1.28 0.088,0 -0.4024,0.576 -1.0898,1.28 -0.6875,0.704 -1.3219,1.28 -1.4099,1.28 -0.088,0 0.4024,-0.576 1.0899,-1.28 z m 512.7591,0.72 c -0.398,-0.50753 -0.3867,-0.51885 0.1208,-0.12081 0.5331,0.41803 0.7026,0.68081 0.4392,0.68081 -0.066,0 -0.3184,-0.252 -0.56,-0.56 z m -177.2992,-0.29859 c 0.231,-0.0924 0.507,-0.0811 0.6134,0.0253 0.1063,0.10633 -0.083,0.18197 -0.42,0.16807 -0.3728,-0.0154 -0.4486,-0.0912 -0.1934,-0.19333 z m 298.94,-5.06141 c 0.4134,-0.44 0.8236,-0.8 0.9116,-0.8 0.088,0 -0.1782,0.36 -0.5916,0.8 -0.4133,0.44 -0.8235,0.8 -0.9115,0.8 -0.088,0 0.1782,-0.36 0.5915,-0.8 z m -744.7199,0.26807 c 0.22,-0.0888 0.58,-0.0888 0.8,0 0.22,0.0888 0.04,0.16141 -0.4,0.16141 -0.44,0 -0.62,-0.0726 -0.4,-0.16141 z m 714.1295,-0.50807 -0.6096,-0.72 0.72,0.6096 c 0.6767,0.57287 0.8657,0.8304 0.6096,0.8304 -0.061,0 -0.3847,-0.324 -0.72,-0.72 z m -709.9495,0.18141 c 0.231,-0.0924 0.507,-0.0811 0.6133,0.0253 0.1063,0.10633 -0.083,0.18197 -0.42,0.16807 -0.3728,-0.0154 -0.4486,-0.0912 -0.1933,-0.19333 z m 111.42,-0.86222 c 0,-0.0664 0.252,-0.31845 0.56,-0.56 0.5075,-0.39804 0.5188,-0.38672 0.1208,0.12081 -0.4181,0.53304 -0.6808,0.70256 -0.6808,0.43919 z m 496.5991,-5.87919 c -0.398,-0.50753 -0.3867,-0.51885 0.1208,-0.12081 0.5331,0.41803 0.7026,0.68081 0.4392,0.68081 -0.066,0 -0.3184,-0.252 -0.56,-0.56 z m -192.8939,-1.86666 c 0.015,-0.37278 0.091,-0.44861 0.1933,-0.19334 0.093,0.231 0.081,0.507 -0.025,0.61334 -0.1064,0.10633 -0.182,-0.0827 -0.1681,-0.42 z m 377.0328,-0.0525 c 2.0779,-0.0558 5.3899,-0.0556 7.36,4.1e-4 1.9701,0.056 0.2699,0.10173 -3.7781,0.1015 -4.048,-2.2e-4 -5.6598,-0.0461 -3.5819,-0.10191 z m -710.818,-4.68169 c 0,-0.0664 0.252,-0.31845 0.56,-0.56 0.5075,-0.39804 0.5188,-0.38672 0.1208,0.12081 -0.4181,0.53304 -0.6808,0.70256 -0.6808,0.43919 z m 333.7852,-0.70585 c 0.015,-0.37278 0.091,-0.44861 0.1933,-0.19334 0.093,0.231 0.081,0.507 -0.025,0.61334 -0.1064,0.10633 -0.182,-0.0827 -0.1681,-0.42 z m -326.2652,-6.85334 c 0.3185,-0.352 0.6511,-0.64 0.7391,-0.64 0.088,0 -0.1006,0.288 -0.4191,0.64 -0.3186,0.352 -0.6512,0.64 -0.7392,0.64 -0.088,0 0.1006,-0.288 0.4192,-0.64 z m 340.6399,-1.08081 c 0,-0.0664 0.252,-0.31845 0.56,-0.56 0.5076,-0.39804 0.5189,-0.38672 0.1209,0.12081 -0.4181,0.53304 -0.6809,0.70256 -0.6809,0.43919 z m 37.7192,-5.23919 c -0.398,-0.50753 -0.3867,-0.51885 0.1208,-0.12081 0.5331,0.41803 0.7026,0.68081 0.4392,0.68081 -0.066,0 -0.3184,-0.252 -0.56,-0.56 z m -397.4125,-5.6 c 1.3261,-1.41286 1.6134,-1.66691 1.6134,-1.42662 0,0.0514 -0.684,0.73535 -1.52,1.52 l -1.52,1.42662 z m 371.7733,-3.65193 c 0.22,-0.0888 0.58,-0.0888 0.8,0 0.22,0.0888 0.04,0.16141 -0.4,0.16141 -0.44,0 -0.62,-0.0726 -0.4,-0.16141 z m 5.46,-0.007 c 0.231,-0.0924 0.507,-0.0811 0.6134,0.0253 0.1063,0.10633 -0.083,0.18197 -0.42,0.16807 -0.3728,-0.0154 -0.4486,-0.0912 -0.1934,-0.19333 z m 275.18,0.007 c 0.22,-0.0888 0.58,-0.0888 0.8,0 0.22,0.0888 0.04,0.16141 -0.4,0.16141 -0.44,0 -0.62,-0.0726 -0.4,-0.16141 z m 5.12,0 c 0.22,-0.0888 0.58,-0.0888 0.8,0 0.22,0.0888 0.04,0.16141 -0.4,0.16141 -0.44,0 -0.62,-0.0726 -0.4,-0.16141 z m -165.36,-4.06888 c 0,-0.0665 0.252,-0.31845 0.56,-0.56 0.5076,-0.39804 0.5189,-0.38672 0.1209,0.12081 -0.4181,0.53304 -0.6809,0.70256 -0.6809,0.43919 z m 3.84,-3.52 c 0,-0.0665 0.252,-0.31845 0.56,-0.56 0.5076,-0.39804 0.5189,-0.38672 0.1209,0.12081 -0.4181,0.53304 -0.6809,0.70256 -0.6809,0.43919 z m 3.52,-3.2 c 0,-0.0665 0.252,-0.31845 0.56,-0.56 0.5076,-0.39804 0.5189,-0.38672 0.1209,0.12081 -0.4181,0.53304 -0.6809,0.70256 -0.6809,0.43919 z m -5.52,-2.99761 c 1.628,-0.0581 4.292,-0.0581 5.92,0 1.628,0.0581 0.296,0.1056 -2.96,0.1056 -3.256,0 -4.588,-0.0475 -2.96,-0.1056 z m -358.2947,-36.74824 c 0.015,-0.37278 0.091,-0.44861 0.1934,-0.19334 0.092,0.231 0.081,0.507 -0.025,0.61334 -0.1063,0.10633 -0.182,-0.0827 -0.1681,-0.42 z m 0.32,-2.88 c 0.015,-0.37278 0.091,-0.44861 0.1934,-0.19334 0.092,0.231 0.081,0.507 -0.025,0.61334 -0.1063,0.10633 -0.182,-0.0827 -0.1681,-0.42 z m 0.32,-3.2 c 0.015,-0.37278 0.091,-0.44861 0.1934,-0.19334 0.092,0.231 0.081,0.507 -0.025,0.61334 -0.1063,0.10633 -0.182,-0.0827 -0.1681,-0.42 z m -30.08,-0.64 c 0.015,-0.37278 0.091,-0.44861 0.1934,-0.19334 0.092,0.231 0.081,0.507 -0.025,0.61334 -0.1063,0.10633 -0.182,-0.0827 -0.1681,-0.42 z m 30.4253,-3.33334 c 0,-0.44 0.073,-0.62 0.1614,-0.4 0.089,0.22 0.089,0.58 0,0.8 -0.089,0.22 -0.1614,0.04 -0.1614,-0.4 z m -30.1053,-0.18666 c 0.015,-0.37278 0.091,-0.44861 0.1934,-0.19334 0.092,0.231 0.081,0.507 -0.025,0.61334 -0.1063,0.10633 -0.182,-0.0827 -0.1681,-0.42 z m 0.3453,-4.29334 c 0,-0.44 0.073,-0.62 0.1614,-0.4 0.089,0.22 0.089,0.58 0,0.8 -0.089,0.22 -0.1614,0.04 -0.1614,-0.4 z m -52.1853,-0.18666 c 0.015,-0.37278 0.091,-0.44861 0.1934,-0.19334 0.092,0.231 0.081,0.507 -0.025,0.61334 -0.1063,0.10633 -0.182,-0.0827 -0.1681,-0.42 z m 30.1053,-0.45334 c 0,-0.44 0.073,-0.62 0.1614,-0.4 0.089,0.22 0.089,0.58 0,0.8 -0.089,0.22 -0.1614,0.04 -0.1614,-0.4 z m 52.1718,-0.16 c 0.01,-0.528 0.078,-0.70526 0.1594,-0.39391 0.081,0.31135 0.076,0.74335 -0.012,0.96 -0.088,0.21665 -0.1541,-0.0381 -0.1476,-0.56609 z m -104.3571,-0.34666 c 0.015,-0.37278 0.091,-0.44861 0.1934,-0.19334 0.092,0.231 0.081,0.507 -0.025,0.61334 -0.1063,0.10633 -0.182,-0.0827 -0.1681,-0.42 z m 22.449,-4.29334 c 0,-0.616 0.066,-0.868 0.1463,-0.56 0.081,0.308 0.081,0.812 0,1.12 -0.08,0.308 -0.1463,0.056 -0.1463,-0.56 z m -22.0919,-0.48 c 0.01,-0.528 0.078,-0.70526 0.1594,-0.39391 0.081,0.31135 0.076,0.74335 -0.012,0.96 -0.088,0.21665 -0.1541,-0.0381 -0.1476,-0.56609 z m 52.2095,-3.04 c 0,-1.496 0.055,-2.108 0.1225,-1.36 0.067,0.748 0.067,1.972 0,2.72 -0.067,0.748 -0.1225,0.136 -0.1225,-1.36 z m 22.08,0 c 0,-1.496 0.055,-2.108 0.1225,-1.36 0.067,0.748 0.067,1.972 0,2.72 -0.067,0.748 -0.1225,0.136 -0.1225,-1.36 z"
         id="path25" /><path
         style="fill:#0063a6"
         d="m -1991.1752,-381.11237 v -63.92 l 1.9988,-1.03419 c 3.0987,-1.60329 12.1019,-7.00956 16.8153,-10.09737 2.3411,-1.53364 4.3211,-2.78844 4.4,-2.78844 0.079,0 0.1436,31.896 0.1436,70.88 v 70.88 h -11.68 -11.68 z m 52.1589,-18.68565 v -82.60566 l 6,-6.11582 c 5.4388,-5.54384 11.7105,-12.51669 15.428,-17.15287 0.7762,-0.968 1.5284,-1.8968 1.6716,-2.064 0.1432,-0.1672 0.2604,42.6368 0.2604,95.12 v 95.424 h -11.68 -11.68 z m 52.1547,72.76565 c 0,-5.412 0.2941,-59.376 0.66,-119.92 l 0.6652,-110.08 2.38,-5.62787 c 8.0107,-18.94196 13.6452,-38.99266 16.5832,-59.01213 1.5044,-10.25014 2.4236,-21.57885 2.4319,-29.97004 0,-4.93067 0.016,-5.00726 0.6769,-4.83433 l 0.6719,0.17571 -0.1924,35.39433 c -0.1057,19.46688 -0.2648,92.41833 -0.3536,162.11433 -0.089,69.696 -0.2526,130.068 -0.3642,134.16 l -0.203,7.44 h -11.4753 -11.4753 z"
         id="path24" /><path
         style="fill:#365a6c"
         d="m -1345.1564,-380.13096 c 0.231,-0.0924 0.507,-0.0811 0.6134,0.0253 0.1063,0.10633 -0.083,0.18197 -0.42,0.16807 -0.3728,-0.0154 -0.4486,-0.0912 -0.1934,-0.19333 z m -302.08,-1.28 c 0.231,-0.0924 0.507,-0.0811 0.6134,0.0253 0.1063,0.10633 -0.083,0.18197 -0.42,0.16807 -0.3728,-0.0154 -0.4486,-0.0912 -0.1934,-0.19333 z m 221.017,-24.10141 v -24.16 l 4.96,-0.0122 4.96,-0.0122 -4.8779,0.1003 -4.878,0.10031 -0.085,24.07188 -0.085,24.07188 z m 112.96,0 v -24.16 l 18.72,-0.004 18.72,-0.004 -18.6379,0.0864 -18.638,0.0864 -0.085,24.07744 -0.085,24.07744 z m 38.3122,20.2433 -0.069,-4.23671 -14.32,-0.0867 -14.32,-0.0867 14.3301,-0.0766 c 11.5482,-0.0618 14.3611,0.004 14.4903,0.34112 0.088,0.22977 0.1148,2.20977 0.059,4.4 l -0.1012,3.98225 z m -88.4134,-1.6033 -0.7758,-0.88 0.88,0.77578 c 0.8225,0.72509 1.0268,0.98422 0.7758,0.98422 -0.057,0 -0.4533,-0.396 -0.88,-0.88 z m -31.0566,-0.96 c -0.398,-0.50753 -0.3867,-0.51885 0.1208,-0.12081 0.5331,0.41803 0.7026,0.68081 0.4392,0.68081 -0.066,0 -0.3184,-0.252 -0.56,-0.56 z m -257.1531,-1.90175 c 0.3114,-0.0811 0.7434,-0.0758 0.96,0.0119 0.2167,0.0877 -0.038,0.15404 -0.5661,0.14752 -0.528,-0.007 -0.7052,-0.0782 -0.3939,-0.15937 z m 191.9939,-0.0179 c 4.004,-0.0508 10.556,-0.0508 14.56,0 4.004,0.0508 0.728,0.0923 -7.28,0.0923 -8.008,0 -11.284,-0.0415 -7.28,-0.0923 z m -171.8284,-4.72031 c 0,-0.88 0.064,-1.20202 0.1381,-0.7156 0.073,0.48642 0.072,1.20642 0,1.6 -0.076,0.39358 -0.1361,-0.004 -0.1337,-0.8844 z m 231.5476,0.56 c -0.398,-0.50753 -0.3867,-0.51885 0.1208,-0.12081 0.5331,0.41803 0.7026,0.68081 0.4392,0.68081 -0.066,0 -0.3184,-0.252 -0.56,-0.56 z m -205.2982,3.7e-4 c 3.3115,-0.0521 8.6395,-0.052 11.84,1.8e-4 3.2005,0.0521 0.491,0.0947 -6.021,0.0946 -6.512,-10e-5 -9.1305,-0.0428 -5.819,-0.0948 z m 280.9462,-1.68037 c 0,-0.792 0.062,-1.116 0.1387,-0.72 0.076,0.396 0.076,1.044 0,1.44 -0.076,0.396 -0.1387,0.072 -0.1387,-0.72 z m -317.4648,-0.16 c 0.01,-0.528 0.078,-0.70526 0.1594,-0.39391 0.081,0.31135 0.076,0.74335 -0.012,0.96 -0.088,0.21665 -0.154,-0.0381 -0.1475,-0.56609 z m 253.8532,-17.83995 v -16.08005 l 4.7204,-0.0133 4.7204,-0.0133 -4.6374,0.10182 -4.6374,0.10183 -0.088,15.9915 -0.087,15.99151 z m -17.4764,13.59995 c -0.398,-0.50753 -0.3867,-0.51885 0.1208,-0.12081 0.308,0.24155 0.56,0.49355 0.56,0.56 0,0.26337 -0.2627,0.0938 -0.6808,-0.43919 z m 128.168,-5.84 c 0,-2.552 0.05,-3.596 0.1104,-2.32 0.061,1.276 0.061,3.364 0,4.64 -0.061,1.276 -0.1104,0.232 -0.1104,-2.32 z m -329.7272,2.96 c 0,-0.132 3.384,-0.24 7.52,-0.24 4.136,0 7.52,0.108 7.52,0.24 0,0.132 -3.384,0.24 -7.52,0.24 -4.136,0 -7.52,-0.108 -7.52,-0.24 z m 196.7592,-2.56 c -0.398,-0.50753 -0.3867,-0.51885 0.1208,-0.12081 0.308,0.24155 0.56,0.49355 0.56,0.56 0,0.26337 -0.2627,0.0938 -0.6808,-0.43919 z m 47.5407,-3.04 -0.9399,-1.04 1.04,0.93987 c 0.572,0.51693 1.04,0.98493 1.04,1.04 0,0.24722 -0.264,0.0296 -1.1401,-0.93987 z m -36.3407,-1.44 c -0.398,-0.50753 -0.3867,-0.51885 0.1208,-0.12081 0.5331,0.41803 0.7026,0.68081 0.4392,0.68081 -0.066,0 -0.3184,-0.252 -0.56,-0.56 z m -246.3592,-1.80081 c 0,-0.0664 0.252,-0.31845 0.56,-0.56 0.5076,-0.39804 0.5189,-0.38672 0.1209,0.12081 -0.4181,0.53304 -0.6809,0.70256 -0.6809,0.43919 z m 229.0792,-0.75919 c -0.398,-0.50753 -0.3867,-0.51885 0.1208,-0.12081 0.5331,0.41803 0.7026,0.68081 0.4392,0.68081 -0.066,0 -0.3184,-0.252 -0.56,-0.56 z m 50.368,-3.92 c 0,-0.792 0.062,-1.116 0.1387,-0.72 0.076,0.396 0.076,1.044 0,1.44 -0.076,0.396 -0.1387,0.072 -0.1387,-0.72 z m -735.2143,-0.55095 c 0.5681,-0.0707 1.5761,-0.0718 2.24,-0.003 0.6639,0.0693 0.1992,0.12711 -1.0328,0.12853 -1.232,10e-4 -1.7753,-0.0553 -1.2072,-0.12595 z m 9.6072,-0.30098 c 0.22,-0.0888 0.58,-0.0888 0.8,0 0.22,0.0888 0.04,0.16141 -0.4,0.16141 -0.44,0 -0.62,-0.0726 -0.4,-0.16141 z m 685.7991,-0.34807 c -0.398,-0.50753 -0.3867,-0.51885 0.1208,-0.12081 0.5331,0.41803 0.7026,0.68081 0.4392,0.68081 -0.066,0 -0.3184,-0.252 -0.56,-0.56 z m -680.6591,0.0214 c 0.231,-0.0924 0.507,-0.0811 0.6133,0.0253 0.1063,0.10633 -0.083,0.18197 -0.42,0.16807 -0.3728,-0.0154 -0.4486,-0.0912 -0.1933,-0.19333 z m 3.84,-0.32 c 0.231,-0.0924 0.507,-0.0811 0.6133,0.0253 0.1063,0.10633 -0.083,0.18197 -0.42,0.16807 -0.3728,-0.0154 -0.4486,-0.0912 -0.1933,-0.19333 z m 3.2,-0.32 c 0.231,-0.0924 0.507,-0.0811 0.6133,0.0253 0.1063,0.10633 -0.083,0.18197 -0.42,0.16807 -0.3728,-0.0154 -0.4486,-0.0912 -0.1933,-0.19333 z m 724.2199,-1.18222 c 0,-0.0665 0.252,-0.31845 0.56,-0.56 0.5076,-0.39804 0.5189,-0.38672 0.1209,0.12081 -0.4181,0.53304 -0.6809,0.70256 -0.6809,0.43919 z m -83.7708,-5.87663 -0.069,-4.23744 -18.8,-0.0852 -18.8,-0.0852 18.8101,-0.0774 c 15.2341,-0.0627 18.8405,0.002 18.9703,0.34035 0.088,0.22977 0.1148,2.20977 0.059,4.4 l -0.1012,3.98225 z m 91.8552,2.88782 c 0.4865,-0.0736 1.2065,-0.0716 1.6,0.004 0.3936,0.0759 0,0.13613 -0.8844,0.13373 -0.88,-0.002 -1.202,-0.0645 -0.7156,-0.1381 z m -15.4444,-2.49038 c 0.4134,-0.44 0.8236,-0.8 0.9116,-0.8 0.088,0 -0.1782,0.36 -0.5916,0.8 -0.4133,0.44 -0.8235,0.8 -0.9115,0.8 -0.088,0 0.1782,-0.36 0.5915,-0.8 z m -306.16,-4.8796 c 3.476,-0.0517 9.164,-0.0517 12.64,0 3.476,0.0517 0.632,0.0939 -6.32,0.0939 -6.952,0 -9.796,-0.0423 -6.32,-0.0939 z m 66.2239,0.002 c 1.5311,-0.0585 4.1231,-0.0588 5.76,-6.1e-4 1.6369,0.0582 0.3841,0.10608 -2.7839,0.10642 -3.168,3.3e-4 -4.5072,-0.0473 -2.9761,-0.10581 z m 41.9361,1.7e-4 c 1.364,-0.06 3.596,-0.06 4.96,0 1.364,0.06 0.248,0.10906 -2.48,0.10906 -2.728,0 -3.844,-0.0491 -2.48,-0.10906 z m 37.76,0 c 1.364,-0.06 3.596,-0.06 4.96,0 1.364,0.06 0.248,0.10906 -2.48,0.10906 -2.728,0 -3.844,-0.0491 -2.48,-0.10906 z m 24.32,0 c 1.364,-0.06 3.596,-0.06 4.96,0 1.364,0.06 0.248,0.10906 -2.48,0.10906 -2.728,0 -3.844,-0.0491 -2.48,-0.10906 z m 151.2,-0.95363 c 0.572,-0.071 1.508,-0.071 2.08,0 0.572,0.071 0.104,0.12906 -1.04,0.12906 -1.144,0 -1.612,-0.0581 -1.04,-0.12906 z m -748.6399,-8.3091 c 0.308,-0.0805 0.812,-0.0805 1.12,0 0.308,0.0805 0.056,0.14634 -0.56,0.14634 -0.616,0 -0.868,-0.0659 -0.56,-0.14634 z m 5.92,-0.31135 c 0.22,-0.0888 0.58,-0.0888 0.8,0 0.22,0.0888 0.04,0.16141 -0.4,0.16141 -0.44,0 -0.62,-0.0726 -0.4,-0.16141 z m 7.7,-0.64666 c 0.231,-0.0924 0.507,-0.0811 0.6133,0.0253 0.1063,0.10633 -0.083,0.18197 -0.42,0.16807 -0.3728,-0.0154 -0.4486,-0.0912 -0.1933,-0.19333 z m 409.7399,-16.01926 c 1.364,-0.06 3.596,-0.06 4.96,0 1.364,0.06 0.248,0.10906 -2.48,0.10906 -2.728,0 -3.844,-0.0491 -2.48,-0.10906 z m 63.2746,0.002 4.7952,-0.10124 0.093,-8.63182 0.093,-8.63183 -0.01,8.72013 -0.01,8.72013 -4.8803,0.0129 -4.8804,0.0129 z m 30.1654,-0.003 c 1.54,-0.0587 4.06,-0.0587 5.6,0 1.54,0.0587 0.28,0.10666 -2.8,0.10666 -3.08,0 -4.34,-0.048 -2.8,-0.10666 z m 30.4,4.1e-4 c 1.364,-0.06 3.596,-0.06 4.96,0 1.364,0.06 0.248,0.10906 -2.48,0.10906 -2.728,0 -3.844,-0.0491 -2.48,-0.10906 z m 47.1695,-0.002 c -0.082,-0.132 2.4882,-0.24 5.7105,-0.24 3.2224,0 5.7922,0.108 5.7106,0.24 -0.082,0.132 -2.6513,0.24 -5.7106,0.24 -3.0592,0 -5.6289,-0.108 -5.7105,-0.24 z m 42.9257,0.002 c 1.4604,-0.0594 3.7644,-0.0591 5.12,7.4e-4 1.3557,0.0598 0.1608,0.10846 -2.6552,0.10805 -2.816,-4e-4 -3.9251,-0.0494 -2.4648,-0.10879 z m 45.76,0 c 1.4604,-0.0594 3.7644,-0.0591 5.12,7.4e-4 1.3557,0.0598 0.1608,0.10846 -2.6552,0.10805 -2.816,-4e-4 -3.9251,-0.0494 -2.4648,-0.10879 z m 25.1721,-0.16168 c -0.084,-0.22 -0.1146,-11.2 -0.068,-24.4 l 0.085,-24 0.078,24.23629 0.078,24.23629 12.56,0.0875 12.56,0.0875 -12.57,0.0762 c -9.8179,0.0595 -12.6035,-0.0114 -12.7227,-0.32383 z m 64.4279,0.16168 c 1.4604,-0.0594 3.7644,-0.0591 5.12,7.4e-4 1.3557,0.0598 0.1608,0.10846 -2.6552,0.10805 -2.816,-4e-4 -3.9251,-0.0494 -2.4648,-0.10879 z m 46.08,0 c 1.4604,-0.0594 3.7644,-0.0591 5.12,7.4e-4 1.3557,0.0598 0.1608,0.10846 -2.6552,0.10805 -2.816,-4e-4 -3.9251,-0.0494 -2.4648,-0.10879 z m -819.3751,-12.46226 c 0.308,-0.0805 0.812,-0.0805 1.12,0 0.308,0.0805 0.056,0.14634 -0.56,0.14634 -0.616,0 -0.868,-0.0659 -0.56,-0.14634 z m 744.3999,-0.41942 c 0.3186,-0.352 0.6512,-0.64 0.7392,-0.64 0.088,0 -0.1006,0.288 -0.4192,0.64 -0.3185,0.352 -0.6512,0.64 -0.7392,0.64 -0.088,0 0.1007,-0.288 0.4192,-0.64 z m -738.7799,0.10141 c 0.231,-0.0924 0.507,-0.0811 0.6133,0.0253 0.1063,0.10633 -0.083,0.18197 -0.42,0.16807 -0.3728,-0.0154 -0.4486,-0.0912 -0.1933,-0.19333 z m 3.84,-0.32 c 0.231,-0.0924 0.507,-0.0811 0.6133,0.0253 0.1063,0.10633 -0.083,0.18197 -0.42,0.16807 -0.3728,-0.0154 -0.4486,-0.0912 -0.1933,-0.19333 z m 491.2191,-3.86141 c -0.398,-0.50753 -0.3867,-0.51885 0.1208,-0.12081 0.308,0.24155 0.56,0.49355 0.56,0.56 0,0.26337 -0.2627,0.0938 -0.6808,-0.43919 z m 257.7484,-7.44 c 0,-1.32 0.056,-1.86 0.1256,-1.2 0.069,0.66 0.069,1.74 0,2.4 -0.069,0.66 -0.1256,0.12 -0.1256,-1.2 z m -605.2275,1.47919 c 0,-0.0664 0.252,-0.31845 0.56,-0.56 0.5075,-0.39804 0.5188,-0.38672 0.1208,0.12081 -0.4181,0.53304 -0.6808,0.70256 -0.6808,0.43919 z m 339.0176,-9.79919 c 0,-4.136 0.046,-5.828 0.1013,-3.76 0.056,2.068 0.056,5.452 0,7.52 -0.056,2.068 -0.1013,0.376 -0.1013,-3.76 z m 12.9223,7.14141 c 0.231,-0.0924 0.507,-0.0811 0.6134,0.0253 0.1063,0.10633 -0.083,0.18197 -0.42,0.16807 -0.3728,-0.0154 -0.4486,-0.0912 -0.1934,-0.19333 z m -41.7684,-7.30141 c 0,-0.88 0.064,-1.20202 0.1381,-0.7156 0.073,0.48642 0.072,1.20642 0,1.6 -0.076,0.39358 -0.1361,-0.004 -0.1337,-0.8844 z m -470.2431,-1.35471 c 0.7527,-0.0676 1.9047,-0.0666 2.56,0.002 0.6554,0.0688 0.04,0.12407 -1.3684,0.1229 -1.408,-10e-4 -1.9442,-0.0574 -1.1916,-0.12501 z m 9.2916,-0.30388 c 0.231,-0.0924 0.507,-0.0811 0.6133,0.0253 0.1063,0.10633 -0.083,0.18197 -0.42,0.16807 -0.3728,-0.0154 -0.4486,-0.0912 -0.1933,-0.19333 z m 4.16,-0.32 c 0.231,-0.0924 0.507,-0.0811 0.6133,0.0253 0.1063,0.10633 -0.083,0.18197 -0.42,0.16807 -0.3728,-0.0154 -0.4486,-0.0912 -0.1933,-0.19333 z m 3.2,-0.32 c 0.231,-0.0924 0.507,-0.0811 0.6133,0.0253 0.1063,0.10633 -0.083,0.18197 -0.42,0.16807 -0.3728,-0.0154 -0.4486,-0.0912 -0.1933,-0.19333 z m 128.06,-3.42222 c 0,-0.0664 0.252,-0.31845 0.56,-0.56 0.5075,-0.39804 0.5188,-0.38672 0.1208,0.12081 -0.4181,0.53304 -0.6808,0.70256 -0.6808,0.43919 z m 296.577,-1.39806 c 1.8133,-0.0571 4.6933,-0.0569 6.4,5.2e-4 1.7066,0.0574 0.2229,0.10418 -3.2971,0.10389 -3.52,-2.8e-4 -4.9163,-0.0473 -3.1029,-0.10441 z m 287.36,0 c 1.8133,-0.0571 4.6933,-0.0569 6.4,5.2e-4 1.7066,0.0574 0.2229,0.10418 -3.2971,0.10389 -3.52,-2.8e-4 -4.9163,-0.0473 -3.1029,-0.10441 z m -579.137,-3.12113 c 0.4133,-0.44 0.8235,-0.8 0.9115,-0.8 0.088,0 -0.1782,0.36 -0.5915,0.8 -0.4134,0.44 -0.8236,0.8 -0.9116,0.8 -0.088,0 0.1782,-0.36 0.5916,-0.8 z m 303.9399,-5.17859 c 0.231,-0.0924 0.507,-0.0811 0.6134,0.0253 0.1063,0.10633 -0.083,0.18197 -0.42,0.16807 -0.3728,-0.0154 -0.4486,-0.0912 -0.1934,-0.19333 z m 60.8,0 c 0.231,-0.0924 0.507,-0.0811 0.6134,0.0253 0.1063,0.10633 -0.083,0.18197 -0.42,0.16807 -0.3728,-0.0154 -0.4486,-0.0912 -0.1934,-0.19333 z m 226.86,0.007 c 0.22,-0.0888 0.58,-0.0888 0.8,0 0.22,0.0888 0.04,0.16141 -0.4,0.16141 -0.44,0 -0.62,-0.0726 -0.4,-0.16141 z m -584.8799,-1.4882 c 0,-0.0551 0.468,-0.52307 1.04,-1.04 l 1.04,-0.93987 -0.9399,1.04 c -0.8761,0.96943 -1.1401,1.18709 -1.1401,0.93987 z m 4.48,-4.82068 c 0,-0.0664 0.252,-0.31845 0.56,-0.56 0.5075,-0.39804 0.5188,-0.38672 0.1208,0.12081 -0.4181,0.53304 -0.6808,0.70256 -0.6808,0.43919 z m 2.56,-2.88 c 0,-0.0665 0.252,-0.31845 0.56,-0.56 0.5075,-0.39804 0.5188,-0.38672 0.1208,0.12081 -0.4181,0.53304 -0.6808,0.70256 -0.6808,0.43919 z m -41.92,-0.32 c 0,-0.0665 0.252,-0.31845 0.56,-0.56 0.5075,-0.39804 0.5188,-0.38672 0.1208,0.12081 -0.4181,0.53304 -0.6808,0.70256 -0.6808,0.43919 z m 8.16,-7.55919 c 0.6874,-0.704 1.3218,-1.28 1.4098,-1.28 0.088,0 -0.4024,0.576 -1.0898,1.28 -0.6875,0.704 -1.3219,1.28 -1.4099,1.28 -0.088,0 0.4024,-0.576 1.0899,-1.28 z m -124.56,0.0994 c 0.308,-0.0805 0.812,-0.0805 1.12,0 0.308,0.0805 0.056,0.14634 -0.56,0.14634 -0.616,0 -0.868,-0.0658 -0.56,-0.14634 z m 5.3,-0.31801 c 0.231,-0.0924 0.507,-0.0811 0.6133,0.0253 0.1063,0.10633 -0.083,0.18197 -0.42,0.16807 -0.3728,-0.0154 -0.4486,-0.0912 -0.1933,-0.19333 z m 3.2,-0.32 c 0.231,-0.0924 0.507,-0.0811 0.6133,0.0253 0.1063,0.10633 -0.083,0.18197 -0.42,0.16807 -0.3728,-0.0154 -0.4486,-0.0912 -0.1933,-0.19333 z m 120.22,-3.62141 c 0.6874,-0.704 1.3218,-1.28 1.4098,-1.28 0.088,0 -0.4024,0.576 -1.0898,1.28 -0.6875,0.704 -1.3219,1.28 -1.4099,1.28 -0.088,0 0.4024,-0.576 1.0899,-1.28 z m 320.8799,-4.06058 c 0.308,-0.0805 0.812,-0.0805 1.12,0 0.308,0.0805 0.056,0.14634 -0.56,0.14634 -0.616,0 -0.868,-0.0659 -0.56,-0.14634 z m 280.4838,-0.006 c 0.398,-0.0765 0.974,-0.0736 1.28,0.006 0.3059,0.0801 -0.02,0.14272 -0.7238,0.13917 -0.704,-0.004 -0.9543,-0.0691 -0.5562,-0.14563 z m -230.8068,-25.37368 v -24.16 l 4.8804,-0.0129 4.8804,-0.0129 -4.7984,0.10126 -4.7983,0.10125 -0.085,24.07168 -0.085,24.07167 z m 93.76,0 v -24.16 l 4.96,-0.0122 4.96,-0.0122 -4.8779,0.1003 -4.878,0.10031 -0.085,24.07188 -0.085,24.07188 z m -489.1169,22.91919 c 0,-0.0665 0.252,-0.31845 0.56,-0.56 0.5075,-0.39804 0.5188,-0.38672 0.1208,0.12081 -0.4181,0.53304 -0.6808,0.70256 -0.6808,0.43919 z m 31.68,-0.96 c 0,-0.0664 0.252,-0.31845 0.56,-0.56 0.5075,-0.39804 0.5188,-0.38672 0.1208,0.12081 -0.4181,0.53304 -0.6808,0.70256 -0.6808,0.43919 z m 491.7991,-1.39919 c -0.398,-0.50753 -0.3867,-0.51885 0.1208,-0.12081 0.5331,0.41803 0.7026,0.68081 0.4392,0.68081 -0.066,0 -0.3184,-0.252 -0.56,-0.56 z m -518.6791,-2.16 c 0.597,-0.616 1.1575,-1.12 1.2455,-1.12 0.088,0 -0.3285,0.504 -0.9255,1.12 -0.5971,0.616 -1.1576,1.12 -1.2456,1.12 -0.088,0 0.3285,-0.504 0.9256,-1.12 z m 642.5599,0.35919 c 0,-0.0665 0.252,-0.31845 0.56,-0.56 0.5076,-0.39804 0.5189,-0.38672 0.1209,0.12081 -0.4181,0.53304 -0.6809,0.70256 -0.6809,0.43919 z m -301.36,-2.01977 c 0.308,-0.0805 0.812,-0.0805 1.12,0 0.308,0.0805 0.056,0.14634 -0.56,0.14634 -0.616,0 -0.868,-0.0659 -0.56,-0.14634 z m 280.32,0 c 0.308,-0.0805 0.812,-0.0805 1.12,0 0.308,0.0805 0.056,0.14634 -0.56,0.14634 -0.616,0 -0.868,-0.0659 -0.56,-0.14634 z m 22.96,0.0998 c 0,-0.0664 0.252,-0.31845 0.56,-0.56 0.5076,-0.39804 0.5189,-0.38672 0.1209,0.12081 -0.4181,0.53304 -0.6809,0.70256 -0.6809,0.43919 z m -237.4984,-1.0789 c 3.7518,-0.0512 9.7998,-0.0512 13.44,1.4e-4 3.6401,0.0513 0.5704,0.0932 -6.8216,0.0931 -7.392,-8e-5 -10.3703,-0.0421 -6.6184,-0.0933 z m 106.2576,-1.28029 c -0.398,-0.50753 -0.3867,-0.51885 0.1208,-0.12081 0.308,0.24155 0.56,0.49355 0.56,0.56 0,0.26337 -0.2627,0.0938 -0.6808,-0.43919 z m -508.4391,-0.88 c 0.597,-0.616 1.1575,-1.12 1.2455,-1.12 0.088,0 -0.3285,0.504 -0.9255,1.12 -0.5971,0.616 -1.1576,1.12 -1.2456,1.12 -0.088,0 0.3285,-0.504 0.9256,-1.12 z m -118.9556,-1.66962 c 0.4864,-0.0736 1.2064,-0.0716 1.6,0.004 0.3935,0.0759 0,0.13613 -0.8844,0.13373 -0.88,-0.002 -1.2021,-0.0646 -0.7156,-0.1381 z m 7.5356,-0.30897 c 0.231,-0.0924 0.507,-0.0811 0.6133,0.0253 0.1063,0.10633 -0.083,0.18197 -0.42,0.16807 -0.3728,-0.0154 -0.4486,-0.0912 -0.1933,-0.19333 z m 432.1895,-0.50141 -0.6096,-0.72 0.72,0.6096 c 0.6767,0.57287 0.8657,0.8304 0.6096,0.8304 -0.061,0 -0.3847,-0.324 -0.72,-0.72 z m 184.7896,0.16 c -0.398,-0.50753 -0.3867,-0.51885 0.1208,-0.12081 0.5331,0.41803 0.7026,0.68081 0.4392,0.68081 -0.066,0 -0.3184,-0.252 -0.56,-0.56 z m 175.8218,0.32037 c 3.3115,-0.0521 8.6395,-0.052 11.84,1.8e-4 3.2005,0.0521 0.491,0.0947 -6.021,0.0946 -6.512,-10e-5 -9.1305,-0.0428 -5.819,-0.0948 z m -677.5409,-2.12118 c 0,-0.0665 0.252,-0.31845 0.56,-0.56 0.5075,-0.39804 0.5188,-0.38672 0.1208,0.12081 -0.4181,0.53304 -0.6808,0.70256 -0.6808,0.43919 z m 514.0755,-17.55914 v -16.08005 l 4.7204,-0.0133 4.7204,-0.0133 -4.6374,0.10182 -4.6374,0.10183 -0.088,15.9915 -0.087,15.99151 z m -211.305,9.67995 c 0,-0.44 0.073,-0.62 0.1614,-0.4 0.089,0.22 0.089,0.58 0,0.8 -0.089,0.22 -0.1614,0.04 -0.1614,-0.4 z m 290.601,-1.12 c 0,-0.88 0.065,-1.20202 0.1381,-0.7156 0.073,0.48642 0.072,1.20642 0,1.6 -0.076,0.39358 -0.1361,-0.004 -0.1337,-0.8844 z m -626.9715,-0.28081 c 0,-0.0664 0.252,-0.31845 0.56,-0.56 0.5075,-0.39804 0.5188,-0.38672 0.1208,0.12081 -0.4181,0.53304 -0.6808,0.70256 -0.6808,0.43919 z m 336.3705,-1.79919 c 0,-0.44 0.073,-0.62 0.1614,-0.4 0.089,0.22 0.089,0.58 0,0.8 -0.089,0.22 -0.1614,0.04 -0.1614,-0.4 z m -331.8905,-2.4 c 0.597,-0.616 1.1575,-1.12 1.2455,-1.12 0.088,0 -0.3285,0.504 -0.9255,1.12 -0.5971,0.616 -1.1576,1.12 -1.2456,1.12 -0.088,0 0.3285,-0.504 0.9256,-1.12 z m 3.2,-3.14013 c 0,-0.0551 0.468,-0.52307 1.04,-1.04 l 1.04,-0.93987 -0.9399,1.04 c -0.8761,0.96943 -1.1401,1.18709 -1.1401,0.93987 z m 373.0791,-3.01987 c -0.398,-0.50753 -0.3867,-0.51885 0.1208,-0.12081 0.5331,0.41803 0.7026,0.68081 0.4392,0.68081 -0.066,0 -0.3184,-0.252 -0.56,-0.56 z m 335.917,-2.69855 c 0.092,-0.14954 0.3021,-0.18904 0.466,-0.0878 0.4186,0.25876 0.3715,0.35967 -0.1681,0.35967 -0.2562,0 -0.3903,-0.12235 -0.2979,-0.27189 z m -731.7161,-2.94226 c 0,-0.0664 0.252,-0.31845 0.56,-0.56 0.5075,-0.39804 0.5188,-0.38672 0.1208,0.12081 -0.4181,0.53304 -0.6808,0.70256 -0.6808,0.43919 z m 358.0799,-0.99919 c 0.4134,-0.44 0.8236,-0.8 0.9116,-0.8 0.088,0 -0.1782,0.36 -0.5916,0.8 -0.4133,0.44 -0.8235,0.8 -0.9115,0.8 -0.088,0 0.1782,-0.36 0.5915,-0.8 z m 21.84,0.2508 c 0.484,-0.0733 1.276,-0.0733 1.76,0 0.484,0.0733 0.088,0.13331 -0.88,0.13331 -0.968,0 -1.364,-0.06 -0.88,-0.13331 z m 22.4496,-0.4908 -0.6096,-0.72 0.72,0.6096 c 0.6767,0.57287 0.8657,0.8304 0.6096,0.8304 -0.061,0 -0.3847,-0.324 -0.72,-0.72 z m 258.0362,0.48809 c 0.5751,-0.0712 1.4391,-0.0697 1.92,0.003 0.4808,0.073 0.01,0.13128 -1.0458,0.12949 -1.056,-0.002 -1.4494,-0.0615 -0.8742,-0.13276 z m -120.2866,-0.96809 c -0.398,-0.50753 -0.3867,-0.51885 0.1208,-0.12081 0.5331,0.41803 0.7026,0.68081 0.4392,0.68081 -0.066,0 -0.3184,-0.252 -0.56,-0.56 z m -536.2791,-1.84 c 0.4133,-0.44 0.8235,-0.8 0.9115,-0.8 0.088,0 -0.1782,0.36 -0.5915,0.8 -0.4134,0.44 -0.8236,0.8 -0.9116,0.8 -0.088,0 0.1782,-0.36 0.5916,-0.8 z m 4.48,-4.48 c 0.4133,-0.44 0.8235,-0.8 0.9115,-0.8 0.088,0 -0.1782,0.36 -0.5915,0.8 -0.4134,0.44 -0.8236,0.8 -0.9116,0.8 -0.088,0 0.1782,-0.36 0.5916,-0.8 z m 481.9999,-0.39785 c 1.364,-0.06 3.596,-0.06 4.96,0 1.364,0.06 0.248,0.10906 -2.48,0.10906 -2.728,0 -3.844,-0.0491 -2.48,-0.10906 z m 111.04,0 c 1.364,-0.06 3.596,-0.06 4.96,0 1.364,0.06 0.248,0.10906 -2.48,0.10906 -2.728,0 -3.844,-0.0491 -2.48,-0.10906 z m 127.6639,-1.7e-4 c 1.5311,-0.0585 4.1231,-0.0588 5.76,-6.1e-4 1.6369,0.0582 0.3841,0.10608 -2.7839,0.10642 -3.168,3.3e-4 -4.5072,-0.0473 -2.9761,-0.10581 z m -349.271,-0.95293 c 0.5681,-0.0707 1.5761,-0.0718 2.24,-0.003 0.6639,0.0693 0.1991,0.12711 -1.0329,0.12853 -1.232,10e-4 -1.7752,-0.0553 -1.2071,-0.12595 z m 280.6471,-5.3e-4 c 0.572,-0.071 1.508,-0.071 2.08,0 0.572,0.071 0.104,0.12906 -1.04,0.12906 -1.144,0 -1.612,-0.0581 -1.04,-0.12906 z m -161.2,-5.00933 c 0,-0.0665 0.252,-0.31845 0.56,-0.56 0.5076,-0.39804 0.5189,-0.38672 0.1209,0.12081 -0.4181,0.53304 -0.6809,0.70256 -0.6809,0.43919 z m 3.84,-3.52 c 0,-0.0665 0.252,-0.31845 0.56,-0.56 0.5076,-0.39804 0.5189,-0.38672 0.1209,0.12081 -0.4181,0.53304 -0.6809,0.70256 -0.6809,0.43919 z m 3.52,-3.2 c 0,-0.0664 0.252,-0.31845 0.56,-0.56 0.5076,-0.39804 0.5189,-0.38672 0.1209,0.12081 -0.4181,0.53304 -0.6809,0.70256 -0.6809,0.43919 z m -394.5347,-43.26585 c 0.015,-0.37278 0.091,-0.44861 0.1934,-0.19334 0.092,0.231 0.081,0.507 -0.025,0.61334 -0.1063,0.10633 -0.182,-0.0827 -0.1681,-0.42 z m 30.72,-4.48 c 0.015,-0.37278 0.091,-0.44861 0.1934,-0.19334 0.092,0.231 0.081,0.507 -0.025,0.61334 -0.1063,0.10633 -0.182,-0.0827 -0.1681,-0.42 z m -52.16,-1.28 c 0.015,-0.37278 0.091,-0.44861 0.1934,-0.19334 0.092,0.231 0.081,0.507 -0.025,0.61334 -0.1063,0.10633 -0.182,-0.0827 -0.1681,-0.42 z m 22.08,-0.96 c 0.015,-0.37278 0.091,-0.44861 0.1934,-0.19334 0.092,0.231 0.081,0.507 -0.025,0.61334 -0.1063,0.10633 -0.182,-0.0827 -0.1681,-0.42 z m -52.16,-0.96 c 0.015,-0.37278 0.091,-0.44861 0.1934,-0.19334 0.092,0.231 0.081,0.507 -0.025,0.61334 -0.1063,0.10633 -0.182,-0.0827 -0.1681,-0.42 z m 82.5853,-1.73334 c 0,-0.44 0.073,-0.62 0.1614,-0.4 0.089,0.22 0.089,0.58 0,0.8 -0.089,0.22 -0.1614,0.04 -0.1614,-0.4 z m -52.1853,-0.18666 c 0.015,-0.37278 0.091,-0.44861 0.1934,-0.19334 0.092,0.231 0.081,0.507 -0.025,0.61334 -0.1063,0.10633 -0.182,-0.0827 -0.1681,-0.42 z m -30.0547,-1.73334 c 0,-0.44 0.073,-0.62 0.1614,-0.4 0.089,0.22 0.089,0.58 0,0.8 -0.089,0.22 -0.1614,0.04 -0.1614,-0.4 z m 52.1718,-0.16 c 0.01,-0.528 0.078,-0.70526 0.1594,-0.39391 0.081,0.31135 0.076,0.74335 -0.012,0.96 -0.088,0.21665 -0.1541,-0.0381 -0.1476,-0.56609 z m -73.92,-2.88 c 0.01,-0.528 0.078,-0.70526 0.1594,-0.39391 0.081,0.31135 0.076,0.74335 -0.012,0.96 -0.088,0.21665 -0.1541,-0.0381 -0.1476,-0.56609 z m 52.1784,-0.96 c 0,-0.704 0.069,-0.95432 0.1456,-0.55626 0.077,0.39805 0.074,0.97405 -0.01,1.28 -0.08,0.30594 -0.1427,-0.0197 -0.1391,-0.72374 z m -30.0692,-2.56 c 0,-0.88 0.064,-1.20202 0.1381,-0.7156 0.073,0.48642 0.072,1.20642 0,1.6 -0.076,0.39358 -0.1361,-0.004 -0.1337,-0.8844 z m 82.2875,-1.2766 c 0.016,-1.74941 0.1255,-2.24406 0.501,-2.27082 0.264,-0.0188 0.3061,0.025 0.094,0.0975 -0.2337,0.0796 -0.4318,0.97737 -0.501,2.27081 l -0.1146,2.13915 z m -98.7997,-2.32279 c 3.0247,-0.0525 8.0647,-0.0526 11.2,-2e-4 3.1354,0.0524 0.6607,0.0954 -5.4993,0.0955 -6.16,1.1e-4 -8.7253,-0.0428 -5.7007,-0.0953 z"
         id="path23" /><path
         style="fill:#002e44"
         d="m -1350.2705,-380.54095 c -7.421,-1.34581 -13.6762,-5.63033 -16.3642,-11.20867 -0.6353,-1.31848 -1.0531,-2.49148 -0.9284,-2.60665 0.1992,-0.18393 8.1438,-2.8361 8.4956,-2.8361 0.075,0 0.5184,0.78157 0.9858,1.73683 1.121,2.29125 4.0829,5.02404 6.4943,5.99186 1.6263,0.65275 2.3949,0.74345 6.331,0.74713 3.6827,0.003 4.784,-0.10853 6.1881,-0.62911 4.6989,-1.74222 6.2174,-5.77483 3.1506,-8.36661 -1.6518,-1.39594 -3.8782,-2.2059 -11.2462,-4.09134 -8.3196,-2.12895 -11.9867,-3.70026 -14.7627,-6.32562 -0.9896,-0.93601 -2.1797,-2.42212 -2.6446,-3.30248 -0.7583,-1.43609 -0.8452,-1.94611 -0.8452,-4.96066 0,-3.0172 0.09,-3.54269 0.8795,-5.15076 1.7263,-3.51526 5.5865,-6.37834 10.8118,-8.01915 2.1017,-0.65996 3.0232,-0.75009 7.6687,-0.75009 4.6404,0 5.5708,0.0908 7.68,0.7494 3.078,0.96109 6.1419,2.57395 8.1316,4.28058 1.5178,1.30181 4.0284,4.74888 4.0284,5.53089 0,0.2099 -1.908,1.12465 -4.24,2.03277 l -4.24,1.65114 -0.48,-0.71952 c -1.9491,-2.92178 -5.0402,-4.82614 -8.778,-5.40807 -4.1583,-0.64738 -9.5267,0.7668 -11.0542,2.91197 -1.0465,1.46962 -0.8731,3.27953 0.4549,4.7495 1.4638,1.62023 3.7963,2.71707 8.6466,4.06595 2.2059,0.61347 5.8467,1.62352 8.0907,2.24455 7.012,1.9406 10.6725,4.17626 12.4952,7.63137 0.788,1.49384 0.8648,1.95216 0.8648,5.15947 0,3.24146 -0.074,3.67194 -0.937,5.44 -1.2401,2.54108 -4.2133,5.46397 -7.0682,6.94868 -3.7389,1.94444 -6.3707,2.54573 -11.6748,2.66733 -2.552,0.0585 -5.3123,-0.0156 -6.1341,-0.16459 z m -324.4259,-24.78854 v -24.18288 h 13.4119 c 15.3727,0 16.8153,0.1534 21.0441,2.23778 4.2044,2.07236 6.4435,5.17267 6.7502,9.34676 0.3647,4.96228 -2.6548,9.3558 -7.6922,11.19251 l -1.916,0.69863 2.1437,0.58725 c 4.1433,1.13499 6.8278,2.9837 8.3358,5.74052 0.8116,1.48351 0.9556,2.12928 1.0608,4.75655 0.1028,2.56602 0.01,3.33782 -0.5975,4.95009 -1.3688,3.63544 -5.0536,6.35883 -10.7008,7.90884 -2.4264,0.666 -3.3239,0.70903 -17.2,0.82474 l -14.64,0.12208 z m 25.7255,15.48565 c 4.0496,-0.58537 6.6283,-2.21723 7.2701,-4.60064 0.4807,-1.78502 -0.053,-3.36051 -1.6188,-4.77468 -2.2098,-1.99646 -3.5546,-2.23829 -13.2168,-2.37687 l -8.56,-0.12278 v 6.10322 6.10322 l 6.96,-0.006 c 3.828,-0.003 7.9525,-0.1498 9.1655,-0.32514 z m 0.3489,-20.32051 c 2.5501,-0.6642 3.8957,-1.55807 4.6903,-3.11556 1.1508,-2.25574 0.4193,-4.6119 -1.9281,-6.20999 -1.9055,-1.29731 -4.8421,-1.70247 -12.3397,-1.70247 h -6.8969 v 5.76 5.76 h 7.2928 c 5.529,0 7.7496,-0.11898 9.1816,-0.49198 z m 21.6056,28.76005 c 0,-0.11657 4.9875,-10.98857 11.0832,-24.16 l 11.0832,-23.94807 5.6368,0.007 5.6368,0.007 11.04,23.87604 c 6.072,13.13182 11.088,24.00057 11.1467,24.15277 0.059,0.15221 -2.1733,0.27461 -4.96,0.27202 l -5.0667,-0.005 -3.0954,-6.39529 -3.0954,-6.39529 h -11.703 -11.7031 l -3.2031,6.4 -3.203,6.4 h -4.7985 c -2.6391,0 -4.7985,-0.0954 -4.7985,-0.21193 z m 35.1006,-21.62807 c -0.092,-0.22 -1.3709,-2.92 -2.8411,-6 -1.4703,-3.08 -3.0705,-6.51961 -3.5561,-7.64358 -0.4856,-1.12397 -0.9583,-1.96814 -1.0505,-1.87594 -0.1383,0.13831 -6.8444,14.21584 -7.393,15.51952 -0.1319,0.31349 1.4729,0.4 7.4201,0.4 5.947,0 7.5522,-0.0865 7.4206,-0.4 z m 29.2194,-2.32 v -24.16 h 4.8 4.8 v 9.92 9.92 h 14.08 14.08 v -9.92 -9.92 h 4.8 4.8 v 24.16 24.16 h -4.8 -4.8 v -9.76 -9.76 h -14.08 -14.08 v 9.76 9.76 h -4.8 -4.8 z m 62.08,0 v -24.16 h 4.8 4.8 v 24.16 24.16 h -4.8 -4.8 z m 24.32,0 v -24.16 h 18.72 18.72 v 4.16 4.16 h -13.92 -13.92 v 5.44 5.44 h 13.28 13.28 v 4.48 4.48 h -13.28 -13.28 v 5.92 5.92 h 14.4 14.4 v 4.16 4.16 h -19.2 -19.2 z m 50.24,0 v -24.16 h 5.045 5.045 l 10.2833,11.76 c 5.6559,6.468 11.9008,13.668 13.8776,16 1.9768,2.332 3.719,4.24 3.8717,4.24 0.1529,0 0.2774,-7.18116 0.2774,-16 v -16 h 4.64 4.64 v 24.16 24.16 l -5.04,-0.0251 -5.04,-0.0251 -7.84,-8.81829 c -9.1032,-10.23916 -17.2466,-19.49399 -18.9537,-21.54047 l -1.1937,-1.4311 -0.01,15.92 -0.01,15.92 h -4.8 -4.8 z m 112.96,0 v -24.16 h 18.72 18.72 v 4.16 4.16 h -13.92 -13.92 v 5.44 5.44 h 13.12 13.12 v 4.48 4.48 h -13.12 -13.12 v 5.92 5.92 h 14.24 14.24 v 4.16 4.16 h -19.04 -19.04 z m -791.3599,-22.3737 v -10.96548 l 7.12,-0.20258 c 70.6824,-2.0111 136.5436,-38.92247 175.6798,-98.45824 13.4022,-20.38813 23.194,-42.6088 29.02,-65.85572 3.7558,-14.98672 5.7013,-28.58654 6.4304,-44.95181 0.1977,-4.43784 0.4321,-8.14163 0.5209,-8.23063 0.089,-0.089 4.9736,-0.20335 10.8551,-0.2541 l 10.6938,-0.0923 -0.01,5.05226 c -0.023,23.58754 -5.302,52.1596 -14.1473,76.57226 -9.6042,26.50718 -25.6107,53.74727 -44.2822,75.36 -11.0601,12.80245 -26.6335,26.99563 -40.9255,37.29861 -2.288,1.64939 -4.232,3.09501 -4.32,3.21249 -0.088,0.11749 -2.248,1.57432 -4.8,3.23741 -18.5603,12.09537 -39.9771,22.09968 -61.12,28.55068 -21.4367,6.54061 -41.8956,9.81713 -65.84,10.54438 l -4.88,0.14822 z m 429.7599,-52.5332 v -24.1869 l 13.52,0.14151 c 15.041,0.15742 15.8983,0.25761 20.3726,2.38095 3.0018,1.42459 5.1729,3.55855 6.5256,6.4143 0.9927,2.09547 1.0218,2.28037 1.0195,6.47704 0,3.76935 -0.097,4.55463 -0.7433,6.16067 -1.99,4.94405 -6.6069,8.17721 -13.3581,9.35452 -1.9493,0.33994 -5.0147,0.48481 -10.2582,0.48481 h -7.4781 v 8.48 8.48 h -4.8 -4.8 z m 25.76,-2.16705 c 4.0483,-1.07875 5.92,-3.14201 5.92,-6.52585 0,-1.97779 -1.0155,-3.98011 -2.5252,-4.97924 -2.4113,-1.59567 -4.0931,-1.88135 -12.1148,-2.05784 l -7.44,-0.16368 v 7.08028 7.08028 l 7.28,-0.004 c 5.0391,-0.003 7.7726,-0.13504 8.88,-0.43016 z m 35.04,2.19395 v -24.16 h 11.7684 c 12.6336,0 15.6896,0.22647 19.5617,1.44969 6.6172,2.09035 10.1356,6.48052 10.507,13.11031 0.3566,6.36449 -2.0988,10.84871 -7.4922,13.68263 -1.2017,0.63141 -2.9049,1.3227 -3.7849,1.5362 -0.88,0.21351 -1.7154,0.49124 -1.8565,0.61719 -0.192,0.17146 9.6661,12.58233 13.7925,17.36398 0.4576,0.53034 0.1967,0.55966 -4.9264,0.55354 l -5.4096,-0.006 -7.0229,-8.63353 -7.0229,-8.63354 h -4.2571 -4.2571 v 8.64 8.64 h -4.8 -4.8 z m 25.0061,-1.58174 c 3.6299,-0.76938 5.5099,-2.04578 6.4987,-4.41234 1.4827,-3.54877 -0.503,-7.20766 -4.8385,-8.9154 -1.7196,-0.67733 -2.4634,-0.74509 -9.4663,-0.8623 l -7.6,-0.12722 v 7.3895 7.3895 l 6.64,-0.006 c 4.4702,-0.004 7.3348,-0.15282 8.7661,-0.45619 z m 38.0339,1.58174 v -24.16 h 4.8 4.8 v 24.16 24.16 h -4.8 -4.8 z m 49.3288,23.60733 c -0.1659,-0.31203 -5.0838,-10.93533 -10.9288,-23.60733 -5.8449,-12.672 -10.7611,-23.292 -10.9248,-23.6 -0.2777,-0.52242 0.047,-0.56 4.833,-0.56 h 5.1307 l 3.6499,7.44 c 2.0074,4.092 5.3065,11.04 7.3314,15.44 5.2257,11.3555 6.6256,14.24 6.9113,14.24 0.2941,0 3.4162,-6.46915 8.1948,-16.98027 1.8752,-4.12485 4.7888,-10.34373 6.4745,-13.81973 l 3.065,-6.32 h 5.0571 c 3.9157,0 5.0218,0.0903 4.9008,0.4 -0.086,0.22 -5.0904,11.056 -11.1211,24.08 l -10.9648,23.68 -5.6537,0.0873 c -5.1381,0.0793 -5.6812,0.0356 -5.9553,-0.48 z m 40.8416,-0.0436 c 0.1263,-0.32795 5.1256,-11.1953 11.1096,-24.14967 l 10.88,-23.5534 5.6,-4e-5 5.6,-3e-5 10.88,23.55078 c 5.984,12.95293 10.9834,23.82031 11.1097,24.14972 0.2185,0.5696 -0.017,0.59892 -4.8085,0.59892 h -5.0382 l -2.9985,-6.24 -2.9984,-6.24 h -11.7941 -11.7941 l -3.1151,6.24 -3.1151,6.24 h -4.8735 c -4.6233,0 -4.8617,-0.0306 -4.6438,-0.59628 z m 34.5012,-21.88372 c -0.2514,-0.572 -1.8373,-3.96569 -3.5243,-7.54153 -1.687,-3.57584 -3.0673,-6.64784 -3.0673,-6.82667 0,-1.13921 -1.0992,0.81529 -4.3043,7.65309 l -3.6351,7.75511 h 7.494 7.494 z m 38.8484,-1.7088 v -24.18881 l 13.84,0.15042 c 10.8633,0.11807 14.3323,0.25718 16.1286,0.6468 9.6054,2.08341 15.5259,6.9758 18.2736,15.10039 0.8124,2.40215 0.8652,2.9053 0.8573,8.16 -0.01,5.20614 -0.069,5.78053 -0.8648,8.16675 -2.7333,8.19375 -9.1743,13.66389 -18.309,15.54925 -2.5455,0.52539 -4.4793,0.59609 -16.4057,0.5998 l -13.52,0.004 z m 29.5169,14.95732 c 4.3491,-1.43625 7.639,-4.54149 9.0359,-8.52852 0.7276,-2.07687 1.0137,-8.02404 0.5041,-10.47873 -0.8801,-4.2393 -3.626,-7.73815 -7.4934,-9.54791 -3.348,-1.56673 -5.6852,-1.91519 -14.2035,-2.11775 l -7.76,-0.18452 v 15.91082 15.91083 l 8.88,-0.12597 c 8.1237,-0.11525 9.0637,-0.18664 11.0369,-0.83825 z m 32.6165,8.93659 c 0.059,-0.1622 5.0746,-11.0358 11.1466,-24.16355 l 11.04,-23.86866 5.5811,0.0836 5.5811,0.0836 10.7389,23.2086 c 5.9064,12.76472 10.9159,23.60072 11.1321,24.08 l 0.3931,0.8714 h -5.0658 -5.0659 l -3.0073,-6.24 -3.0072,-6.24 -11.84,0.007 -11.8401,0.007 -3.0117,6.2331 -3.0117,6.2331 h -4.9349 c -2.8738,0 -4.8904,-0.12317 -4.8283,-0.29489 z m 34.0356,-23.46511 c -4.4704,-9.65134 -6.1468,-13.11029 -6.3739,-13.1519 -0.2265,-0.0415 -2.3205,4.23104 -6.4458,13.1519 l -1.0728,2.32 h 7.4835 7.4836 z m -813.2889,0.81088 v -10.88884 l 4.56,-0.21086 c 15.6821,-0.72517 28.1278,-2.67008 41.2227,-6.44195 33.8339,-9.74552 63.6071,-29.92492 85.4427,-57.91056 18.4663,-23.66752 30.3006,-52.2625 33.8862,-81.87878 0.718,-5.93035 1.2884,-13.75116 1.2884,-17.66534 v -2.69455 h 10.88 10.88 v 3.76 c -0.01,7.20027 -0.9796,17.91722 -2.4346,26.8 -4.9213,30.04532 -17.1301,58.50564 -35.5534,82.88 -10.4782,13.86294 -23.1765,26.55986 -37.0488,37.04507 -9.6787,7.31543 -18.1669,12.55353 -29.6,18.26617 -24.3492,12.16625 -49.8115,18.61828 -77.3816,19.6081 l -6.1384,0.22039 z m 0,-52.84477 c 0,-8.52603 0.088,-10.92673 0.4,-10.92897 2.3343,-0.0167 11.7616,-0.74135 14.64,-1.12535 37.5218,-5.00563 69.9621,-27.89915 87.0492,-61.43179 7.2701,-14.2671 11.4601,-30.25465 12.0557,-46 l 0.1906,-5.04 h 11.0056 11.0055 l -0.1658,2.32 c -0.091,1.276 -0.2479,4.048 -0.3482,6.16 -0.1003,2.112 -0.4588,6.00321 -0.7966,8.64713 -5.619,43.97724 -32.3343,82.11377 -72.0439,102.84395 -17.6949,9.23754 -37.0795,14.34173 -57.9521,15.25952 l -5.04,0.22161 z m 449.1696,1.70207 c -15.1123,-2.84571 -24.143,-13.8566 -22.5881,-27.54107 1.5302,-13.46668 13.0203,-22.21878 29.1487,-22.2029 6.6419,0.007 11.4987,1.23822 16.7497,4.24771 2.8826,1.65207 7.3029,6.10081 8.7417,8.79793 0.5839,1.09459 1.0116,1.99015 0.9504,1.99015 -0.061,0 -1.9747,0.72 -4.2521,1.6 -2.2773,0.88 -4.2291,1.6 -4.3371,1.6 -0.1081,0 -0.757,-0.81389 -1.4421,-1.80864 -2.3462,-3.40646 -6.5037,-6.18439 -11.0208,-7.36363 -1.3588,-0.35474 -3.3004,-0.54075 -5.6,-0.53648 -6.0622,0.0113 -10.789,1.78313 -14.4241,5.40699 -3.4639,3.45327 -4.8084,7.20103 -4.545,12.66949 0.13,2.70068 0.2909,3.3898 1.2752,5.46237 2.5907,5.45542 8.0355,8.71778 15.8772,9.51324 7.3502,0.7456 13.9138,-1.29097 17.9023,-5.55472 1.3848,-1.48033 3.6324,-4.97451 3.7639,-5.85135 0.022,-0.14772 8.3371,2.5602 8.5943,2.79888 0.4239,0.39342 -2.1432,5.28546 -3.9772,7.57939 -3.2528,4.06843 -8.1321,7.08414 -13.9233,8.60548 -2.717,0.71375 -4.0034,0.8526 -8.7833,0.94804 -4.0101,0.0801 -6.3127,-0.0224 -8.1103,-0.36088 z m 280.8942,0.0434 c -9.9309,-1.88834 -16.9702,-6.62383 -20.4833,-13.77937 -2.027,-4.12877 -2.5151,-6.27362 -2.5151,-11.05218 0,-4.53665 0.4808,-6.83351 2.177,-10.4 3.3005,-6.9397 9.6452,-11.58558 18.9175,-13.85239 1.7077,-0.41747 3.6469,-0.54656 8.16,-0.54319 7.0129,0.005 9.3747,0.49726 14.56,3.03323 3.7409,1.8295 6.1998,3.69294 8.4654,6.41536 1.8164,2.1827 3.4065,5.05739 2.9997,5.42314 -0.1458,0.1311 -2.0651,0.92024 -4.2651,1.75365 l -4,1.5153 -0.6335,-0.91255 c -0.3485,-0.5019 -1.7165,-1.99639 -3.04,-3.32109 -3.9289,-3.93233 -8.0439,-5.53274 -14.2465,-5.54082 -5.6635,-0.007 -10.4932,1.68699 -14.0346,4.9236 -4.0199,3.67391 -5.8784,9.06745 -5.0123,14.54576 1.0279,6.50157 5.6318,11.00042 13.2869,12.98373 3.5615,0.92271 9.5572,0.92621 13.0605,0.008 5.0791,-1.33176 9.2176,-4.48119 11.3945,-8.67135 0.5944,-1.144 1.1051,-2.11394 1.135,-2.15543 0.03,-0.0415 2.0214,0.58214 4.4256,1.38584 l 4.3714,1.46127 -0.4903,1.17345 c -1.5322,3.66724 -4.0742,7.14639 -7.1303,9.75918 -2.3044,1.97005 -7.4266,4.48178 -10.9264,5.3578 -3.4874,0.87294 -12.6942,1.15151 -16.1761,0.48944 z m -224.4639,-24.67155 v -24.16 h 4.8 4.8 v 20 20 h 13.28 13.28 v 4.16 4.16 h -18.08 -18.08 z m 57.28,0 v -24.16 h 4.8 4.8 v 24.16 24.16 h -4.8 -4.8 z m 36.48,0 v -24.16 l 5.04,0.003 5.04,0.003 11.2438,12.87707 c 6.184,7.08238 12.4267,14.28106 13.8726,15.99706 1.4459,1.716 2.7583,3.12 2.9163,3.12 0.166,0 0.2873,-6.75866 0.2873,-16 v -16 h 4.64 4.64 v 24.16 24.16 h -4.9996 -4.9997 l -1.3203,-1.50466 c -0.7262,-0.82757 -5.1767,-5.81213 -9.8901,-11.0768 -4.7133,-5.26467 -10.4013,-11.69589 -12.64,-14.29159 l -4.0703,-4.71947 -0.083,15.79626 -0.083,15.79626 h -4.797 -4.7971 z m 74.56,0 v -24.16 h 4.8 4.8 v 24.16 24.16 h -4.8 -4.8 z m 105.4216,23.6 c 0.1156,-0.308 5.1225,-11.18 11.1265,-24.16 l 10.9163,-23.6 5.6278,0.006 5.6278,0.006 11.04,23.87081 c 6.072,13.12894 11.088,23.99826 11.1467,24.15403 0.059,0.15708 -2.15,0.27951 -4.96,0.27489 l -5.0667,-0.008 -3.0982,-6.39166 -3.0982,-6.39167 h -11.7264 -11.7263 l -3.0955,6.39529 -3.0954,6.39529 -4.9142,0.005 c -4.548,0.004 -4.8986,-0.037 -4.7042,-0.55529 z m 35.0584,-21.0471 c 0,-0.0919 -0.5547,-1.27991 -1.2326,-2.64 -0.678,-1.36009 -2.2837,-4.7769 -3.5683,-7.5929 -1.2846,-2.816 -2.4531,-5.25208 -2.5968,-5.41351 -0.1498,-0.16827 -0.357,-0.0317 -0.4856,0.32 -0.1234,0.33743 -1.7841,3.91937 -3.6905,7.95987 -1.9064,4.04049 -3.4662,7.38849 -3.4662,7.44 0,0.0515 3.384,0.0936 7.52,0.0936 4.136,0 7.52,-0.0752 7.52,-0.1671 z m -250.3466,-31.33949 c 0.3226,-0.43263 2.2426,-2.87395 4.2666,-5.42515 l 3.68,-4.63856 5.744,-0.0149 c 3.1762,-0.008 5.6081,0.10672 5.44,0.25708 -0.1672,0.14956 -2.8491,2.59756 -5.9598,5.44 l -5.6558,5.16807 h -4.0509 -4.0508 z"
         id="path22" /></g></g></svg>
